M48
;Layer_Color=9474304
;FILE_FORMAT=4:4
METRIC,LZ
;TYPE=PLATED
T01F00S00C0.2000
T02F00S00C0.3000
T03F00S00C0.5000
T04F00S00C0.8000
T05F00S00C1.2000
T06F00S00C1.6000
T07F00S00C3.2000
%
T01
X0017Y0034
T02
X0002Y0014
X0003Y0021
X00083377Y00230945
X001Y0028
X0014Y0033
X00148558Y00348558
X0012365Y00385809
X0008Y00364
X001885Y0039
X0025Y0037
X00224874Y003445
X00202074Y00306456
X0029Y003
Y00344
X00341Y00393017
X0046Y0039
X004705Y002546
X00415219Y00436802
X00361677Y00459723
X003435Y00445521
X003Y0046
X00262567Y00459784
X0022Y0048
X001815Y0048625
X0018Y0052
X0016
X00128024Y0052009
X0011Y0049
X001Y0042
X002225
X0021Y0052
X003015Y00519158
T03
X0003Y0008
X0005Y000725
X0007Y0008
X000775Y001
X0007Y0012
X0005Y001275
X0003Y0012
X000225Y001
X004225
X0043Y0008
X0045Y000725
X0047Y0008
X004775Y001
X0047Y0012
X0045Y001275
X0043Y0012
Y0048
X0045Y004725
X0047Y0048
X004775Y005
X0047Y0052
X0045Y005275
X0043Y0052
X004225Y005
X000775
X0007Y0052
X0005Y005275
X0003Y0052
X000225Y005
X0003Y0048
X0005Y004725
X0007Y0048
T04
X00105Y001109
Y001363
X001558
Y001109
Y002125
X00105
X0004Y002696
Y00295
Y003204
Y0038
Y004054
Y004308
T05
X0021475Y0015015
X0023975
Y0017515
X0021475
X0026475
Y0015015
T06
X00215Y000791
X00265
T07
X0005Y001
X0045
Y005
X0005
M30
