M48
;Layer_Color=9474304
;FILE_FORMAT=4:4
METRIC,LZ
;TYPE=PLATED
T01F00S00C0.3000
T02F00S00C0.8000
T03F00S00C1.0000
T04F00S00C1.2000
T05F00S00C1.6000
T06F00S00C3.2000
%
T01
X0003Y0008
X0005Y000725
X0007Y0008
X000775Y001
X0007Y0012
X0005Y001275
X0003Y0012
X000225Y001
X0004Y0016
X0006Y002
X0014
X0012Y0024
X0014Y0028
X00131Y00349
X00123Y00359
Y00369
X0014Y0036
X00159Y00365
X00182Y00366
X0022Y0036
X0026
X0024Y0039
X00295
X00337Y0036
X0038Y0036
X00375Y00386
X00385Y0025
X0038Y002
Y0012
X003
X00289Y00127
X0028Y0008
X0032
X00195
X0018Y00094
X00165Y0008
X0016Y0016
X00124Y0014
X001Y0012
X0002Y00256
X0004Y00314
X00052Y00307
X00069Y00369
X00022
X00219Y00297
X00215Y0026
X0022Y0023
X00243Y00231
X00261Y00264
X00267Y00293
X00338Y0026
X00301Y00213
X0042Y002
X004Y0016
X0044
X0048
X0048Y001275
X005Y0012
X005075Y001
X005Y0008
X0048Y000725
X0046Y0008
X0044
X004525Y001
X0046Y0012
X0042Y0012
X004Y0032
X0042Y0036
X005
X0048Y0032
X005Y0028
X0048Y004
X0044
Y0048
X0046Y0048
X0048Y004725
X005Y0048
X005075Y005
X005Y0052
X0048Y005275
X0046Y0052
X004525Y005
X0042Y0052
X005Y0044
X0034Y0044
X0034Y0052
X0022
Y0044
X00193Y0042
X00116Y00429
X00067506Y00418626
X00072Y00444
X0007Y0048
X000775Y005
X0007Y0052
X0005Y005275
X0003Y0052
X000225Y005
X0003Y0048
X0005Y004725
X00021Y00452
Y00406
X00108Y00491
T02
X00245Y0042
Y004454
Y004708
X00305
Y004454
Y0042
T03
X0046Y00335
Y003604
Y003858
T04
X0023975Y0016515
X0026475
X0028975
Y0019015
X0026475
X0023975
T05
X0024Y000941
X0029
T06
X0005Y001
X0048
Y005
X0005
M30
