G04*
G04 #@! TF.GenerationSoftware,Altium Limited,Altium Designer,23.9.2 (47)*
G04*
G04 Layer_Color=32768*
%FSLAX44Y44*%
%MOMM*%
G71*
G04*
G04 #@! TF.SameCoordinates,C0219126-44E1-4284-9116-4A7CBBAE3C9F*
G04*
G04*
G04 #@! TF.FilePolarity,Positive*
G04*
G01*
G75*
%ADD13C,0.2000*%
%ADD14C,0.1000*%
D13*
X253500Y337000D02*
X276500D01*
X253500Y383000D02*
X276500D01*
Y337000D02*
Y383000D01*
X253500Y337000D02*
Y383000D01*
X265000Y355000D02*
Y365000D01*
X260000Y360000D02*
X270000D01*
X428000Y423500D02*
Y446500D01*
X382000Y423500D02*
Y446500D01*
X428000D01*
X382000Y423500D02*
X428000D01*
X400000Y435000D02*
X410000D01*
X405000Y430000D02*
Y440000D01*
Y465000D02*
Y475000D01*
X400000Y470000D02*
X410000D01*
X375750Y453500D02*
X434250D01*
X375750Y486500D02*
X434250D01*
X375750Y453500D02*
Y486500D01*
X434250Y453500D02*
Y486500D01*
X160000Y455000D02*
X170000D01*
X165000Y450000D02*
Y460000D01*
X145000Y429500D02*
Y480500D01*
X185000Y429500D02*
Y480500D01*
X145000D02*
X185000D01*
X145000Y429500D02*
X185000D01*
X150000Y447000D02*
X180000D01*
X150000Y463000D02*
X180000D01*
Y447000D02*
Y463000D01*
X150000Y447000D02*
Y463000D01*
X170000Y400000D02*
X180000D01*
X175000Y395000D02*
Y405000D01*
X162500Y377500D02*
Y422500D01*
X187500Y377500D02*
Y422500D01*
X162500D02*
X187500D01*
X162500Y377500D02*
X187500D01*
X35000Y385000D02*
X45000D01*
X40000Y380000D02*
Y390000D01*
X27500Y362500D02*
Y407500D01*
X52500Y362500D02*
Y407500D01*
X27500D02*
X52500D01*
X27500Y362500D02*
X52500D01*
X85000Y395000D02*
Y405000D01*
X80000Y400000D02*
X90000D01*
X59500Y380000D02*
X110500D01*
X59500Y420000D02*
X110500D01*
X59500Y380000D02*
Y420000D01*
X110500Y380000D02*
Y420000D01*
X93000Y385000D02*
Y415000D01*
X77000Y385000D02*
Y415000D01*
X93000D01*
X77000Y385000D02*
X93000D01*
X83500Y432000D02*
X106500D01*
X83500Y478000D02*
X106500D01*
Y432000D02*
Y478000D01*
X83500Y432000D02*
Y478000D01*
X95000Y450000D02*
Y460000D01*
X90000Y455000D02*
X100000D01*
X118500Y478000D02*
X141500D01*
X118500Y432000D02*
X141500D01*
X118500D02*
Y478000D01*
X141500Y432000D02*
Y478000D01*
X130000Y450000D02*
Y460000D01*
X125000Y455000D02*
X135000D01*
X125000Y400000D02*
X135000D01*
X130000Y395000D02*
Y405000D01*
X117500Y377500D02*
Y422500D01*
X142500Y377500D02*
Y422500D01*
X117500D02*
X142500D01*
X117500Y377500D02*
X142500D01*
X315500Y104250D02*
Y155251D01*
X345001Y104250D02*
Y155251D01*
X315500D02*
X345001D01*
X315500Y104250D02*
X345001D01*
X313500Y95750D02*
X346500D01*
X313500Y164250D02*
X346500D01*
Y95750D02*
Y164250D01*
X313500Y95750D02*
Y164250D01*
X330000Y125000D02*
Y135000D01*
X325000Y130000D02*
X335000D01*
X185500Y104250D02*
Y155251D01*
X215001Y104250D02*
Y155251D01*
X185500D02*
X215001D01*
X185500Y104250D02*
X215001D01*
X183500Y95750D02*
X216500D01*
X183500Y164250D02*
X216500D01*
Y95750D02*
Y164250D01*
X183500Y95750D02*
Y164250D01*
X200000Y125000D02*
Y135000D01*
X195000Y130000D02*
X205000D01*
X345000Y240000D02*
Y250000D01*
X340000Y245000D02*
X350000D01*
X322500Y232500D02*
X367500D01*
X322500Y257500D02*
X367500D01*
X322500Y232500D02*
Y257500D01*
X367500Y232500D02*
Y257500D01*
X160000Y200000D02*
X170000D01*
X165000Y195000D02*
Y205000D01*
X152500Y177500D02*
Y222500D01*
X177500Y177500D02*
Y222500D01*
X152500D02*
X177500D01*
X152500Y177500D02*
X177500D01*
X185000Y240000D02*
Y250000D01*
X180000Y245000D02*
X190000D01*
X162500Y257500D02*
X207500D01*
X162500Y232500D02*
X207500D01*
Y257500D01*
X162500Y232500D02*
Y257500D01*
X220000Y360000D02*
X230000D01*
X225000Y355000D02*
Y365000D01*
X212500Y337500D02*
Y382500D01*
X237500Y337500D02*
Y382500D01*
X212500D02*
X237500D01*
X212500Y337500D02*
X237500D01*
X410000Y270000D02*
Y280000D01*
X405000Y275000D02*
X415000D01*
X387500Y262500D02*
X432500D01*
X387500Y287500D02*
X432500D01*
X387500Y262500D02*
Y287500D01*
X432500Y262500D02*
Y287500D01*
X350000Y290000D02*
X360000D01*
X355000Y285000D02*
Y295000D01*
X367500Y267500D02*
Y312500D01*
X342500Y267500D02*
Y312500D01*
Y267500D02*
X367500D01*
X342500Y312500D02*
X367500D01*
X295000Y360000D02*
X305000D01*
X300000Y355000D02*
Y365000D01*
X287500Y337500D02*
Y382500D01*
X312500Y337500D02*
Y382500D01*
X287500D02*
X312500D01*
X287500Y337500D02*
X312500D01*
X235000Y241750D02*
X295000D01*
X235000Y328251D02*
X295000D01*
X235000Y241750D02*
Y328251D01*
X295000Y241750D02*
Y328251D01*
X265000Y280000D02*
Y290000D01*
X260000Y285000D02*
X270000D01*
X228000Y238500D02*
X302000D01*
X228000Y331500D02*
X302000D01*
X228000Y238500D02*
Y331500D01*
X302000Y238500D02*
Y331500D01*
X355000Y200000D02*
X365000D01*
X360000Y195000D02*
Y205000D01*
X347500Y177500D02*
Y222500D01*
X372500Y177500D02*
Y222500D01*
X347500D02*
X372500D01*
X347500Y177500D02*
X372500D01*
D14*
X260331Y342665D02*
X261498Y341499D01*
Y339166D01*
X260331Y338000D01*
X255666D01*
X254500Y339166D01*
Y341499D01*
X255666Y342665D01*
X261498Y349663D02*
Y344998D01*
X257999D01*
X259165Y347330D01*
Y348497D01*
X257999Y349663D01*
X255666D01*
X254500Y348497D01*
Y346164D01*
X255666Y344998D01*
X422335Y430331D02*
X423501Y431498D01*
X425834D01*
X427000Y430331D01*
Y425666D01*
X425834Y424500D01*
X423501D01*
X422335Y425666D01*
X420002Y430331D02*
X418836Y431498D01*
X416503D01*
X415337Y430331D01*
Y429165D01*
X416503Y427999D01*
X417670D01*
X416503D01*
X415337Y426833D01*
Y425666D01*
X416503Y424500D01*
X418836D01*
X420002Y425666D01*
X428585Y460331D02*
X429751Y461498D01*
X432084D01*
X433250Y460331D01*
Y455666D01*
X432084Y454500D01*
X429751D01*
X428585Y455666D01*
X422753Y454500D02*
Y461498D01*
X426252Y457999D01*
X421587D01*
X147166Y435165D02*
X151831D01*
X152998Y433999D01*
Y431666D01*
X151831Y430500D01*
X147166D01*
X146000Y431666D01*
Y433999D01*
X148333Y432833D02*
X146000Y435165D01*
Y433999D02*
X147166Y435165D01*
X151831Y437498D02*
X152998Y438664D01*
Y440997D01*
X151831Y442163D01*
X150665D01*
X149499Y440997D01*
Y439830D01*
Y440997D01*
X148333Y442163D01*
X147166D01*
X146000Y440997D01*
Y438664D01*
X147166Y437498D01*
X163500Y378500D02*
X170498D01*
Y381999D01*
X169331Y383165D01*
X166999D01*
X165833Y381999D01*
Y378500D01*
Y380833D02*
X163500Y383165D01*
Y385498D02*
Y387830D01*
Y386664D01*
X170498D01*
X169331Y385498D01*
X170498Y395994D02*
X169331Y393662D01*
X166999Y391329D01*
X164666D01*
X163500Y392495D01*
Y394828D01*
X164666Y395994D01*
X165833D01*
X166999Y394828D01*
Y391329D01*
X28500Y363502D02*
X35498D01*
Y367001D01*
X34331Y368167D01*
X31999D01*
X30833Y367001D01*
Y363502D01*
Y365835D02*
X28500Y368167D01*
Y370500D02*
Y372832D01*
Y371666D01*
X35498D01*
X34331Y370500D01*
X35498Y376331D02*
Y380997D01*
X34331D01*
X29666Y376331D01*
X28500D01*
X104835Y382166D02*
Y386832D01*
X106001Y387998D01*
X108334D01*
X109500Y386832D01*
Y382166D01*
X108334Y381000D01*
X106001D01*
X107167Y383333D02*
X104835Y381000D01*
X106001D02*
X104835Y382166D01*
X99003Y381000D02*
Y387998D01*
X102502Y384499D01*
X97837D01*
X90331Y437665D02*
X91498Y436499D01*
Y434166D01*
X90331Y433000D01*
X85666D01*
X84500Y434166D01*
Y436499D01*
X85666Y437665D01*
Y439998D02*
X84500Y441164D01*
Y443497D01*
X85666Y444663D01*
X90331D01*
X91498Y443497D01*
Y441164D01*
X90331Y439998D01*
X89165D01*
X87999Y441164D01*
Y444663D01*
X134669Y472335D02*
X133502Y473501D01*
Y475834D01*
X134669Y477000D01*
X139334D01*
X140500Y475834D01*
Y473501D01*
X139334Y472335D01*
X134669Y470002D02*
X133502Y468836D01*
Y466503D01*
X134669Y465337D01*
X135835D01*
X137001Y466503D01*
X138167Y465337D01*
X139334D01*
X140500Y466503D01*
Y468836D01*
X139334Y470002D01*
X138167D01*
X137001Y468836D01*
X135835Y470002D01*
X134669D01*
X137001Y468836D02*
Y466503D01*
X118500Y378500D02*
X125498D01*
Y381999D01*
X124332Y383165D01*
X121999D01*
X120833Y381999D01*
Y378500D01*
Y380833D02*
X118500Y383165D01*
Y385498D02*
Y387830D01*
Y386664D01*
X125498D01*
X124332Y385498D01*
Y391329D02*
X125498Y392495D01*
Y394828D01*
X124332Y395994D01*
X123165D01*
X121999Y394828D01*
X120833Y395994D01*
X119666D01*
X118500Y394828D01*
Y392495D01*
X119666Y391329D01*
X120833D01*
X121999Y392495D01*
X123165Y391329D01*
X124332D01*
X121999Y392495D02*
Y394828D01*
X321498Y96750D02*
X314500D01*
Y100249D01*
X315666Y101415D01*
X320331D01*
X321498Y100249D01*
Y96750D01*
X314500Y108413D02*
Y103748D01*
X319165Y108413D01*
X320331D01*
X321498Y107247D01*
Y104914D01*
X320331Y103748D01*
X191498Y96750D02*
X184500D01*
Y100249D01*
X185666Y101415D01*
X190331D01*
X191498Y100249D01*
Y96750D01*
X190331Y103748D02*
X191498Y104914D01*
Y107247D01*
X190331Y108413D01*
X189165D01*
X187999Y107247D01*
Y106080D01*
Y107247D01*
X186833Y108413D01*
X185666D01*
X184500Y107247D01*
Y104914D01*
X185666Y103748D01*
X366500Y233500D02*
Y240498D01*
X363001D01*
X361835Y239331D01*
Y236999D01*
X363001Y235833D01*
X366500D01*
X364167D02*
X361835Y233500D01*
X359502D02*
X357170D01*
X358336D01*
Y240498D01*
X359502Y239331D01*
X153500Y178500D02*
X160498D01*
Y181999D01*
X159332Y183165D01*
X156999D01*
X155833Y181999D01*
Y178500D01*
Y180833D02*
X153500Y183165D01*
X160498Y190163D02*
Y185498D01*
X156999D01*
X158165Y187830D01*
Y188997D01*
X156999Y190163D01*
X154666D01*
X153500Y188997D01*
Y186664D01*
X154666Y185498D01*
X163500Y256500D02*
Y249502D01*
X166999D01*
X168165Y250669D01*
Y253001D01*
X166999Y254167D01*
X163500D01*
X165833D02*
X168165Y256500D01*
X173997D02*
Y249502D01*
X170498Y253001D01*
X175163D01*
X213500Y338500D02*
X220498D01*
Y341999D01*
X219331Y343165D01*
X216999D01*
X215833Y341999D01*
Y338500D01*
Y340832D02*
X213500Y343165D01*
X220498Y350163D02*
X219331Y347830D01*
X216999Y345498D01*
X214666D01*
X213500Y346664D01*
Y348997D01*
X214666Y350163D01*
X215833D01*
X216999Y348997D01*
Y345498D01*
X431500Y263500D02*
Y270498D01*
X428001D01*
X426835Y269331D01*
Y266999D01*
X428001Y265833D01*
X431500D01*
X429167D02*
X426835Y263500D01*
X424502Y269331D02*
X423336Y270498D01*
X421003D01*
X419837Y269331D01*
Y268165D01*
X421003Y266999D01*
X419837Y265833D01*
Y264666D01*
X421003Y263500D01*
X423336D01*
X424502Y264666D01*
Y265833D01*
X423336Y266999D01*
X424502Y268165D01*
Y269331D01*
X423336Y266999D02*
X421003D01*
X366500Y311500D02*
X359502D01*
Y308001D01*
X360668Y306835D01*
X363001D01*
X364167Y308001D01*
Y311500D01*
Y309167D02*
X366500Y306835D01*
X359502Y304502D02*
Y299837D01*
X360668D01*
X365334Y304502D01*
X366500D01*
X288500Y338500D02*
X295498D01*
Y341999D01*
X294331Y343165D01*
X291999D01*
X290833Y341999D01*
Y338500D01*
Y340832D02*
X288500Y343165D01*
X294331Y345498D02*
X295498Y346664D01*
Y348997D01*
X294331Y350163D01*
X293165D01*
X291999Y348997D01*
Y347830D01*
Y348997D01*
X290833Y350163D01*
X289666D01*
X288500Y348997D01*
Y346664D01*
X289666Y345498D01*
X303000Y270498D02*
Y264666D01*
X301834Y263500D01*
X299501D01*
X298335Y264666D01*
Y270498D01*
X291337Y263500D02*
X296002D01*
X291337Y268165D01*
Y269331D01*
X292503Y270498D01*
X294836D01*
X296002Y269331D01*
X348500Y178500D02*
X355498D01*
Y181999D01*
X354331Y183165D01*
X351999D01*
X350832Y181999D01*
Y178500D01*
Y180833D02*
X348500Y183165D01*
Y190163D02*
Y185498D01*
X353165Y190163D01*
X354331D01*
X355498Y188997D01*
Y186664D01*
X354331Y185498D01*
M02*
