G04*
G04 #@! TF.GenerationSoftware,Altium Limited,Altium Designer,23.9.2 (47)*
G04*
G04 Layer_Color=8388736*
%FSLAX44Y44*%
%MOMM*%
G71*
G04*
G04 #@! TF.SameCoordinates,C0219126-44E1-4284-9116-4A7CBBAE3C9F*
G04*
G04*
G04 #@! TF.FilePolarity,Positive*
G04*
G01*
G75*
%ADD13C,0.2000*%
%ADD14C,0.1000*%
D13*
X85000Y453250D02*
X145000D01*
X85000Y366749D02*
X145000D01*
X85000D02*
Y453250D01*
X145000Y366749D02*
Y453250D01*
X115000Y405000D02*
Y415000D01*
X110000Y410000D02*
X120000D01*
X78000Y456500D02*
X152000D01*
X78000Y363500D02*
X152000D01*
X78000D02*
Y456500D01*
X152000Y363500D02*
Y456500D01*
X395000Y418400D02*
X480250D01*
X395000Y302400D02*
X480250D01*
Y418400D01*
X395000Y302400D02*
Y418400D01*
X363250Y172000D02*
X398251D01*
X363250Y187750D02*
X398251D01*
Y172000D02*
Y187750D01*
X363250Y172000D02*
Y187750D01*
X357000Y168500D02*
Y191500D01*
X403000Y168500D02*
Y191500D01*
X357000D02*
X403000D01*
X357000Y168500D02*
X403000D01*
X375000Y180000D02*
X385000D01*
X380000Y175000D02*
Y185000D01*
X393500Y250500D02*
X416250D01*
X393500Y199500D02*
X416250D01*
Y250500D01*
X393500Y199500D02*
Y250500D01*
X405000Y220000D02*
Y230000D01*
X400000Y225000D02*
X410000D01*
X396000Y239000D02*
X414000D01*
X396000Y211000D02*
X414000D01*
Y239000D01*
X396000Y211000D02*
Y239000D01*
X484250Y258500D02*
Y291500D01*
X425750Y258500D02*
Y291500D01*
Y258500D02*
X484250D01*
X425750Y291500D02*
X484250D01*
X450000Y275000D02*
X460000D01*
X455000Y270000D02*
Y280000D01*
Y240000D02*
Y250000D01*
X450000Y245000D02*
X460000D01*
X432000Y256500D02*
X478000D01*
X432000Y233500D02*
X478000D01*
X432000D02*
Y256500D01*
X478000Y233500D02*
Y256500D01*
X231750Y33400D02*
X296751D01*
X231750Y196401D02*
X296751D01*
Y33400D02*
Y196401D01*
X231750Y33400D02*
Y196401D01*
X264000Y109150D02*
Y127400D01*
X254932Y117765D02*
X273182D01*
X384750Y70750D02*
Y159500D01*
X325500Y70750D02*
Y159500D01*
X384750D01*
X325500Y70750D02*
X384750D01*
X321000Y66750D02*
X389000D01*
X321000Y163250D02*
X389000D01*
X321000Y66750D02*
Y163250D01*
X389000Y66750D02*
Y163250D01*
X355000Y110000D02*
Y120000D01*
X350000Y115000D02*
X360000D01*
X387000Y463000D02*
Y473000D01*
X382000Y468000D02*
X392000D01*
X366750Y458000D02*
X407250D01*
X366750Y478000D02*
X407250D01*
Y458000D02*
Y478000D01*
X366750Y458000D02*
Y478000D01*
X369250Y460000D02*
Y476001D01*
X404251Y460000D02*
Y476001D01*
X369250D02*
X404251D01*
X369250Y460000D02*
X404251D01*
X424000Y453000D02*
Y463000D01*
X419000Y458000D02*
X429000D01*
X414500Y440500D02*
Y475500D01*
X433500Y440500D02*
Y475500D01*
X414500Y440500D02*
X433500D01*
X414500Y475500D02*
X433500D01*
X123000Y473000D02*
Y483000D01*
X118000Y478000D02*
X128000D01*
X100000Y489500D02*
X146000D01*
X100000Y466500D02*
X146000D01*
X100000D02*
Y489500D01*
X146000Y466500D02*
Y489500D01*
X112500Y332500D02*
Y357500D01*
X67500Y332500D02*
Y357500D01*
Y332500D02*
X112500D01*
X67500Y357500D02*
X112500D01*
X85000Y345000D02*
X95000D01*
X90000Y340000D02*
Y350000D01*
X187500Y332500D02*
Y357500D01*
X142500Y332500D02*
Y357500D01*
Y332500D02*
X187500D01*
X142500Y357500D02*
X187500D01*
X160000Y345000D02*
X170000D01*
X165000Y340000D02*
Y350000D01*
X282500Y277500D02*
X307500D01*
X282500Y322500D02*
X307500D01*
X282500Y277500D02*
Y322500D01*
X307500Y277500D02*
Y322500D01*
X295000Y295000D02*
Y305000D01*
X290000Y300000D02*
X300000D01*
X277500Y302500D02*
Y327500D01*
X232500Y302500D02*
Y327500D01*
Y302500D02*
X277500D01*
X232500Y327500D02*
X277500D01*
X250000Y315000D02*
X260000D01*
X255000Y310000D02*
Y320000D01*
X157500Y422500D02*
X182500D01*
X157500Y377500D02*
X182500D01*
Y422500D01*
X157500Y377500D02*
Y422500D01*
X170000Y395000D02*
Y405000D01*
X165000Y400000D02*
X175000D01*
X57500Y422500D02*
Y447500D01*
X12500Y422500D02*
Y447500D01*
Y422500D02*
X57500D01*
X12500Y447500D02*
X57500D01*
X30000Y435000D02*
X40000D01*
X35000Y430000D02*
Y440000D01*
X205000Y330000D02*
X215000D01*
X210000Y325000D02*
Y335000D01*
X198500Y307000D02*
Y353000D01*
X221500Y307000D02*
Y353000D01*
X198500Y307000D02*
X221500D01*
X198500Y353000D02*
X221500D01*
X225000Y347000D02*
Y363000D01*
X255000Y347000D02*
Y363000D01*
X225000Y347000D02*
X255000D01*
X225000Y363000D02*
X255000D01*
X220000Y380500D02*
X260000D01*
X220000Y329500D02*
X260000D01*
Y380500D01*
X220000Y329500D02*
Y380500D01*
X240000Y350000D02*
Y360000D01*
X235000Y355000D02*
X245000D01*
X280000Y347000D02*
Y363000D01*
X310000Y347000D02*
Y363000D01*
X280000Y347000D02*
X310000D01*
X280000Y363000D02*
X310000D01*
X275000Y380500D02*
X315000D01*
X275000Y329500D02*
X315000D01*
Y380500D01*
X275000Y329500D02*
Y380500D01*
X295000Y350000D02*
Y360000D01*
X290000Y355000D02*
X300000D01*
X157500Y472500D02*
X182500D01*
X157500Y427500D02*
X182500D01*
Y472500D01*
X157500Y427500D02*
Y472500D01*
X170000Y445000D02*
Y455000D01*
X165000Y450000D02*
X175000D01*
X12500Y377500D02*
Y402500D01*
X57500Y377500D02*
Y402500D01*
X12500D02*
X57500D01*
X12500Y377500D02*
X57500D01*
X30000Y390000D02*
X40000D01*
X35000Y385000D02*
Y395000D01*
X220000Y397800D02*
X269001D01*
X220000Y493301D02*
X269001D01*
Y397800D02*
Y493301D01*
X220000Y397800D02*
Y493301D01*
X280000Y397800D02*
X329001D01*
X280000Y493301D02*
X329001D01*
Y397800D02*
Y493301D01*
X280000Y397800D02*
Y493301D01*
X57500Y332500D02*
Y357500D01*
X12500Y332500D02*
Y357500D01*
Y332500D02*
X57500D01*
X12500Y357500D02*
X57500D01*
X30000Y345000D02*
X40000D01*
X35000Y340000D02*
Y350000D01*
X27000Y265000D02*
X43000D01*
X27000Y295000D02*
X43000D01*
Y265000D02*
Y295000D01*
X27000Y265000D02*
Y295000D01*
X9500Y260000D02*
Y300000D01*
X60500Y260000D02*
Y300000D01*
X9500D02*
X60500D01*
X9500Y260000D02*
X60500D01*
X30000Y280000D02*
X40000D01*
X35000Y275000D02*
Y285000D01*
X155500Y303750D02*
Y326500D01*
X104500Y303750D02*
Y326500D01*
Y303750D02*
X155500D01*
X104500Y326500D02*
X155500D01*
X125000Y315000D02*
X135000D01*
X130000Y310000D02*
Y320000D01*
X144000Y306000D02*
Y324000D01*
X116000Y306000D02*
Y324000D01*
Y306000D02*
X144000D01*
X116000Y324000D02*
X144000D01*
D14*
X153000Y424502D02*
Y430334D01*
X151834Y431500D01*
X149501D01*
X148335Y430334D01*
Y424502D01*
X146002Y425668D02*
X144836Y424502D01*
X142503D01*
X141337Y425668D01*
Y426835D01*
X142503Y428001D01*
X143670D01*
X142503D01*
X141337Y429167D01*
Y430334D01*
X142503Y431500D01*
X144836D01*
X146002Y430334D01*
X430248Y400900D02*
X423250D01*
Y397401D01*
X424416Y396235D01*
X429081D01*
X430248Y397401D01*
Y400900D01*
X429081Y389237D02*
X430248Y390403D01*
Y392736D01*
X429081Y393902D01*
X424416D01*
X423250Y392736D01*
Y390403D01*
X424416Y389237D01*
X430248Y386904D02*
X423250D01*
Y383406D01*
X424416Y382239D01*
X429081D01*
X430248Y383406D01*
Y386904D01*
X429081Y375242D02*
X430248Y376408D01*
Y378740D01*
X429081Y379907D01*
X424416D01*
X423250Y378740D01*
Y376408D01*
X424416Y375242D01*
X423250Y372909D02*
Y370576D01*
Y371743D01*
X430248D01*
X429081Y372909D01*
X362665Y176498D02*
X358000D01*
Y172999D01*
X360333D01*
X358000D01*
Y169500D01*
X364998D02*
X367330D01*
X366164D01*
Y176498D01*
X364998Y175331D01*
X401498Y249500D02*
X394500D01*
Y246001D01*
X395666Y244835D01*
X400331D01*
X401498Y246001D01*
Y249500D01*
X394500Y239003D02*
X401498D01*
X397999Y242502D01*
Y237837D01*
X478585Y284669D02*
X479751Y283502D01*
X482084D01*
X483250Y284669D01*
Y289334D01*
X482084Y290500D01*
X479751D01*
X478585Y289334D01*
X471587Y290500D02*
X476252D01*
X471587Y285835D01*
Y284669D01*
X472753Y283502D01*
X475086D01*
X476252Y284669D01*
X472335Y249669D02*
X473501Y248502D01*
X475834D01*
X477000Y249669D01*
Y254334D01*
X475834Y255500D01*
X473501D01*
X472335Y254334D01*
X470002Y255500D02*
X467670D01*
X468836D01*
Y248502D01*
X470002Y249669D01*
X242165Y101648D02*
X239833D01*
X240999D01*
Y95816D01*
X239833Y94650D01*
X238666D01*
X237500Y95816D01*
X244498Y94650D02*
X246830D01*
X245664D01*
Y101648D01*
X244498Y100482D01*
X376752Y71750D02*
X383750D01*
Y75249D01*
X382584Y76415D01*
X377919D01*
X376752Y75249D01*
Y71750D01*
X383750Y78748D02*
Y81080D01*
Y79914D01*
X376752D01*
X377919Y78748D01*
X367750Y466248D02*
Y459250D01*
X371249D01*
X372415Y460416D01*
Y465081D01*
X371249Y466248D01*
X367750D01*
X379413D02*
X374748D01*
Y462749D01*
X377080Y463915D01*
X378247D01*
X379413Y462749D01*
Y460416D01*
X378247Y459250D01*
X375914D01*
X374748Y460416D01*
X415500Y474500D02*
X422498D01*
Y471001D01*
X421331Y469835D01*
X418999D01*
X417833Y471001D01*
Y474500D01*
Y472167D02*
X415500Y469835D01*
Y462837D02*
Y467502D01*
X420165Y462837D01*
X421331D01*
X422498Y464003D01*
Y466336D01*
X421331Y467502D01*
X415500Y457006D02*
X422498D01*
X418999Y460504D01*
Y455839D01*
X140335Y482669D02*
X141501Y481502D01*
X143834D01*
X145000Y482669D01*
Y487334D01*
X143834Y488500D01*
X141501D01*
X140335Y487334D01*
X133337Y481502D02*
X135670Y482669D01*
X138002Y485001D01*
Y487334D01*
X136836Y488500D01*
X134503D01*
X133337Y487334D01*
Y486167D01*
X134503Y485001D01*
X138002D01*
X111500Y356500D02*
Y349502D01*
X108001D01*
X106835Y350668D01*
Y353001D01*
X108001Y354167D01*
X111500D01*
X109167D02*
X106835Y356500D01*
X99837D02*
X104502D01*
X99837Y351835D01*
Y350668D01*
X101003Y349502D01*
X103336D01*
X104502Y350668D01*
X97505Y356500D02*
X95172D01*
X96338D01*
Y349502D01*
X97505Y350668D01*
X186500Y356500D02*
Y349502D01*
X183001D01*
X181835Y350668D01*
Y353001D01*
X183001Y354167D01*
X186500D01*
X184167D02*
X181835Y356500D01*
X179502D02*
X177170D01*
X178336D01*
Y349502D01*
X179502Y350668D01*
X169006Y349502D02*
X173671D01*
Y353001D01*
X171338Y351835D01*
X170172D01*
X169006Y353001D01*
Y355334D01*
X170172Y356500D01*
X172505D01*
X173671Y355334D01*
X306500Y278500D02*
X299502D01*
Y281999D01*
X300669Y283165D01*
X303001D01*
X304167Y281999D01*
Y278500D01*
Y280833D02*
X306500Y283165D01*
Y285498D02*
Y287830D01*
Y286664D01*
X299502D01*
X300669Y285498D01*
X306500Y291329D02*
Y293662D01*
Y292495D01*
X299502D01*
X300669Y291329D01*
X276500Y326500D02*
Y319502D01*
X273001D01*
X271835Y320668D01*
Y323001D01*
X273001Y324167D01*
X276500D01*
X274167D02*
X271835Y326500D01*
X269502D02*
X267170D01*
X268336D01*
Y319502D01*
X269502Y320668D01*
X259006Y326500D02*
X263671D01*
X259006Y321835D01*
Y320668D01*
X260172Y319502D01*
X262505D01*
X263671Y320668D01*
X158500Y421500D02*
X165498D01*
Y418001D01*
X164331Y416835D01*
X161999D01*
X160833Y418001D01*
Y421500D01*
Y419167D02*
X158500Y416835D01*
Y414502D02*
Y412170D01*
Y413336D01*
X165498D01*
X164331Y414502D01*
Y408671D02*
X165498Y407505D01*
Y405172D01*
X164331Y404006D01*
X163165D01*
X161999Y405172D01*
Y406338D01*
Y405172D01*
X160833Y404006D01*
X159666D01*
X158500Y405172D01*
Y407505D01*
X159666Y408671D01*
X56499Y446500D02*
Y439502D01*
X53000D01*
X51834Y440668D01*
Y443001D01*
X53000Y444167D01*
X56499D01*
X54166D02*
X51834Y446500D01*
X49501D02*
X47168D01*
X48335D01*
Y439502D01*
X49501Y440668D01*
X43670Y445334D02*
X42503Y446500D01*
X40171D01*
X39004Y445334D01*
Y440668D01*
X40171Y439502D01*
X42503D01*
X43670Y440668D01*
Y441835D01*
X42503Y443001D01*
X39004D01*
X205331Y347335D02*
X206498Y348501D01*
Y350834D01*
X205331Y352000D01*
X200666D01*
X199500Y350834D01*
Y348501D01*
X200666Y347335D01*
X206498Y345002D02*
Y340337D01*
X205331D01*
X200666Y345002D01*
X199500D01*
X222166Y374835D02*
X226831D01*
X227998Y376001D01*
Y378334D01*
X226831Y379500D01*
X222166D01*
X221000Y378334D01*
Y376001D01*
X223333Y377167D02*
X221000Y374835D01*
Y376001D02*
X222166Y374835D01*
X221000Y367837D02*
Y372502D01*
X225665Y367837D01*
X226831D01*
X227998Y369003D01*
Y371336D01*
X226831Y372502D01*
X277166Y374835D02*
X281831D01*
X282998Y376001D01*
Y378334D01*
X281831Y379500D01*
X277166D01*
X276000Y378334D01*
Y376001D01*
X278333Y377167D02*
X276000Y374835D01*
Y376001D02*
X277166Y374835D01*
X276000Y372502D02*
Y370170D01*
Y371336D01*
X282998D01*
X281831Y372502D01*
X158500Y471500D02*
X165498D01*
Y468001D01*
X164331Y466835D01*
X161999D01*
X160833Y468001D01*
Y471500D01*
Y469167D02*
X158500Y466835D01*
Y464502D02*
Y462170D01*
Y463336D01*
X165498D01*
X164331Y464502D01*
X158500Y455172D02*
X165498D01*
X161999Y458671D01*
Y454006D01*
X13500Y378500D02*
Y385498D01*
X16999D01*
X18165Y384332D01*
Y381999D01*
X16999Y380833D01*
X13500D01*
X15833D02*
X18165Y378500D01*
X25163D02*
X20498D01*
X25163Y383165D01*
Y384332D01*
X23997Y385498D01*
X21664D01*
X20498Y384332D01*
X27496D02*
X28662Y385498D01*
X30994D01*
X32161Y384332D01*
Y379666D01*
X30994Y378500D01*
X28662D01*
X27496Y379666D01*
Y384332D01*
X220750Y439650D02*
Y446648D01*
X224249D01*
X225415Y445481D01*
Y443149D01*
X224249Y441983D01*
X220750D01*
X223083D02*
X225415Y439650D01*
X227748D02*
X230080D01*
X228914D01*
Y446648D01*
X227748Y445481D01*
X233579D02*
X234746Y446648D01*
X237078D01*
X238244Y445481D01*
Y440816D01*
X237078Y439650D01*
X234746D01*
X233579Y440816D01*
Y445481D01*
X280750Y439650D02*
Y446648D01*
X284249D01*
X285415Y445481D01*
Y443149D01*
X284249Y441983D01*
X280750D01*
X283083D02*
X285415Y439650D01*
X287748Y440816D02*
X288914Y439650D01*
X291247D01*
X292413Y440816D01*
Y445481D01*
X291247Y446648D01*
X288914D01*
X287748Y445481D01*
Y444315D01*
X288914Y443149D01*
X292413D01*
X56500Y356500D02*
Y349502D01*
X53001D01*
X51835Y350668D01*
Y353001D01*
X53001Y354167D01*
X56500D01*
X54167D02*
X51835Y356500D01*
X44837D02*
X49502D01*
X44837Y351835D01*
Y350668D01*
X46003Y349502D01*
X48336D01*
X49502Y350668D01*
X37839Y356500D02*
X42505D01*
X37839Y351835D01*
Y350668D01*
X39006Y349502D01*
X41338D01*
X42505Y350668D01*
X15165Y262166D02*
Y266831D01*
X13999Y267998D01*
X11666D01*
X10500Y266831D01*
Y262166D01*
X11666Y261000D01*
X13999D01*
X12833Y263333D02*
X15165Y261000D01*
X13999D02*
X15165Y262166D01*
X22163Y267998D02*
X17498D01*
Y264499D01*
X19830Y265665D01*
X20997D01*
X22163Y264499D01*
Y262166D01*
X20997Y261000D01*
X18664D01*
X17498Y262166D01*
X154500Y318502D02*
Y325500D01*
X151001D01*
X149835Y324334D01*
Y319669D01*
X151001Y318502D01*
X154500D01*
X142837D02*
X145170Y319669D01*
X147502Y322001D01*
Y324334D01*
X146336Y325500D01*
X144003D01*
X142837Y324334D01*
Y323167D01*
X144003Y322001D01*
X147502D01*
M02*
