G04*
G04 #@! TF.GenerationSoftware,Altium Limited,Altium Designer,23.9.2 (47)*
G04*
G04 Layer_Color=255*
%FSLAX44Y44*%
%MOMM*%
G71*
G04*
G04 #@! TF.SameCoordinates,C0219126-44E1-4284-9116-4A7CBBAE3C9F*
G04*
G04*
G04 #@! TF.FilePolarity,Positive*
G04*
G01*
G75*
%ADD54C,2.0000*%
G04:AMPARAMS|DCode=55|XSize=0.6mm|YSize=1.45mm|CornerRadius=0.15mm|HoleSize=0mm|Usage=FLASHONLY|Rotation=270.000|XOffset=0mm|YOffset=0mm|HoleType=Round|Shape=RoundedRectangle|*
%AMROUNDEDRECTD55*
21,1,0.6000,1.1500,0,0,270.0*
21,1,0.3000,1.4500,0,0,270.0*
1,1,0.3000,-0.5750,-0.1500*
1,1,0.3000,-0.5750,0.1500*
1,1,0.3000,0.5750,0.1500*
1,1,0.3000,0.5750,-0.1500*
%
%ADD55ROUNDEDRECTD55*%
%ADD58R,2.0000X2.8000*%
%ADD59R,1.2000X1.6000*%
%ADD63R,1.4000X1.9500*%
%ADD64R,1.9500X1.4000*%
%ADD65R,1.6000X1.2000*%
G04:AMPARAMS|DCode=66|XSize=0.65mm|YSize=1.25mm|CornerRadius=0.1625mm|HoleSize=0mm|Usage=FLASHONLY|Rotation=0.000|XOffset=0mm|YOffset=0mm|HoleType=Round|Shape=RoundedRectangle|*
%AMROUNDEDRECTD66*
21,1,0.6500,0.9250,0,0,0.0*
21,1,0.3250,1.2500,0,0,0.0*
1,1,0.3250,0.1625,-0.4625*
1,1,0.3250,-0.1625,-0.4625*
1,1,0.3250,-0.1625,0.4625*
1,1,0.3250,0.1625,0.4625*
%
%ADD66ROUNDEDRECTD66*%
G04:AMPARAMS|DCode=67|XSize=0.65mm|YSize=1.25mm|CornerRadius=0.1625mm|HoleSize=0mm|Usage=FLASHONLY|Rotation=90.000|XOffset=0mm|YOffset=0mm|HoleType=Round|Shape=RoundedRectangle|*
%AMROUNDEDRECTD67*
21,1,0.6500,0.9250,0,0,90.0*
21,1,0.3250,1.2500,0,0,90.0*
1,1,0.3250,0.4625,0.1625*
1,1,0.3250,0.4625,-0.1625*
1,1,0.3250,-0.4625,-0.1625*
1,1,0.3250,-0.4625,0.1625*
%
%ADD67ROUNDEDRECTD67*%
%ADD71C,7.0000*%
%ADD72C,1.5000*%
%ADD73C,1.5240*%
G04:AMPARAMS|DCode=74|XSize=2mm|YSize=2mm|CornerRadius=0.5mm|HoleSize=0mm|Usage=FLASHONLY|Rotation=0.000|XOffset=0mm|YOffset=0mm|HoleType=Round|Shape=RoundedRectangle|*
%AMROUNDEDRECTD74*
21,1,2.0000,1.0000,0,0,0.0*
21,1,1.0000,2.0000,0,0,0.0*
1,1,1.0000,0.5000,-0.5000*
1,1,1.0000,-0.5000,-0.5000*
1,1,1.0000,-0.5000,0.5000*
1,1,1.0000,0.5000,0.5000*
%
%ADD74ROUNDEDRECTD74*%
%ADD75C,1.2000*%
%ADD76R,1.2000X1.2000*%
G04:AMPARAMS|DCode=78|XSize=1.7mm|YSize=2.5mm|CornerRadius=0.425mm|HoleSize=0mm|Usage=FLASHONLY|Rotation=0.000|XOffset=0mm|YOffset=0mm|HoleType=Round|Shape=RoundedRectangle|*
%AMROUNDEDRECTD78*
21,1,1.7000,1.6500,0,0,0.0*
21,1,0.8500,2.5000,0,0,0.0*
1,1,0.8500,0.4250,-0.8250*
1,1,0.8500,-0.4250,-0.8250*
1,1,0.8500,-0.4250,0.8250*
1,1,0.8500,0.4250,0.8250*
%
%ADD78ROUNDEDRECTD78*%
D54*
X264750Y165150D02*
D03*
X289750D02*
D03*
X264750Y190150D02*
D03*
X239750Y165150D02*
D03*
Y190150D02*
D03*
D55*
X292250Y323100D02*
D03*
Y310400D02*
D03*
Y297700D02*
D03*
Y285000D02*
D03*
Y272300D02*
D03*
Y259600D02*
D03*
Y246900D02*
D03*
X237750Y323100D02*
D03*
Y310400D02*
D03*
Y297700D02*
D03*
Y285000D02*
D03*
Y272300D02*
D03*
Y259600D02*
D03*
Y246900D02*
D03*
D58*
X388250Y470000D02*
D03*
X421750D02*
D03*
D59*
X420500Y435000D02*
D03*
X389500D02*
D03*
D63*
X331000Y245000D02*
D03*
X359000D02*
D03*
X199000D02*
D03*
X171000D02*
D03*
X396000Y275000D02*
D03*
X424000D02*
D03*
D64*
X175000Y414000D02*
D03*
Y386000D02*
D03*
X40000Y399000D02*
D03*
Y371000D02*
D03*
X130000Y414000D02*
D03*
Y386000D02*
D03*
X165000Y214000D02*
D03*
Y186000D02*
D03*
X225000Y374000D02*
D03*
Y346000D02*
D03*
X355000Y276000D02*
D03*
Y304000D02*
D03*
X300000Y374000D02*
D03*
Y346000D02*
D03*
X360000Y214000D02*
D03*
Y186000D02*
D03*
D65*
X265000Y344500D02*
D03*
Y375500D02*
D03*
X95000Y439500D02*
D03*
Y470500D02*
D03*
X130000D02*
D03*
Y439500D02*
D03*
D66*
X174500Y440750D02*
D03*
X155500D02*
D03*
X165000Y469250D02*
D03*
D67*
X99250Y409500D02*
D03*
Y390500D02*
D03*
X70750Y400000D02*
D03*
D71*
X50000Y100000D02*
D03*
X480000D02*
D03*
Y500000D02*
D03*
X50000D02*
D03*
D72*
X460000Y335000D02*
D03*
Y385800D02*
D03*
Y360400D02*
D03*
D73*
X240000Y94100D02*
D03*
X290000D02*
D03*
D74*
X289750Y190150D02*
D03*
D75*
X245000Y420000D02*
D03*
Y445400D02*
D03*
X305000Y420000D02*
D03*
Y445400D02*
D03*
D76*
X245000Y470800D02*
D03*
X305000D02*
D03*
D78*
X330000Y110250D02*
D03*
Y149750D02*
D03*
X200000Y110250D02*
D03*
Y149750D02*
D03*
M02*
