G04*
G04 #@! TF.GenerationSoftware,Altium Limited,Altium Designer,23.9.2 (47)*
G04*
G04 Layer_Color=12632256*
%FSLAX44Y44*%
%MOMM*%
G71*
G04*
G04 #@! TF.SameCoordinates,C0219126-44E1-4284-9116-4A7CBBAE3C9F*
G04*
G04*
G04 #@! TF.FilePolarity,Positive*
G04*
G01*
G75*
%ADD54C,2.0000*%
%ADD71C,7.0000*%
%ADD72C,1.5000*%
%ADD73C,1.5240*%
G04:AMPARAMS|DCode=74|XSize=2mm|YSize=2mm|CornerRadius=0.5mm|HoleSize=0mm|Usage=FLASHONLY|Rotation=0.000|XOffset=0mm|YOffset=0mm|HoleType=Round|Shape=RoundedRectangle|*
%AMROUNDEDRECTD74*
21,1,2.0000,1.0000,0,0,0.0*
21,1,1.0000,2.0000,0,0,0.0*
1,1,1.0000,0.5000,-0.5000*
1,1,1.0000,-0.5000,-0.5000*
1,1,1.0000,-0.5000,0.5000*
1,1,1.0000,0.5000,0.5000*
%
%ADD74ROUNDEDRECTD74*%
%ADD75C,1.2000*%
%ADD76R,1.2000X1.2000*%
D54*
X264750Y165150D02*
D03*
X289750D02*
D03*
X264750Y190150D02*
D03*
X239750Y165150D02*
D03*
Y190150D02*
D03*
D71*
X50000Y100000D02*
D03*
X480000D02*
D03*
Y500000D02*
D03*
X50000D02*
D03*
D72*
X460000Y335000D02*
D03*
Y385800D02*
D03*
Y360400D02*
D03*
D73*
X240000Y94100D02*
D03*
X290000D02*
D03*
D74*
X289750Y190150D02*
D03*
D75*
X245000Y420000D02*
D03*
Y445400D02*
D03*
X305000Y420000D02*
D03*
Y445400D02*
D03*
D76*
X245000Y470800D02*
D03*
X305000D02*
D03*
M02*
