G04*
G04 #@! TF.GenerationSoftware,Altium Limited,Altium Designer,23.9.2 (47)*
G04*
G04 Layer_Physical_Order=1*
G04 Layer_Color=255*
%FSLAX44Y44*%
%MOMM*%
G71*
G04*
G04 #@! TF.SameCoordinates,C0219126-44E1-4284-9116-4A7CBBAE3C9F*
G04*
G04*
G04 #@! TF.FilePolarity,Positive*
G04*
G01*
G75*
%ADD13C,0.2000*%
%ADD28R,2.8500X0.9000*%
%ADD52C,1.5000*%
%ADD53C,0.5000*%
%ADD54C,2.0000*%
G04:AMPARAMS|DCode=55|XSize=0.6mm|YSize=1.45mm|CornerRadius=0.15mm|HoleSize=0mm|Usage=FLASHONLY|Rotation=270.000|XOffset=0mm|YOffset=0mm|HoleType=Round|Shape=RoundedRectangle|*
%AMROUNDEDRECTD55*
21,1,0.6000,1.1500,0,0,270.0*
21,1,0.3000,1.4500,0,0,270.0*
1,1,0.3000,-0.5750,-0.1500*
1,1,0.3000,-0.5750,0.1500*
1,1,0.3000,0.5750,0.1500*
1,1,0.3000,0.5750,-0.1500*
%
%ADD55ROUNDEDRECTD55*%
G04:AMPARAMS|DCode=56|XSize=1.75mm|YSize=1.25mm|CornerRadius=0.3125mm|HoleSize=0mm|Usage=FLASHONLY|Rotation=90.000|XOffset=0mm|YOffset=0mm|HoleType=Round|Shape=RoundedRectangle|*
%AMROUNDEDRECTD56*
21,1,1.7500,0.6250,0,0,90.0*
21,1,1.1250,1.2500,0,0,90.0*
1,1,0.6250,0.3125,0.5625*
1,1,0.6250,0.3125,-0.5625*
1,1,0.6250,-0.3125,-0.5625*
1,1,0.6250,-0.3125,0.5625*
%
%ADD56ROUNDEDRECTD56*%
G04:AMPARAMS|DCode=57|XSize=1.3mm|YSize=1.1mm|CornerRadius=0.275mm|HoleSize=0mm|Usage=FLASHONLY|Rotation=0.000|XOffset=0mm|YOffset=0mm|HoleType=Round|Shape=RoundedRectangle|*
%AMROUNDEDRECTD57*
21,1,1.3000,0.5500,0,0,0.0*
21,1,0.7500,1.1000,0,0,0.0*
1,1,0.5500,0.3750,-0.2750*
1,1,0.5500,-0.3750,-0.2750*
1,1,0.5500,-0.3750,0.2750*
1,1,0.5500,0.3750,0.2750*
%
%ADD57ROUNDEDRECTD57*%
%ADD58R,2.0000X2.8000*%
%ADD59R,1.2000X1.6000*%
G04:AMPARAMS|DCode=60|XSize=3.3mm|YSize=2.3mm|CornerRadius=0.575mm|HoleSize=0mm|Usage=FLASHONLY|Rotation=180.000|XOffset=0mm|YOffset=0mm|HoleType=Round|Shape=RoundedRectangle|*
%AMROUNDEDRECTD60*
21,1,3.3000,1.1500,0,0,180.0*
21,1,2.1500,2.3000,0,0,180.0*
1,1,1.1500,-1.0750,0.5750*
1,1,1.1500,1.0750,0.5750*
1,1,1.1500,1.0750,-0.5750*
1,1,1.1500,-1.0750,-0.5750*
%
%ADD60ROUNDEDRECTD60*%
G04:AMPARAMS|DCode=61|XSize=1.2mm|YSize=1.1mm|CornerRadius=0.275mm|HoleSize=0mm|Usage=FLASHONLY|Rotation=90.000|XOffset=0mm|YOffset=0mm|HoleType=Round|Shape=RoundedRectangle|*
%AMROUNDEDRECTD61*
21,1,1.2000,0.5500,0,0,90.0*
21,1,0.6500,1.1000,0,0,90.0*
1,1,0.5500,0.2750,0.3250*
1,1,0.5500,0.2750,-0.3250*
1,1,0.5500,-0.2750,-0.3250*
1,1,0.5500,-0.2750,0.3250*
%
%ADD61ROUNDEDRECTD61*%
%ADD62R,1.3500X1.1500*%
%ADD63R,1.4000X1.9500*%
%ADD64R,1.9500X1.4000*%
%ADD65R,1.6000X1.2000*%
G04:AMPARAMS|DCode=66|XSize=0.65mm|YSize=1.25mm|CornerRadius=0.1625mm|HoleSize=0mm|Usage=FLASHONLY|Rotation=0.000|XOffset=0mm|YOffset=0mm|HoleType=Round|Shape=RoundedRectangle|*
%AMROUNDEDRECTD66*
21,1,0.6500,0.9250,0,0,0.0*
21,1,0.3250,1.2500,0,0,0.0*
1,1,0.3250,0.1625,-0.4625*
1,1,0.3250,-0.1625,-0.4625*
1,1,0.3250,-0.1625,0.4625*
1,1,0.3250,0.1625,0.4625*
%
%ADD66ROUNDEDRECTD66*%
G04:AMPARAMS|DCode=67|XSize=0.65mm|YSize=1.25mm|CornerRadius=0.1625mm|HoleSize=0mm|Usage=FLASHONLY|Rotation=90.000|XOffset=0mm|YOffset=0mm|HoleType=Round|Shape=RoundedRectangle|*
%AMROUNDEDRECTD67*
21,1,0.6500,0.9250,0,0,90.0*
21,1,0.3250,1.2500,0,0,90.0*
1,1,0.3250,0.4625,0.1625*
1,1,0.3250,0.4625,-0.1625*
1,1,0.3250,-0.4625,-0.1625*
1,1,0.3250,-0.4625,0.1625*
%
%ADD67ROUNDEDRECTD67*%
G04:AMPARAMS|DCode=68|XSize=1.3mm|YSize=1.1mm|CornerRadius=0.275mm|HoleSize=0mm|Usage=FLASHONLY|Rotation=270.000|XOffset=0mm|YOffset=0mm|HoleType=Round|Shape=RoundedRectangle|*
%AMROUNDEDRECTD68*
21,1,1.3000,0.5500,0,0,270.0*
21,1,0.7500,1.1000,0,0,270.0*
1,1,0.5500,-0.2750,-0.3750*
1,1,0.5500,-0.2750,0.3750*
1,1,0.5500,0.2750,0.3750*
1,1,0.5500,0.2750,-0.3750*
%
%ADD68ROUNDEDRECTD68*%
%ADD69C,0.2540*%
%ADD70C,1.0000*%
%ADD71C,7.0000*%
%ADD72C,1.5000*%
%ADD73C,1.5240*%
G04:AMPARAMS|DCode=74|XSize=2mm|YSize=2mm|CornerRadius=0.5mm|HoleSize=0mm|Usage=FLASHONLY|Rotation=0.000|XOffset=0mm|YOffset=0mm|HoleType=Round|Shape=RoundedRectangle|*
%AMROUNDEDRECTD74*
21,1,2.0000,1.0000,0,0,0.0*
21,1,1.0000,2.0000,0,0,0.0*
1,1,1.0000,0.5000,-0.5000*
1,1,1.0000,-0.5000,-0.5000*
1,1,1.0000,-0.5000,0.5000*
1,1,1.0000,0.5000,0.5000*
%
%ADD74ROUNDEDRECTD74*%
%ADD75C,1.2000*%
%ADD76R,1.2000X1.2000*%
%ADD77C,0.7000*%
G36*
X489775Y549145D02*
X496106Y547448D01*
X502162Y544940D01*
X507838Y541663D01*
X513038Y537673D01*
X517673Y533038D01*
X521663Y527838D01*
X524940Y522162D01*
X527448Y516106D01*
X529145Y509775D01*
X530000Y503277D01*
Y500000D01*
Y100000D01*
Y96723D01*
X529145Y90225D01*
X527448Y83893D01*
X524940Y77838D01*
X521663Y72162D01*
X517673Y66962D01*
X513038Y62327D01*
X507838Y58337D01*
X502162Y55060D01*
X496106Y52552D01*
X489775Y50855D01*
X483277Y50000D01*
X46723D01*
X40224Y50855D01*
X33893Y52552D01*
X27838Y55060D01*
X22162Y58337D01*
X16962Y62327D01*
X12327Y66962D01*
X8337Y72162D01*
X5060Y77838D01*
X2552Y83893D01*
X856Y90225D01*
X0Y96723D01*
Y100000D01*
Y500000D01*
Y503277D01*
X856Y509775D01*
X2552Y516106D01*
X5060Y522162D01*
X8337Y527838D01*
X12327Y533038D01*
X16962Y537673D01*
X22162Y541663D01*
X27838Y544940D01*
X33893Y547448D01*
X40224Y549145D01*
X46723Y550000D01*
X483277D01*
X489775Y549145D01*
D02*
G37*
%LPC*%
G36*
X421094Y525500D02*
X421000D01*
Y521000D01*
X425500D01*
Y521094D01*
X424663Y523115D01*
X423115Y524663D01*
X421094Y525500D01*
D02*
G37*
G36*
X419000D02*
X418906D01*
X416884Y524663D01*
X415337Y523115D01*
X414500Y521094D01*
Y521000D01*
X419000D01*
Y525500D01*
D02*
G37*
G36*
X341094D02*
X341000D01*
Y521000D01*
X345500D01*
Y521094D01*
X344663Y523115D01*
X343115Y524663D01*
X341094Y525500D01*
D02*
G37*
G36*
X339000D02*
X338906D01*
X336884Y524663D01*
X335337Y523115D01*
X334500Y521094D01*
Y521000D01*
X339000D01*
Y525500D01*
D02*
G37*
G36*
X221094D02*
X221000D01*
Y521000D01*
X225500D01*
Y521094D01*
X224663Y523115D01*
X223116Y524663D01*
X221094Y525500D01*
D02*
G37*
G36*
X219000D02*
X218906D01*
X216884Y524663D01*
X215337Y523115D01*
X214500Y521094D01*
Y521000D01*
X219000D01*
Y525500D01*
D02*
G37*
G36*
X321580Y527000D02*
X318420D01*
X315368Y526182D01*
X312632Y524602D01*
X310398Y522368D01*
X308818Y519632D01*
X308396Y518059D01*
X300000D01*
X300000Y518059D01*
X298829Y517826D01*
X297837Y517163D01*
X297837Y517163D01*
X277837Y497163D01*
X277174Y496171D01*
X276941Y495000D01*
X276941Y495000D01*
Y466267D01*
X259133Y448459D01*
X252463D01*
X252455Y448488D01*
X251402Y450312D01*
X249912Y451802D01*
X248088Y452855D01*
X246053Y453400D01*
X243947D01*
X241912Y452855D01*
X240088Y451802D01*
X238598Y450312D01*
X237545Y448488D01*
X237000Y446453D01*
Y444347D01*
X237545Y442312D01*
X238598Y440488D01*
X240088Y438998D01*
X241912Y437945D01*
X243947Y437400D01*
X246053D01*
X248088Y437945D01*
X249912Y438998D01*
X251402Y440488D01*
X252455Y442312D01*
X252463Y442341D01*
X260400D01*
X260400Y442341D01*
X261570Y442574D01*
X262563Y443237D01*
X282163Y462837D01*
X282163Y462837D01*
X282826Y463829D01*
X283059Y465000D01*
X283059Y465000D01*
Y493733D01*
X301267Y511941D01*
X308396D01*
X308818Y510368D01*
X310398Y507632D01*
X312632Y505398D01*
X315368Y503818D01*
X318420Y503000D01*
X321580D01*
X324632Y503818D01*
X327368Y505398D01*
X329602Y507632D01*
X331182Y510368D01*
X332000Y513420D01*
Y516580D01*
X331182Y519632D01*
X329602Y522368D01*
X327368Y524602D01*
X324632Y526182D01*
X321580Y527000D01*
D02*
G37*
G36*
X425500Y519000D02*
X421000D01*
Y514500D01*
X421094D01*
X423115Y515337D01*
X424663Y516884D01*
X425500Y518906D01*
Y519000D01*
D02*
G37*
G36*
X419000D02*
X414500D01*
Y518906D01*
X415337Y516884D01*
X416884Y515337D01*
X418906Y514500D01*
X419000D01*
Y519000D01*
D02*
G37*
G36*
X345500D02*
X341000D01*
Y514500D01*
X341094D01*
X343115Y515337D01*
X344663Y516884D01*
X345500Y518906D01*
Y519000D01*
D02*
G37*
G36*
X339000D02*
X334500D01*
Y518906D01*
X335337Y516884D01*
X336884Y515337D01*
X338906Y514500D01*
X339000D01*
Y519000D01*
D02*
G37*
G36*
X225500D02*
X221000D01*
Y514500D01*
X221094D01*
X223116Y515337D01*
X224663Y516884D01*
X225500Y518906D01*
Y519000D01*
D02*
G37*
G36*
X219000D02*
X214500D01*
Y518906D01*
X215337Y516884D01*
X216884Y515337D01*
X218906Y514500D01*
X219000D01*
Y519000D01*
D02*
G37*
G36*
X386580Y527000D02*
X383420D01*
X380368Y526182D01*
X377632Y524602D01*
X375398Y522368D01*
X373818Y519632D01*
X373000Y516580D01*
Y513420D01*
X373818Y510368D01*
X374632Y508958D01*
X314133Y448459D01*
X312463D01*
X312455Y448488D01*
X311402Y450312D01*
X309912Y451802D01*
X308088Y452855D01*
X306053Y453400D01*
X303947D01*
X301912Y452855D01*
X300088Y451802D01*
X298598Y450312D01*
X297545Y448488D01*
X297000Y446453D01*
Y444347D01*
X297545Y442312D01*
X298598Y440488D01*
X300088Y438998D01*
X301912Y437945D01*
X303947Y437400D01*
X306053D01*
X308088Y437945D01*
X309912Y438998D01*
X311402Y440488D01*
X312455Y442312D01*
X312463Y442341D01*
X315400D01*
X315400Y442341D01*
X316570Y442574D01*
X317563Y443237D01*
X378958Y504632D01*
X380368Y503818D01*
X383420Y503000D01*
X386580D01*
X389632Y503818D01*
X392368Y505398D01*
X394602Y507632D01*
X396182Y510368D01*
X397000Y513420D01*
Y516580D01*
X396182Y519632D01*
X394602Y522368D01*
X392368Y524602D01*
X389632Y526182D01*
X386580Y527000D01*
D02*
G37*
G36*
X52912Y537000D02*
X51000D01*
Y500000D01*
Y463000D01*
X52912D01*
X58664Y463911D01*
X64203Y465711D01*
X69392Y468355D01*
X74104Y471778D01*
X78222Y475896D01*
X81645Y480608D01*
X84289Y485797D01*
X86089Y491336D01*
X86671Y495012D01*
X87941Y494912D01*
Y453169D01*
X82000D01*
X80634Y452897D01*
X80322Y452688D01*
X76900D01*
X75144Y452339D01*
X73656Y451344D01*
X71811Y449500D01*
X70906D01*
X68885Y448663D01*
X67337Y447116D01*
X66500Y445094D01*
Y442906D01*
X67337Y440885D01*
X67460Y440761D01*
X66974Y439588D01*
X58000D01*
Y446750D01*
X40000D01*
Y423250D01*
X44412D01*
Y401750D01*
X40000D01*
Y378250D01*
X58000D01*
Y401750D01*
X53588D01*
Y423250D01*
X58000D01*
Y430412D01*
X81596D01*
X82000Y430331D01*
X93500D01*
X94866Y430603D01*
X96023Y431377D01*
X96797Y432534D01*
X96844Y432773D01*
X97999Y433003D01*
X98991Y433666D01*
X101163Y435837D01*
X101163Y435837D01*
X101642Y436554D01*
X102912Y436274D01*
Y419500D01*
Y356750D01*
X95000D01*
Y333250D01*
X113000D01*
Y340412D01*
X115599D01*
X139907Y316104D01*
Y311250D01*
X140276Y309397D01*
X141325Y307826D01*
X142897Y306776D01*
X144750Y306407D01*
X149604D01*
X165412Y290599D01*
Y288100D01*
X153750D01*
Y275100D01*
X186250D01*
Y277012D01*
X283250D01*
Y277000D01*
X306750D01*
Y295000D01*
X283250D01*
Y286188D01*
X186250D01*
Y288100D01*
X174588D01*
Y292500D01*
X174239Y294256D01*
X173244Y295744D01*
X155093Y313896D01*
Y318750D01*
X154724Y320603D01*
X153674Y322174D01*
X152103Y323224D01*
X150250Y323593D01*
X145396D01*
X120744Y348244D01*
X119256Y349239D01*
X117500Y349588D01*
X113000D01*
Y356750D01*
X112088D01*
Y406764D01*
X113261Y407250D01*
X126456Y394056D01*
X127944Y393061D01*
X129700Y392712D01*
X134822D01*
X135134Y392503D01*
X136500Y392231D01*
X148000D01*
X149366Y392503D01*
X149678Y392712D01*
X154050D01*
X158250Y388511D01*
Y377000D01*
X165412D01*
Y367211D01*
X164142Y366959D01*
X163663Y368116D01*
X162115Y369663D01*
X160094Y370500D01*
X160000D01*
Y365000D01*
Y359500D01*
X160094D01*
X162115Y360337D01*
X163663Y361884D01*
X164142Y363041D01*
X165412Y362789D01*
Y355179D01*
X165761Y353423D01*
X166756Y351935D01*
X169685Y349006D01*
X170000Y348795D01*
Y333250D01*
X188000D01*
Y356750D01*
X174943D01*
X174911Y356756D01*
X174588Y357079D01*
Y377000D01*
X181750D01*
Y395000D01*
X164739D01*
X159194Y400544D01*
X157706Y401539D01*
X155950Y401888D01*
X149678D01*
X149366Y402097D01*
X148000Y402369D01*
X136500D01*
X135134Y402097D01*
X134822Y401888D01*
X131601D01*
X112088Y421400D01*
Y423474D01*
X113358Y424141D01*
X114906Y423500D01*
X117094D01*
X119115Y424337D01*
X120663Y425885D01*
X121500Y427906D01*
Y430013D01*
X121826Y430501D01*
X122059Y431672D01*
X122059Y431672D01*
Y440387D01*
X122196Y440441D01*
X123329Y440598D01*
X123837Y439837D01*
X130437Y433237D01*
X130437Y433237D01*
X131430Y432574D01*
X132600Y432341D01*
X133332D01*
X133977Y431377D01*
X135134Y430603D01*
X136500Y430331D01*
X148000D01*
X149366Y430603D01*
X149678Y430812D01*
X158250D01*
Y427000D01*
X165412D01*
Y423000D01*
X158250D01*
Y405000D01*
X181750D01*
Y423000D01*
X174588D01*
Y427000D01*
X181750D01*
Y440102D01*
X182923Y440588D01*
X197324Y426187D01*
X197222Y425247D01*
X196926Y425091D01*
X196028Y424699D01*
X194094Y425500D01*
X194000D01*
Y420000D01*
Y414500D01*
X194094D01*
X196115Y415337D01*
X196250Y415472D01*
X197423Y414986D01*
Y406912D01*
X191756Y401244D01*
X190761Y399756D01*
X190412Y398000D01*
Y320000D01*
X190761Y318244D01*
X191756Y316756D01*
X196434Y312078D01*
X197922Y311083D01*
X199678Y310734D01*
X200000D01*
Y306500D01*
X220000D01*
Y310412D01*
X232000D01*
Y303250D01*
X250000D01*
Y325715D01*
X251270Y326241D01*
X258506Y319006D01*
X259994Y318011D01*
X260000Y318010D01*
Y303250D01*
X278000D01*
Y310412D01*
X283250D01*
Y305000D01*
X306750D01*
Y323000D01*
X283250D01*
Y319588D01*
X279123D01*
X278597Y320858D01*
X290823Y333084D01*
X291401D01*
X291961Y332710D01*
X293375Y332429D01*
X296625D01*
X298039Y332710D01*
X299238Y333512D01*
X300040Y334711D01*
X300321Y336125D01*
Y336941D01*
X327396D01*
X327818Y335368D01*
X329398Y332632D01*
X331632Y330398D01*
X334368Y328818D01*
X337420Y328000D01*
X340580D01*
X343632Y328818D01*
X346368Y330398D01*
X348602Y332632D01*
X350182Y335368D01*
X351000Y338420D01*
Y341580D01*
X350182Y344632D01*
X348602Y347368D01*
X346368Y349602D01*
X343632Y351182D01*
X340580Y352000D01*
X337420D01*
X334368Y351182D01*
X331632Y349602D01*
X329398Y347368D01*
X327818Y344632D01*
X327396Y343059D01*
X300321D01*
Y345375D01*
X300040Y346789D01*
X299238Y347989D01*
X298039Y348790D01*
X296625Y349071D01*
X293375D01*
X291961Y348790D01*
X290762Y347989D01*
X289960Y346789D01*
X289679Y345375D01*
Y342261D01*
X288923D01*
X287167Y341912D01*
X285678Y340917D01*
X271511Y326750D01*
X264943D01*
X264500Y326838D01*
X263650D01*
X249447Y341042D01*
X247958Y342037D01*
X246202Y342386D01*
X245321D01*
Y345375D01*
X245040Y346789D01*
X244238Y347989D01*
X243039Y348790D01*
X241625Y349071D01*
X238375D01*
X236961Y348790D01*
X235762Y347989D01*
X234960Y346789D01*
X234679Y345375D01*
Y336125D01*
X234960Y334711D01*
X235762Y333512D01*
X236961Y332710D01*
X238375Y332429D01*
X241625D01*
X243039Y332710D01*
X243787Y333209D01*
X244302D01*
X249491Y328020D01*
X248965Y326750D01*
X232000D01*
Y319588D01*
X220000D01*
Y322500D01*
X200000D01*
X199588Y323599D01*
Y336401D01*
X200000Y337500D01*
X200858Y337500D01*
X209000D01*
Y345500D01*
Y353500D01*
X200858D01*
X200000Y353500D01*
X199588Y354599D01*
Y378050D01*
X200818Y378368D01*
X202398Y375632D01*
X204632Y373398D01*
X207368Y371818D01*
X210420Y371000D01*
X213580D01*
X216632Y371818D01*
X219368Y373398D01*
X221602Y375632D01*
X223182Y378368D01*
X224000Y381420D01*
Y384580D01*
X223793Y385353D01*
X225106Y386666D01*
X235556D01*
X236884Y385337D01*
X238906Y384500D01*
X239011D01*
X244912Y378600D01*
Y375965D01*
X244460Y375289D01*
X244179Y373875D01*
Y364625D01*
X244460Y363211D01*
X245261Y362011D01*
X246461Y361210D01*
X247875Y360929D01*
X251125D01*
X252539Y361210D01*
X253416Y361796D01*
X254290Y361230D01*
X254500Y361039D01*
Y361000D01*
X259000D01*
Y365500D01*
X258906D01*
X256884Y364663D01*
X255934Y363713D01*
X254764Y364338D01*
X254821Y364625D01*
Y373875D01*
X254540Y375289D01*
X254088Y375965D01*
Y380500D01*
X253739Y382256D01*
X252744Y383744D01*
X245500Y390989D01*
Y391094D01*
X244663Y393116D01*
X243116Y394663D01*
X241094Y395500D01*
X238906D01*
X236884Y394663D01*
X235556Y393334D01*
X223725D01*
X222449Y393080D01*
X221367Y392358D01*
X220490Y391480D01*
X219368Y392602D01*
X216632Y394182D01*
X213580Y395000D01*
X210420D01*
X207368Y394182D01*
X204632Y392602D01*
X202398Y390368D01*
X200818Y387632D01*
X199588Y387950D01*
Y396100D01*
X205256Y401767D01*
X206250Y403256D01*
X206600Y405012D01*
Y427988D01*
X206250Y429744D01*
X205256Y431233D01*
X197456Y439033D01*
X198236Y440049D01*
X200368Y438818D01*
X203420Y438000D01*
X206580D01*
X209632Y438818D01*
X212368Y440398D01*
X213327Y441356D01*
X213421Y441335D01*
X214022Y441000D01*
X219000D01*
Y445500D01*
X218906D01*
X217295Y444833D01*
X217104Y444925D01*
X216274Y445712D01*
X217000Y448420D01*
Y451580D01*
X216182Y454632D01*
X214602Y457368D01*
X212368Y459602D01*
X209632Y461182D01*
X206580Y462000D01*
X203420D01*
X200368Y461182D01*
X197632Y459602D01*
X195398Y457368D01*
X193818Y454632D01*
X193000Y451580D01*
Y451159D01*
X185330D01*
X185144Y451344D01*
X183656Y452339D01*
X181900Y452688D01*
X149678D01*
X149366Y452897D01*
X148000Y453169D01*
X136500D01*
X135134Y452897D01*
X133977Y452123D01*
X133203Y450966D01*
X132931Y449600D01*
Y446600D01*
X133203Y445234D01*
X133977Y444077D01*
X135134Y443303D01*
X136500Y443031D01*
X148000D01*
X149366Y443303D01*
X149678Y443512D01*
X158250D01*
Y439988D01*
X149678D01*
X149366Y440197D01*
X148000Y440469D01*
X136500D01*
X135134Y440197D01*
X133977Y439423D01*
X132999Y439327D01*
X129059Y443267D01*
Y484737D01*
X129230Y484852D01*
X130500Y484173D01*
Y479000D01*
X137500D01*
Y488000D01*
X132985D01*
X132499Y489173D01*
X141267Y497941D01*
X178000D01*
X178000Y497941D01*
X179170Y498174D01*
X180163Y498837D01*
X185958Y504632D01*
X187368Y503818D01*
X190420Y503000D01*
X193580D01*
X196632Y503818D01*
X199368Y505398D01*
X201602Y507632D01*
X203182Y510368D01*
X204000Y513420D01*
Y516580D01*
X203182Y519632D01*
X201602Y522368D01*
X199368Y524602D01*
X196632Y526182D01*
X193580Y527000D01*
X190420D01*
X187368Y526182D01*
X184632Y524602D01*
X182398Y522368D01*
X180818Y519632D01*
X180000Y516580D01*
Y513420D01*
X180818Y510368D01*
X181632Y508958D01*
X176733Y504059D01*
X154181D01*
X153654Y505329D01*
X177267Y528941D01*
X229733D01*
X238900Y519774D01*
X238818Y519632D01*
X238000Y516580D01*
Y513420D01*
X238818Y510368D01*
X240398Y507632D01*
X242632Y505398D01*
X245368Y503818D01*
X248420Y503000D01*
X251580D01*
X254632Y503818D01*
X257368Y505398D01*
X259602Y507632D01*
X261182Y510368D01*
X262000Y513420D01*
Y516580D01*
X261182Y519632D01*
X259602Y522368D01*
X257368Y524602D01*
X254632Y526182D01*
X251580Y527000D01*
X248420D01*
X245368Y526182D01*
X242690Y524636D01*
X233163Y534163D01*
X232171Y534826D01*
X231000Y535059D01*
X231000Y535059D01*
X176000D01*
X176000Y535059D01*
X174830Y534826D01*
X173837Y534163D01*
X173837Y534163D01*
X149733Y510059D01*
X140066D01*
X140000Y510059D01*
X139893Y510066D01*
X139611Y511276D01*
X139782Y511322D01*
X141632Y511818D01*
X144368Y513398D01*
X146602Y515632D01*
X148182Y518368D01*
X149000Y521420D01*
Y524580D01*
X148182Y527632D01*
X146602Y530368D01*
X144368Y532602D01*
X141632Y534182D01*
X138580Y535000D01*
X135420D01*
X132368Y534182D01*
X129632Y532602D01*
X127398Y530368D01*
X125818Y527632D01*
X125000Y524580D01*
Y521420D01*
X125818Y518368D01*
X126632Y516958D01*
X115425Y505751D01*
X103692D01*
X103692Y505751D01*
X102522Y505518D01*
X101529Y504855D01*
X95329Y498655D01*
X94059Y499181D01*
Y511967D01*
X96326Y514235D01*
X97736Y513420D01*
X100788Y512602D01*
X103948D01*
X107000Y513420D01*
X109736Y515000D01*
X111971Y517234D01*
X113550Y519971D01*
X114368Y523023D01*
Y526182D01*
X113550Y529234D01*
X111971Y531971D01*
X109736Y534205D01*
X107000Y535785D01*
X103948Y536602D01*
X100788D01*
X97736Y535785D01*
X95000Y534205D01*
X92766Y531971D01*
X91186Y529234D01*
X90368Y526182D01*
Y523023D01*
X91186Y519971D01*
X92000Y518560D01*
X88837Y515397D01*
X88174Y514405D01*
X87941Y513234D01*
X87941Y513234D01*
Y505088D01*
X86671Y504988D01*
X86089Y508664D01*
X84289Y514203D01*
X81645Y519392D01*
X78222Y524104D01*
X74104Y528222D01*
X69392Y531645D01*
X64203Y534289D01*
X58664Y536089D01*
X52912Y537000D01*
D02*
G37*
G36*
X482912D02*
X481000D01*
Y501000D01*
X517000D01*
Y502912D01*
X516089Y508664D01*
X514289Y514203D01*
X511645Y519392D01*
X508222Y524104D01*
X504104Y528222D01*
X499392Y531645D01*
X494203Y534289D01*
X488664Y536089D01*
X482912Y537000D01*
D02*
G37*
G36*
X479000D02*
X477088D01*
X471336Y536089D01*
X465797Y534289D01*
X460608Y531645D01*
X455896Y528222D01*
X451778Y524104D01*
X448355Y519392D01*
X445711Y514203D01*
X443911Y508664D01*
X443000Y502912D01*
Y501000D01*
X479000D01*
Y537000D01*
D02*
G37*
G36*
X49000D02*
X47088D01*
X41336Y536089D01*
X35797Y534289D01*
X30608Y531645D01*
X25896Y528222D01*
X21778Y524104D01*
X18355Y519392D01*
X15711Y514203D01*
X13911Y508664D01*
X13000Y502912D01*
Y501000D01*
X49000D01*
Y537000D01*
D02*
G37*
G36*
X441094Y485500D02*
X441000D01*
Y481000D01*
X445500D01*
Y481094D01*
X444663Y483115D01*
X443115Y484663D01*
X441094Y485500D01*
D02*
G37*
G36*
X439000D02*
X438906D01*
X436884Y484663D01*
X435337Y483115D01*
X434500Y481094D01*
Y481000D01*
X439000D01*
Y485500D01*
D02*
G37*
G36*
X146500Y488000D02*
X139500D01*
Y479000D01*
X146500D01*
Y488000D01*
D02*
G37*
G36*
X445500Y479000D02*
X441000D01*
Y474500D01*
X441094D01*
X443115Y475337D01*
X444663Y476884D01*
X445500Y478906D01*
Y479000D01*
D02*
G37*
G36*
X439000D02*
X434500D01*
Y478906D01*
X435337Y476884D01*
X436884Y475337D01*
X438906Y474500D01*
X439000D01*
Y479000D01*
D02*
G37*
G36*
X379250Y476093D02*
X377500D01*
Y469000D01*
X384093D01*
Y471250D01*
X383724Y473103D01*
X382674Y474674D01*
X381103Y475724D01*
X379250Y476093D01*
D02*
G37*
G36*
X375500D02*
X373750D01*
X371897Y475724D01*
X370325Y474674D01*
X369276Y473103D01*
X368907Y471250D01*
Y469000D01*
X375500D01*
Y476093D01*
D02*
G37*
G36*
X146500Y477000D02*
X139500D01*
Y468000D01*
X146500D01*
Y477000D01*
D02*
G37*
G36*
X137500D02*
X130500D01*
Y468000D01*
X137500D01*
Y477000D01*
D02*
G37*
G36*
X181750Y473000D02*
X171000D01*
Y465000D01*
X181750D01*
Y473000D01*
D02*
G37*
G36*
X169000D02*
X158250D01*
Y465000D01*
X169000D01*
Y473000D01*
D02*
G37*
G36*
X517000Y499000D02*
X481000D01*
Y463000D01*
X482912D01*
X488664Y463911D01*
X494203Y465711D01*
X499392Y468355D01*
X504104Y471778D01*
X508222Y475896D01*
X511645Y480608D01*
X514289Y485797D01*
X516089Y491336D01*
X517000Y497088D01*
Y499000D01*
D02*
G37*
G36*
X479000D02*
X443000D01*
Y497088D01*
X443911Y491336D01*
X445711Y485797D01*
X448355Y480608D01*
X451778Y475896D01*
X455896Y471778D01*
X460608Y468355D01*
X465797Y465711D01*
X471336Y463911D01*
X477088Y463000D01*
X479000D01*
Y499000D01*
D02*
G37*
G36*
X49000D02*
X13000D01*
Y497088D01*
X13911Y491336D01*
X15711Y485797D01*
X18355Y480608D01*
X21778Y475896D01*
X25896Y471778D01*
X30608Y468355D01*
X35797Y465711D01*
X41336Y463911D01*
X47088Y463000D01*
X49000D01*
Y499000D01*
D02*
G37*
G36*
X313000Y478800D02*
X297000D01*
Y462800D01*
X313000D01*
Y478800D01*
D02*
G37*
G36*
X253000D02*
X237000D01*
Y462800D01*
X253000D01*
Y478800D01*
D02*
G37*
G36*
X384093Y467000D02*
X377500D01*
Y459907D01*
X379250D01*
X381103Y460276D01*
X382674Y461325D01*
X383724Y462897D01*
X384093Y464750D01*
Y467000D01*
D02*
G37*
G36*
X375500D02*
X368907D01*
Y464750D01*
X369276Y462897D01*
X370325Y461325D01*
X371897Y460276D01*
X373750Y459907D01*
X375500D01*
Y467000D01*
D02*
G37*
G36*
X400250Y476093D02*
X394750D01*
X392897Y475724D01*
X391325Y474674D01*
X390276Y473103D01*
X389907Y471250D01*
Y464750D01*
X390276Y462897D01*
X391325Y461325D01*
X392897Y460276D01*
X394750Y459907D01*
X400250D01*
X402103Y460276D01*
X403675Y461325D01*
X404724Y462897D01*
X404827Y463412D01*
X415250D01*
Y459500D01*
X432750D01*
Y475000D01*
X415250D01*
Y472588D01*
X404827D01*
X404724Y473103D01*
X403675Y474674D01*
X402103Y475724D01*
X400250Y476093D01*
D02*
G37*
G36*
X181750Y463000D02*
X171000D01*
Y455000D01*
X181750D01*
Y463000D01*
D02*
G37*
G36*
X169000D02*
X158250D01*
Y455000D01*
X169000D01*
Y463000D01*
D02*
G37*
G36*
X341094Y445500D02*
X341000D01*
Y441000D01*
X345500D01*
Y441094D01*
X344663Y443116D01*
X343116Y444663D01*
X341094Y445500D01*
D02*
G37*
G36*
X339000D02*
X338906D01*
X336884Y444663D01*
X335337Y443116D01*
X334500Y441094D01*
Y441000D01*
X339000D01*
Y445500D01*
D02*
G37*
G36*
X501094Y445500D02*
X501000D01*
Y441000D01*
X505500D01*
Y441094D01*
X504663Y443115D01*
X503115Y444663D01*
X501094Y445500D01*
D02*
G37*
G36*
X499000D02*
X498906D01*
X496884Y444663D01*
X495337Y443115D01*
X494500Y441094D01*
Y441000D01*
X499000D01*
Y445500D01*
D02*
G37*
G36*
X221094D02*
X221000D01*
Y441000D01*
X225500D01*
Y441094D01*
X224663Y443115D01*
X223116Y444663D01*
X221094Y445500D01*
D02*
G37*
G36*
X345500Y439000D02*
X341000D01*
Y434500D01*
X341094D01*
X343116Y435337D01*
X344663Y436884D01*
X345500Y438906D01*
Y439000D01*
D02*
G37*
G36*
X339000D02*
X334500D01*
Y438906D01*
X335337Y436884D01*
X336884Y435337D01*
X338906Y434500D01*
X339000D01*
Y439000D01*
D02*
G37*
G36*
X505500Y439000D02*
X501000D01*
Y434500D01*
X501094D01*
X503115Y435337D01*
X504663Y436884D01*
X505500Y438906D01*
Y439000D01*
D02*
G37*
G36*
X499000D02*
X494500D01*
Y438906D01*
X495337Y436884D01*
X496884Y435337D01*
X498906Y434500D01*
X499000D01*
Y439000D01*
D02*
G37*
G36*
X225500D02*
X221000D01*
Y434500D01*
X221094D01*
X223116Y435337D01*
X224663Y436884D01*
X225500Y438906D01*
Y439000D01*
D02*
G37*
G36*
X219000D02*
X214500D01*
Y438906D01*
X215337Y436884D01*
X216884Y435337D01*
X218906Y434500D01*
X219000D01*
Y439000D01*
D02*
G37*
G36*
X432750Y456500D02*
X415250D01*
Y441000D01*
X419412D01*
Y411200D01*
X419408D01*
X419777Y406508D01*
X420876Y401932D01*
X422677Y397584D01*
X425136Y393571D01*
X428192Y389992D01*
X431771Y386936D01*
X435784Y384477D01*
X440132Y382676D01*
X444708Y381577D01*
X449400Y381208D01*
Y381212D01*
X451679D01*
X452398Y379967D01*
X454167Y378198D01*
X456333Y376947D01*
X458749Y376300D01*
X461251D01*
X463667Y376947D01*
X465833Y378198D01*
X467602Y379967D01*
X468853Y382133D01*
X469500Y384549D01*
Y387051D01*
X468853Y389467D01*
X467602Y391633D01*
X465833Y393402D01*
X463667Y394653D01*
X461251Y395300D01*
X458749D01*
X456333Y394653D01*
X454167Y393402D01*
X452398Y391633D01*
X451679Y390388D01*
X449400D01*
X449193Y390347D01*
X445328Y390728D01*
X441412Y391915D01*
X438953Y393230D01*
X439271Y394500D01*
X441094D01*
X443115Y395337D01*
X444663Y396884D01*
X445500Y398906D01*
Y399000D01*
X434500D01*
Y398906D01*
X434745Y398314D01*
X433644Y397654D01*
X432044Y399603D01*
X430115Y403212D01*
X428928Y407128D01*
X428547Y410993D01*
X428588Y411200D01*
Y438177D01*
X429762Y438663D01*
X430587Y437837D01*
X430587Y437837D01*
X431580Y437174D01*
X432750Y436941D01*
X432750Y436941D01*
X452396D01*
X452818Y435368D01*
X454398Y432632D01*
X456632Y430398D01*
X459368Y428818D01*
X462420Y428000D01*
X465580D01*
X468632Y428818D01*
X471368Y430398D01*
X473602Y432632D01*
X475182Y435368D01*
X476000Y438420D01*
Y441580D01*
X475182Y444632D01*
X473602Y447368D01*
X471368Y449602D01*
X468632Y451182D01*
X465580Y452000D01*
X462420D01*
X459368Y451182D01*
X456632Y449602D01*
X454398Y447368D01*
X452818Y444632D01*
X452396Y443059D01*
X434017D01*
X432750Y444326D01*
Y456500D01*
D02*
G37*
G36*
X22094Y457500D02*
X19906D01*
X17885Y456663D01*
X16337Y455116D01*
X15500Y453094D01*
Y450906D01*
X16337Y448885D01*
X16412Y448810D01*
Y446750D01*
X12000D01*
Y423250D01*
X30000D01*
Y446750D01*
X25588D01*
Y448810D01*
X25663Y448885D01*
X26500Y450906D01*
Y453094D01*
X25663Y455116D01*
X24116Y456663D01*
X22094Y457500D01*
D02*
G37*
G36*
X306053Y428000D02*
X306000D01*
Y421000D01*
X313000D01*
Y421053D01*
X312455Y423088D01*
X311402Y424912D01*
X309912Y426402D01*
X308088Y427455D01*
X306053Y428000D01*
D02*
G37*
G36*
X304000D02*
X303947D01*
X301912Y427455D01*
X300088Y426402D01*
X298598Y424912D01*
X297545Y423088D01*
X297000Y421053D01*
Y421000D01*
X304000D01*
Y428000D01*
D02*
G37*
G36*
X246053D02*
X246000D01*
Y421000D01*
X253000D01*
Y421053D01*
X252455Y423088D01*
X251402Y424912D01*
X249912Y426402D01*
X248088Y427455D01*
X246053Y428000D01*
D02*
G37*
G36*
X244000D02*
X243947D01*
X241912Y427455D01*
X240088Y426402D01*
X238598Y424912D01*
X237545Y423088D01*
X237000Y421053D01*
Y421000D01*
X244000D01*
Y428000D01*
D02*
G37*
G36*
X192000Y425500D02*
X191906D01*
X189884Y424663D01*
X188337Y423116D01*
X187500Y421094D01*
Y421000D01*
X192000D01*
Y425500D01*
D02*
G37*
G36*
X68600Y424126D02*
X68506D01*
Y419626D01*
X73006D01*
Y419720D01*
X72168Y421742D01*
X70621Y423289D01*
X68600Y424126D01*
D02*
G37*
G36*
X66506D02*
X66412D01*
X64390Y423289D01*
X62843Y421742D01*
X62006Y419720D01*
Y419626D01*
X66506D01*
Y424126D01*
D02*
G37*
G36*
X148000Y427769D02*
X136500D01*
X135134Y427497D01*
X133977Y426723D01*
X133203Y425566D01*
X132931Y424200D01*
Y421200D01*
X133203Y419834D01*
X133977Y418677D01*
X135134Y417903D01*
X136500Y417631D01*
X148000D01*
X149366Y417903D01*
X150523Y418677D01*
X151297Y419834D01*
X151569Y421200D01*
Y424200D01*
X151297Y425566D01*
X150523Y426723D01*
X149366Y427497D01*
X148000Y427769D01*
D02*
G37*
G36*
X93500D02*
X82000D01*
X80634Y427497D01*
X79477Y426723D01*
X78703Y425566D01*
X78431Y424200D01*
Y421200D01*
X78703Y419834D01*
X79477Y418677D01*
X80634Y417903D01*
X82000Y417631D01*
X93500D01*
X94866Y417903D01*
X96023Y418677D01*
X96797Y419834D01*
X97069Y421200D01*
Y424200D01*
X96797Y425566D01*
X96023Y426723D01*
X94866Y427497D01*
X93500Y427769D01*
D02*
G37*
G36*
X192000Y419000D02*
X187500D01*
Y418906D01*
X188337Y416884D01*
X189884Y415337D01*
X191906Y414500D01*
X192000D01*
Y419000D01*
D02*
G37*
G36*
X73006Y417626D02*
X68506D01*
Y413126D01*
X68600D01*
X70621Y413964D01*
X72168Y415511D01*
X73006Y417532D01*
Y417626D01*
D02*
G37*
G36*
X66506D02*
X62006D01*
Y417532D01*
X62843Y415511D01*
X64390Y413964D01*
X66412Y413126D01*
X66506D01*
Y417626D01*
D02*
G37*
G36*
X313000Y419000D02*
X306000D01*
Y412000D01*
X306053D01*
X308088Y412545D01*
X309912Y413598D01*
X311402Y415088D01*
X312455Y416912D01*
X313000Y418947D01*
Y419000D01*
D02*
G37*
G36*
X304000D02*
X297000D01*
Y418947D01*
X297545Y416912D01*
X298598Y415088D01*
X300088Y413598D01*
X301912Y412545D01*
X303947Y412000D01*
X304000D01*
Y419000D01*
D02*
G37*
G36*
X253000D02*
X246000D01*
Y412000D01*
X246053D01*
X248088Y412545D01*
X249912Y413598D01*
X251402Y415088D01*
X252455Y416912D01*
X253000Y418947D01*
Y419000D01*
D02*
G37*
G36*
X244000D02*
X237000D01*
Y418947D01*
X237545Y416912D01*
X238598Y415088D01*
X240088Y413598D01*
X241912Y412545D01*
X243947Y412000D01*
X244000D01*
Y419000D01*
D02*
G37*
G36*
X22094Y411500D02*
X22000D01*
Y407000D01*
X26500D01*
Y407094D01*
X25663Y409115D01*
X24116Y410663D01*
X22094Y411500D01*
D02*
G37*
G36*
X20000D02*
X19906D01*
X17885Y410663D01*
X16337Y409115D01*
X15500Y407094D01*
Y407000D01*
X20000D01*
Y411500D01*
D02*
G37*
G36*
X148000Y415069D02*
X136500D01*
X135134Y414797D01*
X133977Y414023D01*
X133203Y412866D01*
X132931Y411500D01*
Y408500D01*
X133203Y407134D01*
X133977Y405977D01*
X135134Y405203D01*
X136500Y404931D01*
X148000D01*
X149366Y405203D01*
X150523Y405977D01*
X151297Y407134D01*
X151569Y408500D01*
Y411500D01*
X151297Y412866D01*
X150523Y414023D01*
X149366Y414797D01*
X148000Y415069D01*
D02*
G37*
G36*
X93500D02*
X82000D01*
X80634Y414797D01*
X79477Y414023D01*
X78703Y412866D01*
X78431Y411500D01*
Y408500D01*
X78703Y407134D01*
X79477Y405977D01*
X80634Y405203D01*
X82000Y404931D01*
X93500D01*
X94866Y405203D01*
X96023Y405977D01*
X96797Y407134D01*
X97069Y408500D01*
Y411500D01*
X96797Y412866D01*
X96023Y414023D01*
X94866Y414797D01*
X93500Y415069D01*
D02*
G37*
G36*
X481094Y405500D02*
X481000D01*
Y401000D01*
X485500D01*
Y401094D01*
X484663Y403115D01*
X483115Y404663D01*
X481094Y405500D01*
D02*
G37*
G36*
X479000D02*
X478906D01*
X476884Y404663D01*
X475337Y403115D01*
X474500Y401094D01*
Y401000D01*
X479000D01*
Y405500D01*
D02*
G37*
G36*
X441094D02*
X441000D01*
Y401000D01*
X445500D01*
Y401094D01*
X444663Y403115D01*
X443115Y404663D01*
X441094Y405500D01*
D02*
G37*
G36*
X439000D02*
X438906D01*
X436884Y404663D01*
X435337Y403115D01*
X434500Y401094D01*
Y401000D01*
X439000D01*
Y405500D01*
D02*
G37*
G36*
X93500Y402369D02*
X88750D01*
Y398300D01*
X97069D01*
Y398800D01*
X96797Y400166D01*
X96023Y401323D01*
X94866Y402097D01*
X93500Y402369D01*
D02*
G37*
G36*
X86750D02*
X82000D01*
X80634Y402097D01*
X79477Y401323D01*
X78703Y400166D01*
X78431Y398800D01*
Y398300D01*
X86750D01*
Y402369D01*
D02*
G37*
G36*
X485500Y399000D02*
X481000D01*
Y394500D01*
X481094D01*
X483115Y395337D01*
X484663Y396884D01*
X485500Y398906D01*
Y399000D01*
D02*
G37*
G36*
X479000D02*
X474500D01*
Y398906D01*
X475337Y396884D01*
X476884Y395337D01*
X478906Y394500D01*
X479000D01*
Y399000D01*
D02*
G37*
G36*
X97069Y396300D02*
X88750D01*
Y392231D01*
X93500D01*
X94866Y392503D01*
X96023Y393277D01*
X96797Y394434D01*
X97069Y395800D01*
Y396300D01*
D02*
G37*
G36*
X86750D02*
X78431D01*
Y395800D01*
X78703Y394434D01*
X79477Y393277D01*
X80634Y392503D01*
X82000Y392231D01*
X86750D01*
Y396300D01*
D02*
G37*
G36*
X26500Y405000D02*
X15500D01*
Y404906D01*
X16281Y403020D01*
X15812Y401750D01*
X12000D01*
Y391000D01*
X21000D01*
X30000D01*
Y401750D01*
X26188D01*
X25719Y403020D01*
X26500Y404906D01*
Y405000D01*
D02*
G37*
G36*
X376094Y391500D02*
X376000D01*
Y387000D01*
X380500D01*
Y387094D01*
X379663Y389115D01*
X378116Y390663D01*
X376094Y391500D01*
D02*
G37*
G36*
X374000D02*
X373906D01*
X371884Y390663D01*
X370337Y389115D01*
X369500Y387094D01*
Y387000D01*
X374000D01*
Y391500D01*
D02*
G37*
G36*
X380500Y385000D02*
X376000D01*
Y380500D01*
X376094D01*
X378116Y381337D01*
X379663Y382884D01*
X380500Y384906D01*
Y385000D01*
D02*
G37*
G36*
X374000D02*
X369500D01*
Y384906D01*
X370337Y382884D01*
X371884Y381337D01*
X373906Y380500D01*
X374000D01*
Y385000D01*
D02*
G37*
G36*
X148000Y389669D02*
X136500D01*
X135134Y389397D01*
X133977Y388623D01*
X133203Y387466D01*
X132931Y386100D01*
Y383100D01*
X133203Y381734D01*
X133977Y380577D01*
X135134Y379803D01*
X136500Y379531D01*
X148000D01*
X149366Y379803D01*
X150523Y380577D01*
X151297Y381734D01*
X151569Y383100D01*
Y386100D01*
X151297Y387466D01*
X150523Y388623D01*
X149366Y389397D01*
X148000Y389669D01*
D02*
G37*
G36*
X93500D02*
X82000D01*
X80634Y389397D01*
X79477Y388623D01*
X78703Y387466D01*
X78431Y386100D01*
Y383100D01*
X78703Y381734D01*
X79477Y380577D01*
X80634Y379803D01*
X82000Y379531D01*
X93500D01*
X94866Y379803D01*
X96023Y380577D01*
X96797Y381734D01*
X97069Y383100D01*
Y386100D01*
X96797Y387466D01*
X96023Y388623D01*
X94866Y389397D01*
X93500Y389669D01*
D02*
G37*
G36*
X30000Y389000D02*
X22000D01*
Y378250D01*
X30000D01*
Y389000D01*
D02*
G37*
G36*
X20000D02*
X12000D01*
Y378250D01*
X20000D01*
Y389000D01*
D02*
G37*
G36*
X287125Y377571D02*
X286500D01*
Y370250D01*
X290821D01*
Y373875D01*
X290540Y375289D01*
X289739Y376488D01*
X288539Y377290D01*
X287125Y377571D01*
D02*
G37*
G36*
X284500D02*
X283875D01*
X282461Y377290D01*
X281262Y376488D01*
X280460Y375289D01*
X280179Y373875D01*
Y370250D01*
X284500D01*
Y377571D01*
D02*
G37*
G36*
X232125D02*
X231500D01*
Y370250D01*
X235821D01*
Y373875D01*
X235540Y375289D01*
X234739Y376488D01*
X233539Y377290D01*
X232125Y377571D01*
D02*
G37*
G36*
X229500D02*
X228875D01*
X227461Y377290D01*
X226262Y376488D01*
X225460Y375289D01*
X225179Y373875D01*
Y370250D01*
X229500D01*
Y377571D01*
D02*
G37*
G36*
X124094Y374500D02*
X124000D01*
Y370000D01*
X128500D01*
Y370094D01*
X127663Y372116D01*
X126116Y373663D01*
X124094Y374500D01*
D02*
G37*
G36*
X122000D02*
X121906D01*
X119885Y373663D01*
X118337Y372116D01*
X117500Y370094D01*
Y370000D01*
X122000D01*
Y374500D01*
D02*
G37*
G36*
X70094D02*
X70000D01*
Y370000D01*
X74500D01*
Y370094D01*
X73663Y372116D01*
X72116Y373663D01*
X70094Y374500D01*
D02*
G37*
G36*
X68000D02*
X67906D01*
X65884Y373663D01*
X64337Y372116D01*
X63500Y370094D01*
Y370000D01*
X68000D01*
Y374500D01*
D02*
G37*
G36*
X23094D02*
X23000D01*
Y370000D01*
X27500D01*
Y370094D01*
X26663Y372116D01*
X25115Y373663D01*
X23094Y374500D01*
D02*
G37*
G36*
X21000D02*
X20906D01*
X18885Y373663D01*
X17337Y372116D01*
X16500Y370094D01*
Y370000D01*
X21000D01*
Y374500D01*
D02*
G37*
G36*
X296094Y395500D02*
X293906D01*
X291884Y394663D01*
X290337Y393116D01*
X289500Y391094D01*
Y388906D01*
X290337Y386884D01*
X291884Y385337D01*
X293906Y384500D01*
X294011D01*
X299912Y378600D01*
Y375965D01*
X299460Y375289D01*
X299179Y373875D01*
Y364625D01*
X299460Y363211D01*
X300261Y362011D01*
X301461Y361210D01*
X302875Y360929D01*
X306125D01*
X307539Y361210D01*
X308738Y362011D01*
X309540Y363211D01*
X309821Y364625D01*
Y365916D01*
X319250D01*
X320526Y366170D01*
X321608Y366893D01*
X324205Y369490D01*
X325368Y368818D01*
X328420Y368000D01*
X331580D01*
X334632Y368818D01*
X337368Y370398D01*
X339602Y372632D01*
X341182Y375368D01*
X342000Y378420D01*
Y381580D01*
X341182Y384632D01*
X339602Y387368D01*
X337368Y389602D01*
X334632Y391182D01*
X331580Y392000D01*
X328420D01*
X325368Y391182D01*
X322632Y389602D01*
X320398Y387368D01*
X318818Y384632D01*
X318000Y381580D01*
Y378420D01*
X318818Y375368D01*
X319490Y374205D01*
X317869Y372584D01*
X309821D01*
Y373875D01*
X309540Y375289D01*
X309088Y375965D01*
Y380500D01*
X308739Y382256D01*
X307744Y383744D01*
X300500Y390989D01*
Y391094D01*
X299663Y393116D01*
X298116Y394663D01*
X296094Y395500D01*
D02*
G37*
G36*
X183094Y371500D02*
X183000D01*
Y367000D01*
X187500D01*
Y367094D01*
X186663Y369115D01*
X185116Y370663D01*
X183094Y371500D01*
D02*
G37*
G36*
X181000D02*
X180906D01*
X178885Y370663D01*
X177337Y369115D01*
X176500Y367094D01*
Y367000D01*
X181000D01*
Y371500D01*
D02*
G37*
G36*
X158000Y370500D02*
X157906D01*
X155885Y369663D01*
X154337Y368116D01*
X153500Y366094D01*
Y366000D01*
X158000D01*
Y370500D01*
D02*
G37*
G36*
X93500Y376969D02*
X82000D01*
X80634Y376697D01*
X79477Y375923D01*
X78703Y374766D01*
X78431Y373400D01*
Y370737D01*
X78322Y370187D01*
Y368961D01*
X74890Y365528D01*
X73813Y366248D01*
X74500Y367906D01*
Y368000D01*
X70000D01*
Y363500D01*
X70094D01*
X71827Y364218D01*
X72161Y363922D01*
X72602Y363165D01*
X71761Y361906D01*
X71412Y360150D01*
Y356750D01*
X67000D01*
Y349588D01*
X58000D01*
Y356750D01*
X40000D01*
Y333250D01*
X48554D01*
X48752Y332251D01*
X49415Y331259D01*
X64632Y316042D01*
X63818Y314632D01*
X63000Y311580D01*
Y308420D01*
X63818Y305368D01*
X65398Y302632D01*
X67632Y300398D01*
X70368Y298818D01*
X73420Y298000D01*
X76580D01*
X79632Y298818D01*
X82368Y300398D01*
X84602Y302632D01*
X86182Y305368D01*
X87000Y308420D01*
Y311580D01*
X86182Y314632D01*
X84602Y317368D01*
X82368Y319602D01*
X79632Y321182D01*
X76580Y322000D01*
X73420D01*
X70368Y321182D01*
X68958Y320368D01*
X57249Y332077D01*
X57735Y333250D01*
X58000D01*
Y340412D01*
X67000D01*
Y333250D01*
X85000D01*
Y356750D01*
X80588D01*
Y358250D01*
X86155Y363816D01*
X87149Y365304D01*
X87453Y366831D01*
X93500D01*
X94866Y367103D01*
X96023Y367877D01*
X96797Y369034D01*
X97069Y370400D01*
Y373400D01*
X96797Y374766D01*
X96023Y375923D01*
X94866Y376697D01*
X93500Y376969D01*
D02*
G37*
G36*
X229500Y368250D02*
X225179D01*
Y364625D01*
X225236Y364338D01*
X224066Y363713D01*
X223116Y364663D01*
X221094Y365500D01*
X221000D01*
Y361000D01*
X225500D01*
Y361039D01*
X225709Y361230D01*
X226584Y361796D01*
X227461Y361210D01*
X228875Y360929D01*
X229500D01*
Y368250D01*
D02*
G37*
G36*
X68000Y368000D02*
X63500D01*
Y367906D01*
X64337Y365885D01*
X65884Y364337D01*
X67906Y363500D01*
X68000D01*
Y368000D01*
D02*
G37*
G36*
X27500D02*
X23000D01*
Y363500D01*
X23094D01*
X25115Y364337D01*
X26663Y365885D01*
X27500Y367906D01*
Y368000D01*
D02*
G37*
G36*
X21000D02*
X16500D01*
Y367906D01*
X17337Y365885D01*
X18885Y364337D01*
X20906Y363500D01*
X21000D01*
Y368000D01*
D02*
G37*
G36*
X461251Y369900D02*
X461000D01*
Y361400D01*
X469500D01*
Y361651D01*
X468853Y364067D01*
X467602Y366233D01*
X465833Y368002D01*
X463667Y369253D01*
X461251Y369900D01*
D02*
G37*
G36*
X459000D02*
X458749D01*
X456333Y369253D01*
X454167Y368002D01*
X452398Y366233D01*
X451147Y364067D01*
X450500Y361651D01*
Y361400D01*
X459000D01*
Y369900D01*
D02*
G37*
G36*
X338094Y365500D02*
X338000D01*
Y361000D01*
X342500D01*
Y361094D01*
X341663Y363116D01*
X340116Y364663D01*
X338094Y365500D01*
D02*
G37*
G36*
X336000D02*
X335906D01*
X333885Y364663D01*
X332337Y363116D01*
X331500Y361094D01*
Y361000D01*
X336000D01*
Y365500D01*
D02*
G37*
G36*
X501094Y365500D02*
X501000D01*
Y361000D01*
X505500D01*
Y361094D01*
X504663Y363116D01*
X503115Y364663D01*
X501094Y365500D01*
D02*
G37*
G36*
X499000D02*
X498906D01*
X496884Y364663D01*
X495337Y363116D01*
X494500Y361094D01*
Y361000D01*
X499000D01*
Y365500D01*
D02*
G37*
G36*
X421094D02*
X421000D01*
Y361000D01*
X425500D01*
Y361094D01*
X424663Y363116D01*
X423115Y364663D01*
X421094Y365500D01*
D02*
G37*
G36*
X419000D02*
X418906D01*
X416884Y364663D01*
X415337Y363116D01*
X414500Y361094D01*
Y361000D01*
X419000D01*
Y365500D01*
D02*
G37*
G36*
X381094D02*
X381000D01*
Y361000D01*
X385500D01*
Y361094D01*
X384663Y363116D01*
X383115Y364663D01*
X381094Y365500D01*
D02*
G37*
G36*
X379000D02*
X378906D01*
X376884Y364663D01*
X375337Y363116D01*
X374500Y361094D01*
Y361000D01*
X379000D01*
Y365500D01*
D02*
G37*
G36*
X261094D02*
X261000D01*
Y361000D01*
X265500D01*
Y361094D01*
X264663Y363116D01*
X263116Y364663D01*
X261094Y365500D01*
D02*
G37*
G36*
X219000D02*
X218906D01*
X216884Y364663D01*
X215337Y363116D01*
X214500Y361094D01*
Y361000D01*
X219000D01*
Y365500D01*
D02*
G37*
G36*
X290821Y368250D02*
X286500D01*
Y360929D01*
X287125D01*
X288539Y361210D01*
X289739Y362011D01*
X290540Y363211D01*
X290821Y364625D01*
Y368250D01*
D02*
G37*
G36*
X284500D02*
X280179D01*
Y364625D01*
X280460Y363211D01*
X281262Y362011D01*
X282461Y361210D01*
X283875Y360929D01*
X284500D01*
Y368250D01*
D02*
G37*
G36*
X235821D02*
X231500D01*
Y360929D01*
X232125D01*
X233539Y361210D01*
X234739Y362011D01*
X235540Y363211D01*
X235821Y364625D01*
Y368250D01*
D02*
G37*
G36*
X187500Y365000D02*
X183000D01*
Y360500D01*
X183094D01*
X185116Y361337D01*
X186663Y362884D01*
X187500Y364906D01*
Y365000D01*
D02*
G37*
G36*
X181000D02*
X176500D01*
Y364906D01*
X177337Y362884D01*
X178885Y361337D01*
X180906Y360500D01*
X181000D01*
Y365000D01*
D02*
G37*
G36*
X128500Y368000D02*
X117500D01*
Y367906D01*
X118337Y365885D01*
X119392Y364830D01*
X119742Y364000D01*
X119392Y363170D01*
X118337Y362116D01*
X117500Y360094D01*
Y360000D01*
X128500D01*
Y360094D01*
X127663Y362116D01*
X126608Y363170D01*
X126258Y364000D01*
X126608Y364830D01*
X127663Y365885D01*
X128500Y367906D01*
Y368000D01*
D02*
G37*
G36*
X158000Y364000D02*
X153500D01*
Y363906D01*
X154337Y361884D01*
X155885Y360337D01*
X157906Y359500D01*
X158000D01*
Y364000D01*
D02*
G37*
G36*
X342500Y359000D02*
X338000D01*
Y354500D01*
X338094D01*
X340116Y355337D01*
X341663Y356884D01*
X342500Y358906D01*
Y359000D01*
D02*
G37*
G36*
X336000D02*
X331500D01*
Y358906D01*
X332337Y356884D01*
X333885Y355337D01*
X335906Y354500D01*
X336000D01*
Y359000D01*
D02*
G37*
G36*
X505500Y359000D02*
X501000D01*
Y354500D01*
X501094D01*
X503115Y355337D01*
X504663Y356884D01*
X505500Y358906D01*
Y359000D01*
D02*
G37*
G36*
X499000D02*
X494500D01*
Y358906D01*
X495337Y356884D01*
X496884Y355337D01*
X498906Y354500D01*
X499000D01*
Y359000D01*
D02*
G37*
G36*
X425500D02*
X421000D01*
Y354500D01*
X421094D01*
X423115Y355337D01*
X424663Y356884D01*
X425500Y358906D01*
Y359000D01*
D02*
G37*
G36*
X419000D02*
X414500D01*
Y358906D01*
X415337Y356884D01*
X416884Y355337D01*
X418906Y354500D01*
X419000D01*
Y359000D01*
D02*
G37*
G36*
X385500D02*
X381000D01*
Y354500D01*
X381094D01*
X383115Y355337D01*
X384663Y356884D01*
X385500Y358906D01*
Y359000D01*
D02*
G37*
G36*
X379000D02*
X374500D01*
Y358906D01*
X375337Y356884D01*
X376884Y355337D01*
X378906Y354500D01*
X379000D01*
Y359000D01*
D02*
G37*
G36*
X265500D02*
X261000D01*
Y354500D01*
X261094D01*
X263116Y355337D01*
X264663Y356884D01*
X265500Y358906D01*
Y359000D01*
D02*
G37*
G36*
X259000D02*
X254500D01*
Y358906D01*
X255337Y356884D01*
X256884Y355337D01*
X258906Y354500D01*
X259000D01*
Y359000D01*
D02*
G37*
G36*
X128500Y358000D02*
X124000D01*
Y353500D01*
X124094D01*
X126116Y354337D01*
X127663Y355885D01*
X128500Y357906D01*
Y358000D01*
D02*
G37*
G36*
X122000D02*
X117500D01*
Y357906D01*
X118337Y355885D01*
X119885Y354337D01*
X121906Y353500D01*
X122000D01*
Y358000D01*
D02*
G37*
G36*
X225500Y359000D02*
X214500D01*
Y358906D01*
X215337Y356884D01*
X216884Y355337D01*
X218254Y354770D01*
X218001Y353500D01*
X211000D01*
Y346500D01*
X220000D01*
Y353230D01*
X220000Y353500D01*
X220652Y354500D01*
X221094D01*
X223116Y355337D01*
X224663Y356884D01*
X225500Y358906D01*
Y359000D01*
D02*
G37*
G36*
X469500Y359400D02*
X461000D01*
Y350900D01*
X461251D01*
X463667Y351547D01*
X465833Y352798D01*
X467602Y354567D01*
X468853Y356733D01*
X469500Y359149D01*
Y359400D01*
D02*
G37*
G36*
X459000D02*
X450500D01*
Y359149D01*
X451147Y356733D01*
X452398Y354567D01*
X454167Y352798D01*
X456333Y351547D01*
X458749Y350900D01*
X459000D01*
Y359400D01*
D02*
G37*
G36*
X132094Y354500D02*
X132000D01*
Y350000D01*
X136500D01*
Y350094D01*
X135663Y352116D01*
X134115Y353663D01*
X132094Y354500D01*
D02*
G37*
G36*
X130000D02*
X129906D01*
X127885Y353663D01*
X126337Y352116D01*
X125500Y350094D01*
Y350000D01*
X130000D01*
Y354500D01*
D02*
G37*
G36*
X136500Y348000D02*
X132000D01*
Y343500D01*
X132094D01*
X134115Y344337D01*
X135663Y345885D01*
X136500Y347906D01*
Y348000D01*
D02*
G37*
G36*
X130000D02*
X125500D01*
Y347906D01*
X126337Y345885D01*
X127885Y344337D01*
X129906Y343500D01*
X130000D01*
Y348000D01*
D02*
G37*
G36*
X220000Y344500D02*
X211000D01*
Y337500D01*
X220000D01*
Y344500D01*
D02*
G37*
G36*
X460000Y344597D02*
X458772Y344500D01*
X458749D01*
X458740Y344497D01*
X455096Y344211D01*
X450313Y343062D01*
X445769Y341180D01*
X441575Y338610D01*
X437835Y335415D01*
X434640Y331675D01*
X432070Y327481D01*
X430188Y322937D01*
X429039Y318154D01*
X428653Y313250D01*
X428668D01*
Y291000D01*
X426250D01*
Y259000D01*
X428668D01*
Y252082D01*
X405000D01*
X402520Y251756D01*
X400209Y250798D01*
X398225Y249275D01*
X396702Y247291D01*
X395745Y244980D01*
X395418Y242500D01*
X395745Y240020D01*
X396702Y237709D01*
X398225Y235725D01*
X400209Y234202D01*
X402520Y233244D01*
X405000Y232918D01*
X436441D01*
Y213412D01*
X435398Y212368D01*
X433818Y209632D01*
X433000Y206580D01*
Y203420D01*
X433818Y200368D01*
X435398Y197632D01*
X437632Y195398D01*
X440368Y193818D01*
X443420Y193000D01*
X446580D01*
X449632Y193818D01*
X452368Y195398D01*
X454602Y197632D01*
X456182Y200368D01*
X457000Y203420D01*
Y206580D01*
X456182Y209632D01*
X454602Y212368D01*
X452368Y214602D01*
X449632Y216182D01*
X446580Y217000D01*
X443420D01*
X442559Y217661D01*
Y234314D01*
X443052Y234518D01*
X443680Y235000D01*
X447500D01*
Y238992D01*
X448691Y241867D01*
X449104Y245000D01*
X449082Y245000D01*
X448755Y247480D01*
X447832Y249709D01*
Y259000D01*
X450250D01*
Y291000D01*
X447832D01*
Y313250D01*
X447802Y313476D01*
X448189Y316415D01*
X449411Y319364D01*
X451354Y321896D01*
X453886Y323839D01*
X456835Y325061D01*
X459941Y325470D01*
X460000Y325418D01*
Y325418D01*
X460623Y325500D01*
X461251D01*
X461857Y325663D01*
X462480Y325745D01*
X463060Y325985D01*
X463667Y326147D01*
X464211Y326461D01*
X464791Y326702D01*
X465289Y327084D01*
X465833Y327398D01*
X466277Y327842D01*
X466775Y328224D01*
X467158Y328723D01*
X467602Y329167D01*
X467916Y329711D01*
X468298Y330209D01*
X468539Y330789D01*
X468853Y331333D01*
X469015Y331940D01*
X469255Y332520D01*
X469337Y333143D01*
X469500Y333749D01*
Y334377D01*
X469582Y335000D01*
X469500Y335623D01*
Y336251D01*
X469337Y336857D01*
X469255Y337480D01*
X469015Y338060D01*
X468853Y338667D01*
X468539Y339211D01*
X468298Y339791D01*
X467916Y340289D01*
X467602Y340833D01*
X467158Y341277D01*
X466775Y341775D01*
X466277Y342158D01*
X465833Y342602D01*
X465289Y342916D01*
X464791Y343298D01*
X464211Y343539D01*
X463667Y343853D01*
X463060Y344015D01*
X462480Y344255D01*
X461857Y344337D01*
X461251Y344500D01*
X460623D01*
X460000Y344582D01*
Y344597D01*
D02*
G37*
G36*
X481094Y325500D02*
X481000D01*
Y321000D01*
X485500D01*
Y321094D01*
X484663Y323116D01*
X483115Y324663D01*
X481094Y325500D01*
D02*
G37*
G36*
X479000D02*
X478906D01*
X476884Y324663D01*
X475337Y323116D01*
X474500Y321094D01*
Y321000D01*
X479000D01*
Y325500D01*
D02*
G37*
G36*
X401094D02*
X401000D01*
Y321000D01*
X405500D01*
Y321094D01*
X404663Y323116D01*
X403115Y324663D01*
X401094Y325500D01*
D02*
G37*
G36*
X399000D02*
X398906D01*
X396884Y324663D01*
X395337Y323116D01*
X394500Y321094D01*
Y321000D01*
X399000D01*
Y325500D01*
D02*
G37*
G36*
X41094Y319500D02*
X41000D01*
Y315000D01*
X45500D01*
Y315094D01*
X44663Y317115D01*
X43116Y318663D01*
X41094Y319500D01*
D02*
G37*
G36*
X39000D02*
X38906D01*
X36885Y318663D01*
X35337Y317115D01*
X34500Y315094D01*
Y315000D01*
X39000D01*
Y319500D01*
D02*
G37*
G36*
X485500Y319000D02*
X481000D01*
Y314500D01*
X481094D01*
X483115Y315337D01*
X484663Y316884D01*
X485500Y318906D01*
Y319000D01*
D02*
G37*
G36*
X479000D02*
X474500D01*
Y318906D01*
X475337Y316884D01*
X476884Y315337D01*
X478906Y314500D01*
X479000D01*
Y319000D01*
D02*
G37*
G36*
X405500D02*
X401000D01*
Y314500D01*
X401094D01*
X403115Y315337D01*
X404663Y316884D01*
X405500Y318906D01*
Y319000D01*
D02*
G37*
G36*
X399000D02*
X394500D01*
Y318906D01*
X395337Y316884D01*
X396884Y315337D01*
X398906Y314500D01*
X399000D01*
Y319000D01*
D02*
G37*
G36*
X45500Y313000D02*
X41000D01*
Y308500D01*
X41094D01*
X43116Y309337D01*
X44663Y310884D01*
X45500Y312906D01*
Y313000D01*
D02*
G37*
G36*
X39000D02*
X34500D01*
Y312906D01*
X35337Y310884D01*
X36885Y309337D01*
X38906Y308500D01*
X39000D01*
Y313000D01*
D02*
G37*
G36*
X53094Y312500D02*
X53000D01*
Y308000D01*
X57500D01*
Y308094D01*
X56663Y310116D01*
X55115Y311663D01*
X53094Y312500D01*
D02*
G37*
G36*
X51000D02*
X50906D01*
X48885Y311663D01*
X47337Y310116D01*
X46500Y308094D01*
Y308000D01*
X51000D01*
Y312500D01*
D02*
G37*
G36*
X57500Y306000D02*
X53000D01*
Y301500D01*
X53094D01*
X55115Y302337D01*
X56663Y303885D01*
X57500Y305906D01*
Y306000D01*
D02*
G37*
G36*
X51000D02*
X46500D01*
Y305906D01*
X47337Y303885D01*
X48885Y302337D01*
X50906Y301500D01*
X51000D01*
Y306000D01*
D02*
G37*
G36*
X220094Y302500D02*
X220000D01*
Y298000D01*
X224500D01*
Y298094D01*
X223663Y300116D01*
X222115Y301663D01*
X220094Y302500D01*
D02*
G37*
G36*
X218000D02*
X217906D01*
X215884Y301663D01*
X214337Y300116D01*
X213500Y298094D01*
Y298000D01*
X218000D01*
Y302500D01*
D02*
G37*
G36*
X148000Y376969D02*
X136500D01*
X135134Y376697D01*
X133977Y375923D01*
X133203Y374766D01*
X132931Y373400D01*
Y370400D01*
X133203Y369034D01*
X133977Y367877D01*
X135134Y367103D01*
X135412Y367048D01*
Y363190D01*
X135337Y363116D01*
X134500Y361094D01*
Y358906D01*
X135337Y356884D01*
X135412Y356810D01*
Y356000D01*
X135761Y354244D01*
X136756Y352756D01*
X139276Y350236D01*
X140764Y349241D01*
X142000Y348995D01*
Y333250D01*
X148554D01*
X148752Y332251D01*
X149416Y331259D01*
X169654Y311020D01*
X169000Y308580D01*
Y305420D01*
X169818Y302368D01*
X171398Y299632D01*
X173632Y297398D01*
X176368Y295818D01*
X179420Y295000D01*
X182580D01*
X185632Y295818D01*
X188368Y297398D01*
X190602Y299632D01*
X192182Y302368D01*
X193000Y305420D01*
Y308580D01*
X192182Y311632D01*
X190602Y314368D01*
X188368Y316602D01*
X185632Y318182D01*
X182580Y319000D01*
X179420D01*
X176368Y318182D01*
X173632Y316602D01*
X173178Y316148D01*
X157249Y332077D01*
X157735Y333250D01*
X160000D01*
Y356750D01*
X148476D01*
X147026Y357719D01*
X146432Y357837D01*
X145500Y358906D01*
Y361094D01*
X144663Y363116D01*
X144588Y363190D01*
Y366831D01*
X148000D01*
X149366Y367103D01*
X150523Y367877D01*
X151297Y369034D01*
X151569Y370400D01*
Y373400D01*
X151297Y374766D01*
X150523Y375923D01*
X149366Y376697D01*
X148000Y376969D01*
D02*
G37*
G36*
X268094Y298500D02*
X268000D01*
Y294000D01*
X272500D01*
Y294094D01*
X271663Y296115D01*
X270116Y297663D01*
X268094Y298500D01*
D02*
G37*
G36*
X266000D02*
X265906D01*
X263885Y297663D01*
X262337Y296115D01*
X261500Y294094D01*
Y294000D01*
X266000D01*
Y298500D01*
D02*
G37*
G36*
X224500Y296000D02*
X220000D01*
Y291500D01*
X220094D01*
X222115Y292337D01*
X223663Y293885D01*
X224500Y295906D01*
Y296000D01*
D02*
G37*
G36*
X218000D02*
X213500D01*
Y295906D01*
X214337Y293885D01*
X215884Y292337D01*
X217906Y291500D01*
X218000D01*
Y296000D01*
D02*
G37*
G36*
X272500Y292000D02*
X268000D01*
Y287500D01*
X268094D01*
X270116Y288337D01*
X271663Y289884D01*
X272500Y291906D01*
Y292000D01*
D02*
G37*
G36*
X266000D02*
X261500D01*
Y291906D01*
X262337Y289884D01*
X263885Y288337D01*
X265906Y287500D01*
X266000D01*
Y292000D01*
D02*
G37*
G36*
X30000Y356750D02*
X12000D01*
Y333250D01*
X16412D01*
Y315132D01*
X16162Y313875D01*
Y294821D01*
X16125D01*
X14711Y294540D01*
X13512Y293738D01*
X12710Y292539D01*
X12429Y291125D01*
Y287875D01*
X12710Y286461D01*
X13512Y285261D01*
X14711Y284460D01*
X16125Y284179D01*
X25375D01*
X26789Y284460D01*
X27989Y285261D01*
X28790Y286461D01*
X29071Y287875D01*
Y291125D01*
X28790Y292539D01*
X27989Y293738D01*
X26789Y294540D01*
X25375Y294821D01*
X25338D01*
Y312868D01*
X25588Y314125D01*
Y333250D01*
X30000D01*
Y356750D01*
D02*
G37*
G36*
X501094Y285500D02*
X501000D01*
Y281000D01*
X505500D01*
Y281094D01*
X504663Y283116D01*
X503115Y284663D01*
X501094Y285500D01*
D02*
G37*
G36*
X499000D02*
X498906D01*
X496884Y284663D01*
X495337Y283116D01*
X494500Y281094D01*
Y281000D01*
X499000D01*
Y285500D01*
D02*
G37*
G36*
X141094D02*
X141000D01*
Y281000D01*
X145500D01*
Y281094D01*
X144663Y283116D01*
X143116Y284663D01*
X141094Y285500D01*
D02*
G37*
G36*
X139000D02*
X138906D01*
X136884Y284663D01*
X135337Y283116D01*
X134500Y281094D01*
Y281000D01*
X139000D01*
Y285500D01*
D02*
G37*
G36*
X483750Y291000D02*
X472750D01*
Y276000D01*
X483750D01*
Y291000D01*
D02*
G37*
G36*
X470750D02*
X459750D01*
Y276000D01*
X470750D01*
Y291000D01*
D02*
G37*
G36*
X115250Y323593D02*
X109750D01*
X107897Y323224D01*
X106325Y322174D01*
X105276Y320603D01*
X104907Y318750D01*
Y311250D01*
X105276Y309397D01*
X106325Y307826D01*
X107897Y306776D01*
X107912Y306773D01*
Y289400D01*
X106944Y288433D01*
X105750Y288100D01*
Y288100D01*
X105750Y288100D01*
X73250D01*
Y285338D01*
X50000D01*
X49914Y285321D01*
X44625D01*
X43211Y285040D01*
X42011Y284238D01*
X41210Y283039D01*
X40929Y281625D01*
Y278375D01*
X41210Y276961D01*
X42011Y275762D01*
X43211Y274960D01*
X44625Y274679D01*
X46941D01*
Y256604D01*
X45368Y256182D01*
X42632Y254602D01*
X40398Y252368D01*
X38818Y249632D01*
X38000Y246580D01*
Y243420D01*
X38818Y240368D01*
X40398Y237632D01*
X42632Y235398D01*
X45368Y233818D01*
X48420Y233000D01*
X51580D01*
X54632Y233818D01*
X57368Y235398D01*
X59602Y237632D01*
X61182Y240368D01*
X62000Y243420D01*
Y246580D01*
X61182Y249632D01*
X59602Y252368D01*
X57368Y254602D01*
X54632Y256182D01*
X53059Y256604D01*
Y274679D01*
X53875D01*
X55289Y274960D01*
X56488Y275762D01*
X56756Y276162D01*
X73250D01*
Y275100D01*
X105750D01*
Y277012D01*
X106600D01*
X108356Y277361D01*
X109844Y278356D01*
X115744Y284256D01*
X116739Y285744D01*
X117088Y287500D01*
Y306773D01*
X117103Y306776D01*
X118674Y307826D01*
X119724Y309397D01*
X120093Y311250D01*
Y318750D01*
X119724Y320603D01*
X118674Y322174D01*
X117103Y323224D01*
X115250Y323593D01*
D02*
G37*
G36*
X505500Y279000D02*
X501000D01*
Y274500D01*
X501094D01*
X503115Y275337D01*
X504663Y276884D01*
X505500Y278906D01*
Y279000D01*
D02*
G37*
G36*
X499000D02*
X494500D01*
Y278906D01*
X495337Y276884D01*
X496884Y275337D01*
X498906Y274500D01*
X499000D01*
Y279000D01*
D02*
G37*
G36*
X145500D02*
X141000D01*
Y274500D01*
X141094D01*
X143116Y275337D01*
X144663Y276884D01*
X145500Y278906D01*
Y279000D01*
D02*
G37*
G36*
X139000D02*
X134500D01*
Y278906D01*
X135337Y276884D01*
X136884Y275337D01*
X138906Y274500D01*
X139000D01*
Y279000D01*
D02*
G37*
G36*
X25375Y275821D02*
X21750D01*
Y271500D01*
X29071D01*
Y272125D01*
X28790Y273539D01*
X27989Y274739D01*
X26789Y275540D01*
X25375Y275821D01*
D02*
G37*
G36*
X19750D02*
X16125D01*
X14711Y275540D01*
X13512Y274739D01*
X12710Y273539D01*
X12429Y272125D01*
Y271500D01*
X19750D01*
Y275821D01*
D02*
G37*
G36*
X29071Y269500D02*
X21750D01*
Y265179D01*
X25375D01*
X26789Y265460D01*
X27989Y266262D01*
X28790Y267461D01*
X29071Y268875D01*
Y269500D01*
D02*
G37*
G36*
X19750D02*
X12429D01*
Y268875D01*
X12710Y267461D01*
X13512Y266262D01*
X14711Y265460D01*
X16125Y265179D01*
X19750D01*
Y269500D01*
D02*
G37*
G36*
X262094Y269500D02*
X262000D01*
Y265000D01*
X266500D01*
Y265094D01*
X265663Y267115D01*
X264116Y268663D01*
X262094Y269500D01*
D02*
G37*
G36*
X260000D02*
X259906D01*
X257885Y268663D01*
X256337Y267115D01*
X255500Y265094D01*
Y265000D01*
X260000D01*
Y269500D01*
D02*
G37*
G36*
X483750Y274000D02*
X472750D01*
Y259000D01*
X483750D01*
Y274000D01*
D02*
G37*
G36*
X470750D02*
X459750D01*
Y259000D01*
X470750D01*
Y274000D01*
D02*
G37*
G36*
X266500Y263000D02*
X262000D01*
Y258500D01*
X262094D01*
X264116Y259337D01*
X265663Y260884D01*
X266500Y262906D01*
Y263000D01*
D02*
G37*
G36*
X260000D02*
X255500D01*
Y262906D01*
X256337Y260884D01*
X257885Y259337D01*
X259906Y258500D01*
X260000D01*
Y263000D01*
D02*
G37*
G36*
X21094Y261500D02*
X21000D01*
Y257000D01*
X25500D01*
Y257094D01*
X24663Y259116D01*
X23115Y260663D01*
X21094Y261500D01*
D02*
G37*
G36*
X19000D02*
X18906D01*
X16884Y260663D01*
X15337Y259116D01*
X14500Y257094D01*
Y257000D01*
X19000D01*
Y261500D01*
D02*
G37*
G36*
X334580Y283000D02*
X331420D01*
X328368Y282182D01*
X325632Y280602D01*
X323398Y278368D01*
X321818Y275632D01*
X321000Y272580D01*
Y269420D01*
X321818Y266368D01*
X323398Y263632D01*
X325632Y261398D01*
X328368Y259818D01*
X331420Y259000D01*
X332500D01*
Y258906D01*
X333337Y256884D01*
X334884Y255337D01*
X336906Y254500D01*
X339094D01*
X341115Y255337D01*
X342663Y256884D01*
X343500Y258906D01*
Y261094D01*
X342663Y263116D01*
X342588Y263190D01*
Y263618D01*
X342602Y263632D01*
X344182Y266368D01*
X345000Y269420D01*
Y272580D01*
X344182Y275632D01*
X342602Y278368D01*
X340368Y280602D01*
X337632Y282182D01*
X334580Y283000D01*
D02*
G37*
G36*
X25500Y255000D02*
X21000D01*
Y250500D01*
X21094D01*
X23115Y251337D01*
X24663Y252885D01*
X25500Y254906D01*
Y255000D01*
D02*
G37*
G36*
X19000D02*
X14500D01*
Y254906D01*
X15337Y252885D01*
X16884Y251337D01*
X18906Y250500D01*
X19000D01*
Y255000D01*
D02*
G37*
G36*
X216580Y272000D02*
X213420D01*
X210368Y271182D01*
X207632Y269602D01*
X205398Y267368D01*
X203818Y264632D01*
X203000Y261580D01*
Y258420D01*
X203818Y255368D01*
X205398Y252632D01*
X207632Y250398D01*
X210368Y248818D01*
X213420Y248000D01*
X216580D01*
X219632Y248818D01*
X222368Y250398D01*
X224602Y252632D01*
X226182Y255368D01*
X227000Y258420D01*
Y261580D01*
X226182Y264632D01*
X224602Y267368D01*
X222368Y269602D01*
X219632Y271182D01*
X216580Y272000D01*
D02*
G37*
G36*
X478500Y255000D02*
X471500D01*
Y246000D01*
X478500D01*
Y255000D01*
D02*
G37*
G36*
X469500D02*
X462500D01*
Y246000D01*
X469500D01*
Y255000D01*
D02*
G37*
G36*
X121094Y245500D02*
X121000D01*
Y241000D01*
X125500D01*
Y241094D01*
X124663Y243116D01*
X123116Y244663D01*
X121094Y245500D01*
D02*
G37*
G36*
X119000D02*
X118906D01*
X116884Y244663D01*
X115337Y243116D01*
X114500Y241094D01*
Y241000D01*
X119000D01*
Y245500D01*
D02*
G37*
G36*
X478500Y244000D02*
X471500D01*
Y235000D01*
X478500D01*
Y244000D01*
D02*
G37*
G36*
X469500D02*
X462500D01*
Y235000D01*
X469500D01*
Y244000D01*
D02*
G37*
G36*
X125500Y239000D02*
X121000D01*
Y234500D01*
X121094D01*
X123116Y235337D01*
X124663Y236884D01*
X125500Y238906D01*
Y239000D01*
D02*
G37*
G36*
X119000D02*
X114500D01*
Y238906D01*
X115337Y236884D01*
X116884Y235337D01*
X118906Y234500D01*
X119000D01*
Y239000D01*
D02*
G37*
G36*
X244094Y236500D02*
X244000D01*
Y232000D01*
X248500D01*
Y232094D01*
X247663Y234116D01*
X246115Y235663D01*
X244094Y236500D01*
D02*
G37*
G36*
X242000D02*
X241906D01*
X239884Y235663D01*
X238337Y234116D01*
X237500Y232094D01*
Y232000D01*
X242000D01*
Y236500D01*
D02*
G37*
G36*
X248500Y230000D02*
X244000D01*
Y225500D01*
X244094D01*
X246115Y226337D01*
X247663Y227885D01*
X248500Y229906D01*
Y230000D01*
D02*
G37*
G36*
X242000D02*
X237500D01*
Y229906D01*
X238337Y227885D01*
X239884Y226337D01*
X241906Y225500D01*
X242000D01*
Y230000D01*
D02*
G37*
G36*
X186250Y237300D02*
X153750D01*
Y224300D01*
X186250D01*
Y237300D01*
D02*
G37*
G36*
X105750D02*
X73250D01*
Y224300D01*
X105750D01*
Y237300D01*
D02*
G37*
G36*
X386094Y255500D02*
X383906D01*
X381884Y254663D01*
X380337Y253116D01*
X380119Y252588D01*
X229000D01*
X227244Y252239D01*
X225756Y251244D01*
X216756Y242244D01*
X215761Y240756D01*
X215412Y239000D01*
Y233190D01*
X215337Y233116D01*
X214500Y231094D01*
Y228906D01*
X215337Y226884D01*
X216884Y225337D01*
X218906Y224500D01*
X221094D01*
X223116Y225337D01*
X224663Y226884D01*
X225500Y228906D01*
Y231094D01*
X224663Y233116D01*
X224588Y233190D01*
Y237099D01*
X230900Y243412D01*
X293645D01*
X294001Y242919D01*
X294268Y242144D01*
X292818Y239632D01*
X292000Y236580D01*
Y233420D01*
X292818Y230368D01*
X294398Y227632D01*
X296632Y225398D01*
X299368Y223818D01*
X302420Y223000D01*
X305580D01*
X308632Y223818D01*
X311368Y225398D01*
X313602Y227632D01*
X315182Y230368D01*
X316000Y233420D01*
Y236580D01*
X315182Y239632D01*
X313733Y242142D01*
X314170Y243412D01*
X383000D01*
X384756Y243761D01*
X385862Y244500D01*
X386094D01*
X388116Y245337D01*
X389663Y246884D01*
X390500Y248906D01*
Y251094D01*
X389663Y253116D01*
X388116Y254663D01*
X386094Y255500D01*
D02*
G37*
G36*
X272580Y232000D02*
X269420D01*
X266368Y231182D01*
X263632Y229602D01*
X261398Y227368D01*
X259818Y224632D01*
X259000Y221580D01*
X257730Y220961D01*
X256979Y221060D01*
X219000D01*
X217173Y220820D01*
X215470Y220114D01*
X214008Y218992D01*
X200008Y204992D01*
X198885Y203530D01*
X198180Y201827D01*
X197940Y200000D01*
Y157924D01*
X182076Y142060D01*
X157924D01*
X137060Y162924D01*
Y190000D01*
X136820Y191827D01*
X136115Y193530D01*
X134992Y194992D01*
X119592Y210392D01*
X118130Y211514D01*
X116427Y212220D01*
X114600Y212460D01*
X89500D01*
X87673Y212220D01*
X86901Y211900D01*
X73250D01*
Y198900D01*
X86901D01*
X87673Y198580D01*
X89500Y198340D01*
X111676D01*
X122940Y187076D01*
Y160000D01*
X123180Y158173D01*
X123885Y156470D01*
X125007Y155008D01*
X150007Y130008D01*
X151470Y128885D01*
X153173Y128180D01*
X155000Y127940D01*
X185000D01*
X186827Y128180D01*
X188530Y128885D01*
X189993Y130008D01*
X209992Y150007D01*
X211115Y151470D01*
X211820Y153173D01*
X212060Y155000D01*
Y197076D01*
X221924Y206940D01*
X254054D01*
X255776Y205218D01*
Y198147D01*
X255148Y197518D01*
X253568Y194782D01*
X252907Y192317D01*
X251593D01*
X250932Y194782D01*
X249352Y197518D01*
X247118Y199752D01*
X244382Y201332D01*
X241330Y202150D01*
X238170D01*
X235118Y201332D01*
X232382Y199752D01*
X230148Y197518D01*
X228568Y194782D01*
X227750Y191730D01*
Y188570D01*
X228568Y185518D01*
X230148Y182782D01*
X232382Y180548D01*
X235118Y178968D01*
X237583Y178307D01*
Y176993D01*
X235118Y176332D01*
X232382Y174752D01*
X230148Y172518D01*
X228568Y169782D01*
X227750Y166730D01*
Y163570D01*
X228568Y160518D01*
X230148Y157782D01*
X232382Y155548D01*
X235118Y153968D01*
X238170Y153150D01*
X241330D01*
X244382Y153968D01*
X247118Y155548D01*
X249352Y157782D01*
X250932Y160518D01*
X251593Y162983D01*
X252907D01*
X253568Y160518D01*
X255148Y157782D01*
X257382Y155548D01*
X257690Y155370D01*
Y142675D01*
X236075Y121060D01*
X128925D01*
X96560Y153425D01*
Y173500D01*
X105750D01*
Y186500D01*
X92099D01*
X91327Y186820D01*
X89500Y187060D01*
X87673Y186820D01*
X86901Y186500D01*
X73250D01*
Y173500D01*
X82440D01*
Y150500D01*
X82680Y148673D01*
X83385Y146970D01*
X84508Y145508D01*
X117763Y112252D01*
X116756Y111244D01*
X115761Y109756D01*
X115412Y108000D01*
Y91194D01*
X115368Y91182D01*
X112632Y89602D01*
X110398Y87368D01*
X108818Y84632D01*
X108000Y81580D01*
Y78420D01*
X108818Y75368D01*
X110398Y72632D01*
X112632Y70398D01*
X115368Y68818D01*
X118420Y68000D01*
X121580D01*
X124632Y68818D01*
X127368Y70398D01*
X129602Y72632D01*
X131182Y75368D01*
X132000Y78420D01*
Y81580D01*
X131182Y84632D01*
X129602Y87368D01*
X127368Y89602D01*
X124632Y91182D01*
X124588Y91194D01*
Y106100D01*
X125495Y107006D01*
X126000Y106940D01*
X239000D01*
X240827Y107180D01*
X242530Y107886D01*
X243992Y109008D01*
X269742Y134757D01*
X270864Y136220D01*
X271570Y137923D01*
X271810Y139750D01*
Y155370D01*
X272118Y155548D01*
X274352Y157782D01*
X275932Y160518D01*
X276593Y162983D01*
X277907D01*
X278568Y160518D01*
X280148Y157782D01*
X282382Y155548D01*
X285118Y153968D01*
X288170Y153150D01*
X288750D01*
Y165150D01*
X289750D01*
Y166150D01*
X301750D01*
Y166730D01*
X300932Y169782D01*
X299352Y172518D01*
X297118Y174752D01*
X294382Y176332D01*
X292563Y176820D01*
X292730Y178090D01*
X294750D01*
X296577Y178330D01*
X298280Y179035D01*
X299742Y180158D01*
X299948Y180425D01*
X300000Y180418D01*
X305000D01*
Y180404D01*
X305285Y180285D01*
X305404Y180000D01*
X305418D01*
Y174400D01*
X305392D01*
X305823Y168923D01*
X307106Y163582D01*
X309208Y158507D01*
X312078Y153823D01*
X315646Y149646D01*
X319823Y146078D01*
X324507Y143208D01*
X329582Y141105D01*
X334924Y139823D01*
X337360Y139631D01*
X337480Y139342D01*
X338723Y137723D01*
X340342Y136480D01*
X342227Y135699D01*
X344250Y135433D01*
X365750D01*
X367773Y135699D01*
X369658Y136480D01*
X371277Y137723D01*
X372520Y139342D01*
X373301Y141227D01*
X373395Y141941D01*
X398396D01*
X398818Y140368D01*
X400398Y137632D01*
X402632Y135398D01*
X405368Y133818D01*
X408420Y133000D01*
X411580D01*
X414632Y133818D01*
X417368Y135398D01*
X419602Y137632D01*
X421182Y140368D01*
X422000Y143420D01*
Y146580D01*
X421182Y149632D01*
X419602Y152368D01*
X417368Y154602D01*
X414632Y156182D01*
X411580Y157000D01*
X408420D01*
X405712Y156274D01*
X404925Y157104D01*
X404833Y157295D01*
X405500Y158906D01*
Y159000D01*
X401000D01*
Y154022D01*
X401335Y153421D01*
X401356Y153327D01*
X400398Y152368D01*
X398818Y149632D01*
X398396Y148059D01*
X373567D01*
Y154750D01*
X373301Y156773D01*
X372520Y158658D01*
X371277Y160277D01*
X369658Y161520D01*
X367773Y162300D01*
X365750Y162567D01*
X364582D01*
Y169150D01*
X368875D01*
X370875Y169547D01*
X372570Y170680D01*
X373703Y172375D01*
X374100Y174375D01*
Y175335D01*
X375005Y177520D01*
X375332Y180000D01*
X375005Y182480D01*
X374100Y184665D01*
Y185625D01*
X373703Y187625D01*
X372570Y189320D01*
X370875Y190453D01*
X368875Y190850D01*
X362625D01*
X360625Y190453D01*
X358930Y189320D01*
X358111Y188094D01*
X357963Y188049D01*
X354445Y186169D01*
X351362Y183638D01*
X348831Y180555D01*
X346951Y177037D01*
X345793Y173220D01*
X345402Y169250D01*
X345418D01*
Y162567D01*
X344250D01*
X342227Y162300D01*
X340342Y161520D01*
X338723Y160277D01*
X337609Y158826D01*
X337308Y158855D01*
X334335Y159757D01*
X331595Y161222D01*
X329193Y163193D01*
X327222Y165595D01*
X325757Y168335D01*
X324855Y171308D01*
X324564Y174264D01*
X324582Y174400D01*
Y180000D01*
X324594D01*
X324218Y183823D01*
X323103Y187498D01*
X321292Y190886D01*
X318855Y193855D01*
X315886Y196292D01*
X312498Y198103D01*
X308823Y199218D01*
X305000Y199594D01*
Y199582D01*
X300989D01*
X300081Y199701D01*
X299742Y200142D01*
X298280Y201264D01*
X296577Y201970D01*
X294750Y202210D01*
X284750D01*
X282923Y201970D01*
X281220Y201264D01*
X279757Y200142D01*
X278636Y198680D01*
X277930Y196977D01*
X277690Y195150D01*
Y193130D01*
X276420Y192963D01*
X275932Y194782D01*
X274352Y197518D01*
X272118Y199752D01*
X269897Y201035D01*
Y208000D01*
X272580D01*
X275632Y208818D01*
X278368Y210398D01*
X280602Y212632D01*
X282182Y215368D01*
X283000Y218420D01*
Y221580D01*
X282182Y224632D01*
X280602Y227368D01*
X278368Y229602D01*
X275632Y231182D01*
X272580Y232000D01*
D02*
G37*
G36*
X302094Y218500D02*
X302000D01*
Y214000D01*
X306500D01*
Y214094D01*
X305663Y216115D01*
X304116Y217663D01*
X302094Y218500D01*
D02*
G37*
G36*
X300000D02*
X299906D01*
X297885Y217663D01*
X296337Y216115D01*
X295500Y214094D01*
Y214000D01*
X300000D01*
Y218500D01*
D02*
G37*
G36*
X306500Y212000D02*
X302000D01*
Y207500D01*
X302094D01*
X304116Y208337D01*
X305663Y209884D01*
X306500Y211906D01*
Y212000D01*
D02*
G37*
G36*
X300000D02*
X295500D01*
Y211906D01*
X296337Y209884D01*
X297885Y208337D01*
X299906Y207500D01*
X300000D01*
Y212000D01*
D02*
G37*
G36*
X421094Y205500D02*
X421000D01*
Y201000D01*
X425500D01*
Y201094D01*
X424663Y203116D01*
X423115Y204663D01*
X421094Y205500D01*
D02*
G37*
G36*
X381094D02*
X381000D01*
Y201000D01*
X385500D01*
Y201094D01*
X384663Y203116D01*
X383115Y204663D01*
X381094Y205500D01*
D02*
G37*
G36*
X379000D02*
X378906D01*
X376884Y204663D01*
X375337Y203116D01*
X374500Y201094D01*
Y201000D01*
X379000D01*
Y205500D01*
D02*
G37*
G36*
X141094D02*
X141000D01*
Y201000D01*
X145500D01*
Y201094D01*
X144663Y203116D01*
X143116Y204663D01*
X141094Y205500D01*
D02*
G37*
G36*
X139000D02*
X138906D01*
X136884Y204663D01*
X135337Y203116D01*
X134500Y201094D01*
Y201000D01*
X139000D01*
Y205500D01*
D02*
G37*
G36*
X61094D02*
X61000D01*
Y201000D01*
X65500D01*
Y201094D01*
X64663Y203116D01*
X63116Y204663D01*
X61094Y205500D01*
D02*
G37*
G36*
X59000D02*
X58906D01*
X56884Y204663D01*
X55337Y203116D01*
X54500Y201094D01*
Y201000D01*
X59000D01*
Y205500D01*
D02*
G37*
G36*
X186250Y211900D02*
X153750D01*
Y198900D01*
X186250D01*
Y211900D01*
D02*
G37*
G36*
X425500Y199000D02*
X421000D01*
Y194500D01*
X421094D01*
X423115Y195337D01*
X424663Y196884D01*
X425500Y198906D01*
Y199000D01*
D02*
G37*
G36*
X405000Y217082D02*
X402520Y216755D01*
X400209Y215798D01*
X398225Y214275D01*
X396702Y212291D01*
X395745Y209980D01*
X395418Y207500D01*
Y190850D01*
X391125D01*
X389125Y190453D01*
X387430Y189320D01*
X386297Y187625D01*
X385900Y185625D01*
Y184665D01*
X384995Y182480D01*
X384668Y180000D01*
X384995Y177520D01*
X385900Y175335D01*
Y174375D01*
X386297Y172375D01*
X387430Y170680D01*
X389125Y169547D01*
X391125Y169150D01*
X397375D01*
X399375Y169547D01*
X401070Y170680D01*
X401889Y171906D01*
X402037Y171951D01*
X405555Y173831D01*
X408638Y176362D01*
X411169Y179445D01*
X413049Y182963D01*
X414207Y186780D01*
X414598Y190750D01*
X414582D01*
Y195844D01*
X415852Y196370D01*
X416884Y195337D01*
X418906Y194500D01*
X419000D01*
Y200000D01*
Y205500D01*
X418906D01*
X416884Y204663D01*
X415852Y203630D01*
X414582Y204156D01*
Y207500D01*
X414255Y209980D01*
X413298Y212291D01*
X411776Y214275D01*
X409791Y215798D01*
X407480Y216755D01*
X405000Y217082D01*
D02*
G37*
G36*
X385500Y199000D02*
X381000D01*
Y194500D01*
X381094D01*
X383115Y195337D01*
X384663Y196884D01*
X385500Y198906D01*
Y199000D01*
D02*
G37*
G36*
X379000D02*
X374500D01*
Y198906D01*
X375337Y196884D01*
X376884Y195337D01*
X378906Y194500D01*
X379000D01*
Y199000D01*
D02*
G37*
G36*
X145500D02*
X141000D01*
Y194500D01*
X141094D01*
X143116Y195337D01*
X144663Y196884D01*
X145500Y198906D01*
Y199000D01*
D02*
G37*
G36*
X139000D02*
X134500D01*
Y198906D01*
X135337Y196884D01*
X136884Y195337D01*
X138906Y194500D01*
X139000D01*
Y199000D01*
D02*
G37*
G36*
X65500D02*
X61000D01*
Y194500D01*
X61094D01*
X63116Y195337D01*
X64663Y196884D01*
X65500Y198906D01*
Y199000D01*
D02*
G37*
G36*
X59000D02*
X54500D01*
Y198906D01*
X55337Y196884D01*
X56884Y195337D01*
X58906Y194500D01*
X59000D01*
Y199000D01*
D02*
G37*
G36*
X186250Y186500D02*
X153750D01*
Y173500D01*
X186250D01*
Y186500D01*
D02*
G37*
G36*
X481094Y165500D02*
X481000D01*
Y161000D01*
X485500D01*
Y161094D01*
X484663Y163116D01*
X483115Y164663D01*
X481094Y165500D01*
D02*
G37*
G36*
X479000D02*
X478906D01*
X476884Y164663D01*
X475337Y163116D01*
X474500Y161094D01*
Y161000D01*
X479000D01*
Y165500D01*
D02*
G37*
G36*
X441094D02*
X441000D01*
Y161000D01*
X445500D01*
Y161094D01*
X444663Y163116D01*
X443115Y164663D01*
X441094Y165500D01*
D02*
G37*
G36*
X439000D02*
X438906D01*
X436884Y164663D01*
X435337Y163116D01*
X434500Y161094D01*
Y161000D01*
X439000D01*
Y165500D01*
D02*
G37*
G36*
X401094D02*
X401000D01*
Y161000D01*
X405500D01*
Y161094D01*
X404663Y163116D01*
X403115Y164663D01*
X401094Y165500D01*
D02*
G37*
G36*
X399000D02*
X398906D01*
X396884Y164663D01*
X395337Y163116D01*
X394500Y161094D01*
Y161000D01*
X399000D01*
Y165500D01*
D02*
G37*
G36*
X161094D02*
X161000D01*
Y161000D01*
X165500D01*
Y161094D01*
X164663Y163116D01*
X163116Y164663D01*
X161094Y165500D01*
D02*
G37*
G36*
X159000D02*
X158906D01*
X156884Y164663D01*
X155337Y163116D01*
X154500Y161094D01*
Y161000D01*
X159000D01*
Y165500D01*
D02*
G37*
G36*
X41094D02*
X41000D01*
Y161000D01*
X45500D01*
Y161094D01*
X44663Y163116D01*
X43116Y164663D01*
X41094Y165500D01*
D02*
G37*
G36*
X39000D02*
X38906D01*
X36885Y164663D01*
X35337Y163116D01*
X34500Y161094D01*
Y161000D01*
X39000D01*
Y165500D01*
D02*
G37*
G36*
X485500Y159000D02*
X481000D01*
Y154500D01*
X481094D01*
X483115Y155337D01*
X484663Y156884D01*
X485500Y158906D01*
Y159000D01*
D02*
G37*
G36*
X479000D02*
X474500D01*
Y158906D01*
X475337Y156884D01*
X476884Y155337D01*
X478906Y154500D01*
X479000D01*
Y159000D01*
D02*
G37*
G36*
X445500D02*
X441000D01*
Y154500D01*
X441094D01*
X443115Y155337D01*
X444663Y156884D01*
X445500Y158906D01*
Y159000D01*
D02*
G37*
G36*
X439000D02*
X434500D01*
Y158906D01*
X435337Y156884D01*
X436884Y155337D01*
X438906Y154500D01*
X439000D01*
Y159000D01*
D02*
G37*
G36*
X399000D02*
X394500D01*
Y158906D01*
X395337Y156884D01*
X396884Y155337D01*
X398906Y154500D01*
X399000D01*
Y159000D01*
D02*
G37*
G36*
X165500D02*
X161000D01*
Y154500D01*
X161094D01*
X163116Y155337D01*
X164663Y156884D01*
X165500Y158906D01*
Y159000D01*
D02*
G37*
G36*
X159000D02*
X154500D01*
Y158906D01*
X155337Y156884D01*
X156884Y155337D01*
X158906Y154500D01*
X159000D01*
Y159000D01*
D02*
G37*
G36*
X45500D02*
X41000D01*
Y154500D01*
X41094D01*
X43116Y155337D01*
X44663Y156884D01*
X45500Y158906D01*
Y159000D01*
D02*
G37*
G36*
X39000D02*
X34500D01*
Y158906D01*
X35337Y156884D01*
X36885Y155337D01*
X38906Y154500D01*
X39000D01*
Y159000D01*
D02*
G37*
G36*
X301750Y164150D02*
X290750D01*
Y153150D01*
X291330D01*
X294382Y153968D01*
X297118Y155548D01*
X299352Y157782D01*
X300932Y160518D01*
X301750Y163570D01*
Y164150D01*
D02*
G37*
G36*
X125094Y145500D02*
X125000D01*
Y141000D01*
X129500D01*
Y141094D01*
X128663Y143116D01*
X127115Y144663D01*
X125094Y145500D01*
D02*
G37*
G36*
X123000D02*
X122906D01*
X120885Y144663D01*
X119337Y143116D01*
X118500Y141094D01*
Y141000D01*
X123000D01*
Y145500D01*
D02*
G37*
G36*
X129500Y139000D02*
X125000D01*
Y134500D01*
X125094D01*
X127115Y135337D01*
X128663Y136884D01*
X129500Y138906D01*
Y139000D01*
D02*
G37*
G36*
X123000D02*
X118500D01*
Y138906D01*
X119337Y136884D01*
X120885Y135337D01*
X122906Y134500D01*
X123000D01*
Y139000D01*
D02*
G37*
G36*
X290094Y132500D02*
X290000D01*
Y128000D01*
X294500D01*
Y128094D01*
X293663Y130115D01*
X292115Y131663D01*
X290094Y132500D01*
D02*
G37*
G36*
X288000D02*
X287906D01*
X285884Y131663D01*
X284337Y130115D01*
X283500Y128094D01*
Y128000D01*
X288000D01*
Y132500D01*
D02*
G37*
G36*
X294500Y126000D02*
X290000D01*
Y121500D01*
X290094D01*
X292115Y122337D01*
X293663Y123884D01*
X294500Y125906D01*
Y126000D01*
D02*
G37*
G36*
X288000D02*
X283500D01*
Y125906D01*
X284337Y123884D01*
X285884Y122337D01*
X287906Y121500D01*
X288000D01*
Y126000D01*
D02*
G37*
G36*
X421094Y125500D02*
X421000D01*
Y121000D01*
X425500D01*
Y121094D01*
X424663Y123116D01*
X423115Y124663D01*
X421094Y125500D01*
D02*
G37*
G36*
X419000D02*
X418906D01*
X416884Y124663D01*
X415337Y123116D01*
X414500Y121094D01*
Y121000D01*
X419000D01*
Y125500D01*
D02*
G37*
G36*
X381094D02*
X381000D01*
Y121000D01*
X385500D01*
Y121094D01*
X384663Y123116D01*
X383115Y124663D01*
X381094Y125500D01*
D02*
G37*
G36*
X379000D02*
X378906D01*
X376884Y124663D01*
X375337Y123116D01*
X374500Y121094D01*
Y121000D01*
X379000D01*
Y125500D01*
D02*
G37*
G36*
X301094D02*
X301000D01*
Y121000D01*
X305500D01*
Y121094D01*
X304663Y123116D01*
X303115Y124663D01*
X301094Y125500D01*
D02*
G37*
G36*
X299000D02*
X298906D01*
X296884Y124663D01*
X295337Y123116D01*
X294500Y121094D01*
Y121000D01*
X299000D01*
Y125500D01*
D02*
G37*
G36*
X101094D02*
X101000D01*
Y121000D01*
X105500D01*
Y121094D01*
X104663Y123116D01*
X103116Y124663D01*
X101094Y125500D01*
D02*
G37*
G36*
X99000D02*
X98906D01*
X96884Y124663D01*
X95337Y123116D01*
X94500Y121094D01*
Y121000D01*
X99000D01*
Y125500D01*
D02*
G37*
G36*
X425500Y119000D02*
X421000D01*
Y114500D01*
X421094D01*
X423115Y115337D01*
X424663Y116884D01*
X425500Y118906D01*
Y119000D01*
D02*
G37*
G36*
X419000D02*
X414500D01*
Y118906D01*
X415337Y116884D01*
X416884Y115337D01*
X418906Y114500D01*
X419000D01*
Y119000D01*
D02*
G37*
G36*
X385500D02*
X381000D01*
Y114500D01*
X381094D01*
X383115Y115337D01*
X384663Y116884D01*
X385500Y118906D01*
Y119000D01*
D02*
G37*
G36*
X379000D02*
X374500D01*
Y118906D01*
X375337Y116884D01*
X376884Y115337D01*
X378906Y114500D01*
X379000D01*
Y119000D01*
D02*
G37*
G36*
X305500D02*
X301000D01*
Y114500D01*
X301094D01*
X303115Y115337D01*
X304663Y116884D01*
X305500Y118906D01*
Y119000D01*
D02*
G37*
G36*
X299000D02*
X294500D01*
Y118906D01*
X295337Y116884D01*
X296884Y115337D01*
X298906Y114500D01*
X299000D01*
Y119000D01*
D02*
G37*
G36*
X105500D02*
X101000D01*
Y114500D01*
X101094D01*
X103116Y115337D01*
X104663Y116884D01*
X105500Y118906D01*
Y119000D01*
D02*
G37*
G36*
X99000D02*
X94500D01*
Y118906D01*
X95337Y116884D01*
X96884Y115337D01*
X98906Y114500D01*
X99000D01*
Y119000D01*
D02*
G37*
G36*
X482912Y137000D02*
X481000D01*
Y101000D01*
X517000D01*
Y102912D01*
X516089Y108664D01*
X514289Y114203D01*
X511645Y119392D01*
X508222Y124104D01*
X504104Y128222D01*
X499392Y131645D01*
X494203Y134289D01*
X488664Y136089D01*
X482912Y137000D01*
D02*
G37*
G36*
X479000D02*
X477088D01*
X471336Y136089D01*
X465797Y134289D01*
X460608Y131645D01*
X455896Y128222D01*
X451778Y124104D01*
X448355Y119392D01*
X445711Y114203D01*
X443911Y108664D01*
X443000Y102912D01*
Y101000D01*
X479000D01*
Y137000D01*
D02*
G37*
G36*
X52912D02*
X51000D01*
Y101000D01*
X87000D01*
Y102912D01*
X86089Y108664D01*
X84289Y114203D01*
X81645Y119392D01*
X78222Y124104D01*
X74104Y128222D01*
X69392Y131645D01*
X64203Y134289D01*
X58664Y136089D01*
X52912Y137000D01*
D02*
G37*
G36*
X49000D02*
X47088D01*
X41336Y136089D01*
X35797Y134289D01*
X30608Y131645D01*
X25896Y128222D01*
X21778Y124104D01*
X18355Y119392D01*
X15711Y114203D01*
X13911Y108664D01*
X13000Y102912D01*
Y101000D01*
X49000D01*
Y137000D01*
D02*
G37*
G36*
X181094Y99500D02*
X181000D01*
Y95000D01*
X185500D01*
Y95094D01*
X184663Y97115D01*
X183116Y98663D01*
X181094Y99500D01*
D02*
G37*
G36*
X179000D02*
X178906D01*
X176884Y98663D01*
X175337Y97115D01*
X174500Y95094D01*
Y95000D01*
X179000D01*
Y99500D01*
D02*
G37*
G36*
X185500Y93000D02*
X181000D01*
Y88500D01*
X181094D01*
X183116Y89337D01*
X184663Y90885D01*
X185500Y92906D01*
Y93000D01*
D02*
G37*
G36*
X179000D02*
X174500D01*
Y92906D01*
X175337Y90885D01*
X176884Y89337D01*
X178906Y88500D01*
X179000D01*
Y93000D01*
D02*
G37*
G36*
X291317Y104100D02*
X288683D01*
X286140Y103419D01*
X283860Y102102D01*
X281998Y100240D01*
X280681Y97960D01*
X280000Y95416D01*
Y92783D01*
X280681Y90240D01*
X281998Y87960D01*
X283860Y86098D01*
X286140Y84782D01*
X288683Y84100D01*
X291317D01*
X293860Y84782D01*
X296140Y86098D01*
X298002Y87960D01*
X299319Y90240D01*
X300000Y92783D01*
Y95416D01*
X299319Y97960D01*
X298002Y100240D01*
X296140Y102102D01*
X293860Y103419D01*
X291317Y104100D01*
D02*
G37*
G36*
X241317D02*
X238683D01*
X236140Y103419D01*
X233860Y102102D01*
X231998Y100240D01*
X230681Y97960D01*
X230000Y95416D01*
Y92783D01*
X230681Y90240D01*
X231998Y87960D01*
X233860Y86098D01*
X236140Y84782D01*
X238683Y84100D01*
X241317D01*
X243860Y84782D01*
X246140Y86098D01*
X248002Y87960D01*
X249319Y90240D01*
X250000Y92783D01*
Y95416D01*
X249319Y97960D01*
X248002Y100240D01*
X246140Y102102D01*
X243860Y103419D01*
X241317Y104100D01*
D02*
G37*
G36*
X365750Y94567D02*
X356000D01*
Y82000D01*
X373567D01*
Y86750D01*
X373301Y88773D01*
X372520Y90658D01*
X371277Y92277D01*
X369658Y93520D01*
X367773Y94300D01*
X365750Y94567D01*
D02*
G37*
G36*
X354000D02*
X344250D01*
X342227Y94300D01*
X340342Y93520D01*
X338723Y92277D01*
X337480Y90658D01*
X336699Y88773D01*
X336433Y86750D01*
Y82000D01*
X354000D01*
Y94567D01*
D02*
G37*
G36*
X411580Y92000D02*
X411000D01*
Y81000D01*
X422000D01*
Y81580D01*
X421182Y84632D01*
X419602Y87368D01*
X417368Y89602D01*
X414632Y91182D01*
X411580Y92000D01*
D02*
G37*
G36*
X441094Y85500D02*
X441000D01*
Y81000D01*
X445500D01*
Y81094D01*
X444663Y83116D01*
X443115Y84663D01*
X441094Y85500D01*
D02*
G37*
G36*
X439000D02*
X438906D01*
X436884Y84663D01*
X435337Y83116D01*
X434500Y81094D01*
Y81000D01*
X439000D01*
Y85500D01*
D02*
G37*
G36*
X321094D02*
X321000D01*
Y81000D01*
X325500D01*
Y81094D01*
X324663Y83116D01*
X323116Y84663D01*
X321094Y85500D01*
D02*
G37*
G36*
X319000D02*
X318906D01*
X316884Y84663D01*
X315337Y83116D01*
X314500Y81094D01*
Y81000D01*
X319000D01*
Y85500D01*
D02*
G37*
G36*
X281094D02*
X281000D01*
Y81000D01*
X285500D01*
Y81094D01*
X284663Y83116D01*
X283116Y84663D01*
X281094Y85500D01*
D02*
G37*
G36*
X279000D02*
X278906D01*
X276884Y84663D01*
X275337Y83116D01*
X274500Y81094D01*
Y81000D01*
X279000D01*
Y85500D01*
D02*
G37*
G36*
X409000Y92000D02*
X408420D01*
X405368Y91182D01*
X402632Y89602D01*
X400398Y87368D01*
X398818Y84632D01*
X398000Y81580D01*
Y81000D01*
X409000D01*
Y92000D01*
D02*
G37*
G36*
X445500Y79000D02*
X441000D01*
Y74500D01*
X441094D01*
X443115Y75337D01*
X444663Y76884D01*
X445500Y78906D01*
Y79000D01*
D02*
G37*
G36*
X439000D02*
X434500D01*
Y78906D01*
X435337Y76884D01*
X436884Y75337D01*
X438906Y74500D01*
X439000D01*
Y79000D01*
D02*
G37*
G36*
X325500D02*
X321000D01*
Y74500D01*
X321094D01*
X323116Y75337D01*
X324663Y76884D01*
X325500Y78906D01*
Y79000D01*
D02*
G37*
G36*
X319000D02*
X314500D01*
Y78906D01*
X315337Y76884D01*
X316884Y75337D01*
X318906Y74500D01*
X319000D01*
Y79000D01*
D02*
G37*
G36*
X285500D02*
X281000D01*
Y74500D01*
X281094D01*
X283116Y75337D01*
X284663Y76884D01*
X285500Y78906D01*
Y79000D01*
D02*
G37*
G36*
X279000D02*
X274500D01*
Y78906D01*
X275337Y76884D01*
X276884Y75337D01*
X278906Y74500D01*
X279000D01*
Y79000D01*
D02*
G37*
G36*
X422000D02*
X411000D01*
Y68000D01*
X411580D01*
X414632Y68818D01*
X417368Y70398D01*
X419602Y72632D01*
X421182Y75368D01*
X422000Y78420D01*
Y79000D01*
D02*
G37*
G36*
X409000D02*
X398000D01*
Y78420D01*
X398818Y75368D01*
X400398Y72632D01*
X402632Y70398D01*
X405368Y68818D01*
X408420Y68000D01*
X409000D01*
Y79000D01*
D02*
G37*
G36*
X196580Y92000D02*
X193420D01*
X190368Y91182D01*
X187632Y89602D01*
X185398Y87368D01*
X183818Y84632D01*
X183000Y81580D01*
Y78420D01*
X183818Y75368D01*
X185398Y72632D01*
X187632Y70398D01*
X190368Y68818D01*
X193420Y68000D01*
X196580D01*
X199632Y68818D01*
X202368Y70398D01*
X204602Y72632D01*
X206182Y75368D01*
X207000Y78420D01*
Y81580D01*
X206182Y84632D01*
X204602Y87368D01*
X202368Y89602D01*
X199632Y91182D01*
X196580Y92000D01*
D02*
G37*
G36*
X166580D02*
X163420D01*
X160368Y91182D01*
X157632Y89602D01*
X155398Y87368D01*
X153818Y84632D01*
X153000Y81580D01*
Y78420D01*
X153818Y75368D01*
X155398Y72632D01*
X157632Y70398D01*
X160368Y68818D01*
X163420Y68000D01*
X166580D01*
X169632Y68818D01*
X172368Y70398D01*
X174602Y72632D01*
X176182Y75368D01*
X177000Y78420D01*
Y81580D01*
X176182Y84632D01*
X174602Y87368D01*
X172368Y89602D01*
X169632Y91182D01*
X166580Y92000D01*
D02*
G37*
G36*
X373567Y80000D02*
X356000D01*
Y67433D01*
X365750D01*
X367773Y67699D01*
X369658Y68480D01*
X371277Y69723D01*
X372520Y71342D01*
X373301Y73227D01*
X373567Y75250D01*
Y80000D01*
D02*
G37*
G36*
X354000D02*
X336433D01*
Y75250D01*
X336699Y73227D01*
X337480Y71342D01*
X338723Y69723D01*
X340342Y68480D01*
X342227Y67699D01*
X344250Y67433D01*
X354000D01*
Y80000D01*
D02*
G37*
G36*
X517000Y99000D02*
X481000D01*
Y63000D01*
X482912D01*
X488664Y63911D01*
X494203Y65711D01*
X499392Y68355D01*
X504104Y71778D01*
X508222Y75896D01*
X511645Y80608D01*
X514289Y85797D01*
X516089Y91336D01*
X517000Y97088D01*
Y99000D01*
D02*
G37*
G36*
X479000D02*
X443000D01*
Y97088D01*
X443911Y91336D01*
X445711Y85797D01*
X448355Y80608D01*
X451778Y75896D01*
X455896Y71778D01*
X460608Y68355D01*
X465797Y65711D01*
X471336Y63911D01*
X477088Y63000D01*
X479000D01*
Y99000D01*
D02*
G37*
G36*
X87000D02*
X51000D01*
Y63000D01*
X52912D01*
X58664Y63911D01*
X64203Y65711D01*
X69392Y68355D01*
X74104Y71778D01*
X78222Y75896D01*
X81645Y80608D01*
X84289Y85797D01*
X86089Y91336D01*
X87000Y97088D01*
Y99000D01*
D02*
G37*
G36*
X49000D02*
X13000D01*
Y97088D01*
X13911Y91336D01*
X15711Y85797D01*
X18355Y80608D01*
X21778Y75896D01*
X25896Y71778D01*
X30608Y68355D01*
X35797Y65711D01*
X41336Y63911D01*
X47088Y63000D01*
X49000D01*
Y99000D01*
D02*
G37*
%LPD*%
G36*
X132368Y511818D02*
X135420Y511000D01*
X138376D01*
X138580Y511000D01*
X138829Y509826D01*
X138689Y509732D01*
X137837Y509163D01*
X116837Y488163D01*
X115666Y488582D01*
X115066Y489085D01*
X115060Y489098D01*
Y491000D01*
X114820Y492827D01*
X114115Y494530D01*
X112992Y495993D01*
X111530Y497114D01*
X109827Y497820D01*
X108000Y498060D01*
X106173Y497820D01*
X104470Y497114D01*
X103466Y496344D01*
X102627Y497301D01*
X104959Y499633D01*
X116692D01*
X116692Y499633D01*
X117863Y499866D01*
X118855Y500529D01*
X130958Y512632D01*
X132368Y511818D01*
D02*
G37*
D13*
X151000Y507000D02*
X176000Y532000D01*
X140000Y507000D02*
X151000D01*
X119000Y486000D02*
X140000Y507000D01*
X178000Y501000D02*
X192000Y515000D01*
X126000Y487000D02*
X140000Y501000D01*
X178000D01*
X176000Y532000D02*
X231000D01*
X91000Y450062D02*
Y513234D01*
X102368Y524602D01*
X89038Y448100D02*
X91000Y450062D01*
X87750Y448100D02*
X89038D01*
X103692Y502692D02*
X116692D01*
X137000Y523000D01*
X97000Y496000D02*
X103692Y502692D01*
X97000Y469000D02*
Y496000D01*
Y469000D02*
X99000Y467000D01*
Y438000D02*
Y467000D01*
X96828Y435828D02*
X99000Y438000D01*
X88178Y435828D02*
X96828D01*
X87750Y435400D02*
X88178Y435828D01*
X126000Y442000D02*
Y487000D01*
Y442000D02*
X132600Y435400D01*
X142250D01*
X119000Y431672D02*
Y486000D01*
X231000Y532000D02*
X248000Y515000D01*
X179469Y308531D02*
X181000Y307000D01*
X151579Y333422D02*
Y344422D01*
X176469Y308531D02*
X179469D01*
X151000Y345000D02*
X151579Y344422D01*
Y333422D02*
X176469Y308531D01*
X116000Y429000D02*
X116328D01*
X119000Y431672D01*
X248000Y515000D02*
X250000D01*
X294000Y248000D02*
X301843Y240157D01*
X304000Y235000D02*
Y237165D01*
X301843Y239322D02*
X304000Y237165D01*
X301843Y239322D02*
Y240157D01*
X262979Y220000D02*
X271000D01*
X256979Y214000D02*
X262979Y220000D01*
X200198Y448469D02*
X203469D01*
X205000Y450000D01*
X199828Y448100D02*
X200198Y448469D01*
X181900Y448100D02*
X199828D01*
X260400Y445400D02*
X280000Y465000D01*
Y495000D01*
X245000Y445400D02*
X260400D01*
X280000Y495000D02*
X300000Y515000D01*
X320000D01*
X305000Y445400D02*
X315400D01*
X385000Y515000D01*
X295000Y340750D02*
X295750Y340000D01*
X339000D01*
X429750Y443000D02*
X432750Y440000D01*
X425000Y448750D02*
X429750Y444000D01*
X432750Y440000D02*
X464000D01*
X429750Y443000D02*
Y444000D01*
X424000Y448750D02*
X425000D01*
X439500Y210500D02*
Y245000D01*
Y210500D02*
X445000Y205000D01*
X289750Y145250D02*
Y165150D01*
Y145250D02*
X315000Y120000D01*
X370000D01*
X410000Y80000D01*
X359000Y145000D02*
X410000D01*
X355000Y149000D02*
X359000Y145000D01*
X49000Y345000D02*
X51578Y342422D01*
Y333422D02*
X75000Y310000D01*
X51578Y333422D02*
Y342422D01*
X49250Y280000D02*
X50000Y279250D01*
Y245000D02*
Y279250D01*
D28*
X170000Y281600D02*
D03*
Y230800D02*
D03*
Y205400D02*
D03*
Y180000D02*
D03*
X89500D02*
D03*
Y205400D02*
D03*
Y230800D02*
D03*
Y281600D02*
D03*
D52*
X438250Y246250D02*
G03*
X439500Y245000I1250J0D01*
G01*
X437000Y242500D02*
G03*
X439500Y245000I0J2500D01*
G01*
X460000Y335000D02*
G03*
X438250Y313250I0J-21750D01*
G01*
X394250Y180000D02*
G03*
X405000Y190750I0J10750D01*
G01*
X315000Y174400D02*
G03*
X340400Y149000I25400J0D01*
G01*
X365750Y180000D02*
G03*
X355000Y169250I0J-10750D01*
G01*
X315000Y180000D02*
G03*
X305000Y190000I-10000J0D01*
G01*
X405000Y242500D02*
X437000D01*
X438250Y246250D02*
Y275000D01*
X340400Y149000D02*
X355000D01*
Y169250D01*
X438250Y275000D02*
Y313250D01*
X405000Y190750D02*
Y207500D01*
X315000Y174400D02*
Y180000D01*
X300000Y190000D02*
X305000D01*
X289750Y190150D02*
X299850D01*
X300000Y190000D01*
D53*
X210500Y315000D02*
G03*
X210000Y314500I0J-500D01*
G01*
X424000Y467250D02*
G03*
X423250Y468000I-750J0D01*
G01*
X424000Y411200D02*
G03*
X449400Y385800I25400J0D01*
G01*
X195000Y398000D02*
X202012Y405012D01*
Y427988D01*
X195000Y320000D02*
Y398000D01*
X181900Y448100D02*
X202012Y427988D01*
X67506Y417494D02*
Y418626D01*
Y417494D02*
X68000Y417000D01*
X336000Y360000D02*
X337000D01*
X124000Y140000D02*
X125000D01*
X21000Y390000D02*
Y406000D01*
X59000Y369000D02*
X69000D01*
X22000D02*
X31000D01*
X59000D02*
X68000Y378000D01*
Y390000D02*
X75300Y397300D01*
X87750D01*
X68000Y378000D02*
Y390000D01*
X31000Y369000D02*
X59000D01*
X24178Y375822D02*
X31000Y369000D01*
X21000Y390000D02*
X24178Y386822D01*
Y375822D02*
Y386822D01*
X169400Y435400D02*
X170000Y436000D01*
X142250Y435400D02*
X169400D01*
X294000Y248000D02*
X383000D01*
X229000D02*
X294000D01*
X338000Y260000D02*
Y265571D01*
X333000Y270571D02*
Y271000D01*
Y270571D02*
X338000Y265571D01*
X120000Y80000D02*
Y108000D01*
X126000Y114000D01*
X424000Y411200D02*
Y448750D01*
X49250Y280000D02*
X50000Y280750D01*
X88650D01*
X89500Y281600D01*
X20750Y289500D02*
Y313875D01*
X21000Y314125D01*
Y345000D01*
X49000Y390000D02*
Y435000D01*
X72000Y444000D02*
X72800D01*
X76900Y448100D01*
X21000Y435000D02*
Y452000D01*
X49000Y435000D02*
X87350D01*
X129700Y397300D02*
X155950D01*
X167250Y386000D01*
X104000Y345000D02*
X107500Y348500D01*
Y419500D01*
X170000Y281600D02*
X290600D01*
X295000Y286000D01*
X143654Y318846D02*
X144519D01*
X147500Y315865D01*
X104000Y345000D02*
X117500D01*
X143654Y318846D01*
X147500Y315000D02*
Y315865D01*
X107500Y419500D02*
X129700Y397300D01*
X151346Y311154D02*
X170000Y292500D01*
X150481Y311154D02*
X151346D01*
X147500Y314135D02*
X150481Y311154D01*
X147500Y314135D02*
Y315000D01*
X170000Y281600D02*
Y292500D01*
X172929Y352250D02*
X174500D01*
X179000Y347750D01*
Y345000D02*
Y347750D01*
X170000Y355179D02*
Y386000D01*
Y355179D02*
X172929Y352250D01*
X167250Y386000D02*
X170000D01*
X107500Y419500D02*
Y478000D01*
X294000Y315000D02*
X295000Y314000D01*
X269000Y315000D02*
X294000D01*
X269000Y317750D02*
X288923Y337673D01*
X294250D01*
X295000Y338423D01*
Y340750D01*
X269000Y315000D02*
Y317750D01*
X246202Y337798D02*
X261750Y322250D01*
X264500D01*
X269000Y317750D01*
X240000Y338548D02*
Y340750D01*
Y338548D02*
X240750Y337798D01*
X246202D01*
X209178Y315322D02*
X210000Y314500D01*
X210500Y315000D02*
X241000D01*
X220000Y230000D02*
Y239000D01*
X383000Y248000D02*
X385000Y250000D01*
X220000Y239000D02*
X229000Y248000D01*
X397500Y468000D02*
X423250D01*
X449400Y385800D02*
X460000D01*
X89500Y281600D02*
X106600D01*
X112500Y287500D02*
Y315000D01*
X106600Y281600D02*
X112500Y287500D01*
X76900Y448100D02*
X87750D01*
X304500Y369250D02*
Y380500D01*
X295000Y390000D02*
X304500Y380500D01*
X240000Y390000D02*
X249500Y380500D01*
Y369250D02*
Y380500D01*
X76000Y360150D02*
X82910Y367060D01*
Y370187D01*
X84623Y371900D02*
X87750D01*
X76000Y345000D02*
Y360150D01*
X82910Y370187D02*
X84623Y371900D01*
X49000Y345000D02*
X76000D01*
X140000Y360000D02*
Y370187D01*
Y356000D02*
Y360000D01*
Y370187D02*
X141713Y371900D01*
X142250D01*
X142520Y353480D02*
X145270D01*
X140000Y356000D02*
X142520Y353480D01*
X151000Y345000D02*
Y347750D01*
X145270Y353480D02*
X151000Y347750D01*
X87350Y435000D02*
X87750Y435400D01*
X170000Y414000D02*
Y436000D01*
X195000Y320000D02*
X199678Y315322D01*
X209178D01*
X142250Y448100D02*
X181900D01*
D54*
X102368Y524602D02*
D03*
X464000Y440000D02*
D03*
X120000Y80000D02*
D03*
X445000Y205000D02*
D03*
X410000Y80000D02*
D03*
Y145000D02*
D03*
X271000Y220000D02*
D03*
X195000Y80000D02*
D03*
X165000D02*
D03*
X212000Y383000D02*
D03*
X330000Y380000D02*
D03*
X205000Y450000D02*
D03*
X339000Y340000D02*
D03*
X192000Y515000D02*
D03*
X215000Y260000D02*
D03*
X333000Y271000D02*
D03*
X137000Y523000D02*
D03*
X181000Y307000D02*
D03*
X320000Y515000D02*
D03*
X385000D02*
D03*
X304000Y235000D02*
D03*
X250000Y515000D02*
D03*
X50000Y245000D02*
D03*
X75000Y310000D02*
D03*
X264750Y165150D02*
D03*
X289750D02*
D03*
X264750Y190150D02*
D03*
X239750Y165150D02*
D03*
Y190150D02*
D03*
D55*
X142250Y371900D02*
D03*
Y384600D02*
D03*
Y397300D02*
D03*
Y410000D02*
D03*
Y422700D02*
D03*
Y435400D02*
D03*
Y448100D02*
D03*
X87750Y371900D02*
D03*
Y384600D02*
D03*
Y397300D02*
D03*
Y410000D02*
D03*
Y422700D02*
D03*
Y435400D02*
D03*
Y448100D02*
D03*
D56*
X365750Y180000D02*
D03*
X394250D02*
D03*
D57*
X405000Y242500D02*
D03*
Y207500D02*
D03*
D58*
X471750Y275000D02*
D03*
X438250D02*
D03*
D59*
X439500Y245000D02*
D03*
X470500D02*
D03*
X107500Y478000D02*
D03*
X138500D02*
D03*
D60*
X355000Y81000D02*
D03*
Y149000D02*
D03*
D61*
X397500Y468000D02*
D03*
X376500D02*
D03*
D62*
X424000Y448750D02*
D03*
Y467250D02*
D03*
D63*
X104000Y345000D02*
D03*
X76000D02*
D03*
X179000D02*
D03*
X151000D02*
D03*
X269000Y315000D02*
D03*
X241000D02*
D03*
X49000Y435000D02*
D03*
X21000D02*
D03*
Y390000D02*
D03*
X49000D02*
D03*
Y345000D02*
D03*
X21000D02*
D03*
D64*
X295000Y286000D02*
D03*
Y314000D02*
D03*
X170000Y414000D02*
D03*
Y386000D02*
D03*
Y464000D02*
D03*
Y436000D02*
D03*
D65*
X210000Y314500D02*
D03*
Y345500D02*
D03*
D66*
X240000Y340750D02*
D03*
X230500Y369250D02*
D03*
X249500D02*
D03*
X295000Y340750D02*
D03*
X285500Y369250D02*
D03*
X304500D02*
D03*
D67*
X49250Y280000D02*
D03*
X20750Y270500D02*
D03*
Y289500D02*
D03*
D68*
X147500Y315000D02*
D03*
X112500D02*
D03*
D69*
X223725Y390000D02*
X240000D01*
X216725Y383000D02*
X223725Y390000D01*
X212000Y383000D02*
X216725D01*
X304500Y369250D02*
X319250D01*
X330000Y380000D01*
D70*
X108000Y478500D02*
Y491000D01*
X107500Y478000D02*
X108000Y478500D01*
X256979Y214000D02*
X262837Y208142D01*
X219000Y214000D02*
X256979D01*
X205000Y200000D02*
X219000Y214000D01*
X262837Y192063D02*
Y208142D01*
Y192063D02*
X264750Y190150D01*
X205000Y155000D02*
Y200000D01*
X185000Y135000D02*
X205000Y155000D01*
X155000Y135000D02*
X185000D01*
X130000Y160000D02*
X155000Y135000D01*
X130000Y160000D02*
Y190000D01*
X114600Y205400D02*
X130000Y190000D01*
X89500Y205400D02*
X114600D01*
X126000Y114000D02*
X239000D01*
X264750Y139750D02*
Y165150D01*
X239000Y114000D02*
X264750Y139750D01*
X89500Y150500D02*
Y180000D01*
Y150500D02*
X126000Y114000D01*
D71*
X50000Y100000D02*
D03*
X480000D02*
D03*
Y500000D02*
D03*
X50000D02*
D03*
D72*
X460000Y335000D02*
D03*
Y385800D02*
D03*
Y360400D02*
D03*
D73*
X240000Y94100D02*
D03*
X290000D02*
D03*
D74*
X289750Y190150D02*
D03*
D75*
X245000Y420000D02*
D03*
Y445400D02*
D03*
X305000Y420000D02*
D03*
Y445400D02*
D03*
D76*
X245000Y470800D02*
D03*
X305000D02*
D03*
D77*
X500000Y440000D02*
D03*
X480000Y400000D02*
D03*
X500000Y360000D02*
D03*
X480000Y320000D02*
D03*
X500000Y280000D02*
D03*
X480000Y160000D02*
D03*
X440000Y480000D02*
D03*
Y400000D02*
D03*
Y160000D02*
D03*
Y80000D02*
D03*
X420000Y520000D02*
D03*
Y360000D02*
D03*
X400000Y320000D02*
D03*
X420000Y200000D02*
D03*
X400000Y160000D02*
D03*
X420000Y120000D02*
D03*
X380000Y360000D02*
D03*
Y200000D02*
D03*
Y120000D02*
D03*
X340000Y520000D02*
D03*
X320000Y80000D02*
D03*
X300000Y120000D02*
D03*
X280000Y80000D02*
D03*
X260000Y360000D02*
D03*
X220000Y520000D02*
D03*
Y440000D02*
D03*
Y360000D02*
D03*
X160000Y160000D02*
D03*
X140000Y280000D02*
D03*
X120000Y240000D02*
D03*
X140000Y200000D02*
D03*
X100000Y120000D02*
D03*
X60000Y200000D02*
D03*
X40000Y160000D02*
D03*
X375000Y386000D02*
D03*
X67506Y418626D02*
D03*
X261000Y264000D02*
D03*
X267000Y293000D02*
D03*
X337000Y360000D02*
D03*
X340000Y440000D02*
D03*
X301000Y213000D02*
D03*
X124000Y140000D02*
D03*
X180000Y94000D02*
D03*
X289000Y127000D02*
D03*
X219000Y297000D02*
D03*
X243000Y231000D02*
D03*
X20000Y256000D02*
D03*
X52000Y307000D02*
D03*
X40000Y314000D02*
D03*
X123000Y369000D02*
D03*
Y359000D02*
D03*
X131000Y349000D02*
D03*
X159000Y365000D02*
D03*
X193000Y420000D02*
D03*
X182000Y366000D02*
D03*
X21000Y406000D02*
D03*
X69000Y369000D02*
D03*
X22000D02*
D03*
X116000Y429000D02*
D03*
X338000Y260000D02*
D03*
X165000Y80000D02*
D03*
X195000D02*
D03*
X215000Y260000D02*
D03*
X108000Y491000D02*
D03*
X72000Y444000D02*
D03*
X21000Y452000D02*
D03*
X140000Y360000D02*
D03*
X240000Y390000D02*
D03*
X295000D02*
D03*
X220000Y230000D02*
D03*
X385000Y250000D02*
D03*
X480000Y127500D02*
D03*
X500000Y120000D02*
D03*
X507500Y100000D02*
D03*
X500000Y80000D02*
D03*
X480000Y72500D02*
D03*
X460000Y80000D02*
D03*
X452500Y100000D02*
D03*
X460000Y120000D02*
D03*
X50000Y127500D02*
D03*
X70000Y120000D02*
D03*
X77500Y100000D02*
D03*
X70000Y80000D02*
D03*
X50000Y72500D02*
D03*
X30000Y80000D02*
D03*
X22500Y100000D02*
D03*
X30000Y120000D02*
D03*
X480000Y527500D02*
D03*
X500000Y520000D02*
D03*
X507500Y500000D02*
D03*
X500000Y480000D02*
D03*
X480000Y472500D02*
D03*
X460000Y480000D02*
D03*
X452500Y500000D02*
D03*
X460000Y520000D02*
D03*
X50000Y527500D02*
D03*
X70000Y520000D02*
D03*
X77500Y500000D02*
D03*
X70000Y480000D02*
D03*
X50000Y472500D02*
D03*
X30000Y480000D02*
D03*
X22500Y500000D02*
D03*
X30000Y520000D02*
D03*
M02*
