G04*
G04 #@! TF.GenerationSoftware,Altium Limited,Altium Designer,23.9.2 (47)*
G04*
G04 Layer_Color=8388736*
%FSLAX44Y44*%
%MOMM*%
G71*
G04*
G04 #@! TF.SameCoordinates,C0219126-44E1-4284-9116-4A7CBBAE3C9F*
G04*
G04*
G04 #@! TF.FilePolarity,Negative*
G04*
G01*
G75*
%ADD28R,2.8500X0.9000*%
%ADD31C,2.2000*%
G04:AMPARAMS|DCode=32|XSize=0.8mm|YSize=1.65mm|CornerRadius=0.25mm|HoleSize=0mm|Usage=FLASHONLY|Rotation=270.000|XOffset=0mm|YOffset=0mm|HoleType=Round|Shape=RoundedRectangle|*
%AMROUNDEDRECTD32*
21,1,0.8000,1.1500,0,0,270.0*
21,1,0.3000,1.6500,0,0,270.0*
1,1,0.5000,-0.5750,-0.1500*
1,1,0.5000,-0.5750,0.1500*
1,1,0.5000,0.5750,0.1500*
1,1,0.5000,0.5750,-0.1500*
%
%ADD32ROUNDEDRECTD32*%
G04:AMPARAMS|DCode=33|XSize=1.95mm|YSize=1.45mm|CornerRadius=0.4125mm|HoleSize=0mm|Usage=FLASHONLY|Rotation=90.000|XOffset=0mm|YOffset=0mm|HoleType=Round|Shape=RoundedRectangle|*
%AMROUNDEDRECTD33*
21,1,1.9500,0.6250,0,0,90.0*
21,1,1.1250,1.4500,0,0,90.0*
1,1,0.8250,0.3125,0.5625*
1,1,0.8250,0.3125,-0.5625*
1,1,0.8250,-0.3125,-0.5625*
1,1,0.8250,-0.3125,0.5625*
%
%ADD33ROUNDEDRECTD33*%
G04:AMPARAMS|DCode=34|XSize=1.5mm|YSize=1.3mm|CornerRadius=0.375mm|HoleSize=0mm|Usage=FLASHONLY|Rotation=0.000|XOffset=0mm|YOffset=0mm|HoleType=Round|Shape=RoundedRectangle|*
%AMROUNDEDRECTD34*
21,1,1.5000,0.5500,0,0,0.0*
21,1,0.7500,1.3000,0,0,0.0*
1,1,0.7500,0.3750,-0.2750*
1,1,0.7500,-0.3750,-0.2750*
1,1,0.7500,-0.3750,0.2750*
1,1,0.7500,0.3750,0.2750*
%
%ADD34ROUNDEDRECTD34*%
%ADD35R,2.2000X3.0000*%
%ADD36R,1.4000X1.8000*%
G04:AMPARAMS|DCode=37|XSize=3.5mm|YSize=2.5mm|CornerRadius=0.675mm|HoleSize=0mm|Usage=FLASHONLY|Rotation=180.000|XOffset=0mm|YOffset=0mm|HoleType=Round|Shape=RoundedRectangle|*
%AMROUNDEDRECTD37*
21,1,3.5000,1.1500,0,0,180.0*
21,1,2.1500,2.5000,0,0,180.0*
1,1,1.3500,-1.0750,0.5750*
1,1,1.3500,1.0750,0.5750*
1,1,1.3500,1.0750,-0.5750*
1,1,1.3500,-1.0750,-0.5750*
%
%ADD37ROUNDEDRECTD37*%
G04:AMPARAMS|DCode=38|XSize=1.4mm|YSize=1.3mm|CornerRadius=0.375mm|HoleSize=0mm|Usage=FLASHONLY|Rotation=90.000|XOffset=0mm|YOffset=0mm|HoleType=Round|Shape=RoundedRectangle|*
%AMROUNDEDRECTD38*
21,1,1.4000,0.5500,0,0,90.0*
21,1,0.6500,1.3000,0,0,90.0*
1,1,0.7500,0.2750,0.3250*
1,1,0.7500,0.2750,-0.3250*
1,1,0.7500,-0.2750,-0.3250*
1,1,0.7500,-0.2750,0.3250*
%
%ADD38ROUNDEDRECTD38*%
%ADD39R,1.5500X1.3500*%
%ADD40R,1.6000X2.1500*%
%ADD41R,2.1500X1.6000*%
%ADD42R,1.8000X1.4000*%
G04:AMPARAMS|DCode=43|XSize=0.85mm|YSize=1.45mm|CornerRadius=0.2625mm|HoleSize=0mm|Usage=FLASHONLY|Rotation=0.000|XOffset=0mm|YOffset=0mm|HoleType=Round|Shape=RoundedRectangle|*
%AMROUNDEDRECTD43*
21,1,0.8500,0.9250,0,0,0.0*
21,1,0.3250,1.4500,0,0,0.0*
1,1,0.5250,0.1625,-0.4625*
1,1,0.5250,-0.1625,-0.4625*
1,1,0.5250,-0.1625,0.4625*
1,1,0.5250,0.1625,0.4625*
%
%ADD43ROUNDEDRECTD43*%
G04:AMPARAMS|DCode=44|XSize=0.85mm|YSize=1.45mm|CornerRadius=0.2625mm|HoleSize=0mm|Usage=FLASHONLY|Rotation=90.000|XOffset=0mm|YOffset=0mm|HoleType=Round|Shape=RoundedRectangle|*
%AMROUNDEDRECTD44*
21,1,0.8500,0.9250,0,0,90.0*
21,1,0.3250,1.4500,0,0,90.0*
1,1,0.5250,0.4625,0.1625*
1,1,0.5250,0.4625,-0.1625*
1,1,0.5250,-0.4625,-0.1625*
1,1,0.5250,-0.4625,0.1625*
%
%ADD44ROUNDEDRECTD44*%
G04:AMPARAMS|DCode=45|XSize=1.5mm|YSize=1.3mm|CornerRadius=0.375mm|HoleSize=0mm|Usage=FLASHONLY|Rotation=270.000|XOffset=0mm|YOffset=0mm|HoleType=Round|Shape=RoundedRectangle|*
%AMROUNDEDRECTD45*
21,1,1.5000,0.5500,0,0,270.0*
21,1,0.7500,1.3000,0,0,270.0*
1,1,0.7500,-0.2750,-0.3750*
1,1,0.7500,-0.2750,0.3750*
1,1,0.7500,0.2750,0.3750*
1,1,0.7500,0.2750,-0.3750*
%
%ADD45ROUNDEDRECTD45*%
%ADD46C,7.2000*%
%ADD47C,1.7000*%
%ADD48C,1.7240*%
G04:AMPARAMS|DCode=49|XSize=2.2mm|YSize=2.2mm|CornerRadius=0.6mm|HoleSize=0mm|Usage=FLASHONLY|Rotation=0.000|XOffset=0mm|YOffset=0mm|HoleType=Round|Shape=RoundedRectangle|*
%AMROUNDEDRECTD49*
21,1,2.2000,1.0000,0,0,0.0*
21,1,1.0000,2.2000,0,0,0.0*
1,1,1.2000,0.5000,-0.5000*
1,1,1.2000,-0.5000,-0.5000*
1,1,1.2000,-0.5000,0.5000*
1,1,1.2000,0.5000,0.5000*
%
%ADD49ROUNDEDRECTD49*%
%ADD50C,1.4000*%
%ADD51R,1.4000X1.4000*%
D28*
X170000Y281600D02*
D03*
Y230800D02*
D03*
Y205400D02*
D03*
Y180000D02*
D03*
X89500D02*
D03*
Y205400D02*
D03*
Y230800D02*
D03*
Y281600D02*
D03*
D31*
X102368Y524602D02*
D03*
X464000Y440000D02*
D03*
X120000Y80000D02*
D03*
X445000Y205000D02*
D03*
X410000Y80000D02*
D03*
Y145000D02*
D03*
X271000Y220000D02*
D03*
X195000Y80000D02*
D03*
X165000D02*
D03*
X212000Y383000D02*
D03*
X330000Y380000D02*
D03*
X205000Y450000D02*
D03*
X339000Y340000D02*
D03*
X192000Y515000D02*
D03*
X215000Y260000D02*
D03*
X333000Y271000D02*
D03*
X137000Y523000D02*
D03*
X181000Y307000D02*
D03*
X320000Y515000D02*
D03*
X385000D02*
D03*
X304000Y235000D02*
D03*
X250000Y515000D02*
D03*
X50000Y245000D02*
D03*
X75000Y310000D02*
D03*
X264750Y165150D02*
D03*
X289750D02*
D03*
X264750Y190150D02*
D03*
X239750Y165150D02*
D03*
Y190150D02*
D03*
D32*
X142250Y371900D02*
D03*
Y384600D02*
D03*
Y397300D02*
D03*
Y410000D02*
D03*
Y422700D02*
D03*
Y435400D02*
D03*
Y448100D02*
D03*
X87750Y371900D02*
D03*
Y384600D02*
D03*
Y397300D02*
D03*
Y410000D02*
D03*
Y422700D02*
D03*
Y435400D02*
D03*
Y448100D02*
D03*
D33*
X365750Y180000D02*
D03*
X394250D02*
D03*
D34*
X405000Y242500D02*
D03*
Y207500D02*
D03*
D35*
X471750Y275000D02*
D03*
X438250D02*
D03*
D36*
X439500Y245000D02*
D03*
X470500D02*
D03*
X107500Y478000D02*
D03*
X138500D02*
D03*
D37*
X355000Y81000D02*
D03*
Y149000D02*
D03*
D38*
X397500Y468000D02*
D03*
X376500D02*
D03*
D39*
X424000Y448750D02*
D03*
Y467250D02*
D03*
D40*
X104000Y345000D02*
D03*
X76000D02*
D03*
X179000D02*
D03*
X151000D02*
D03*
X269000Y315000D02*
D03*
X241000D02*
D03*
X49000Y435000D02*
D03*
X21000D02*
D03*
Y390000D02*
D03*
X49000D02*
D03*
Y345000D02*
D03*
X21000D02*
D03*
D41*
X295000Y286000D02*
D03*
Y314000D02*
D03*
X170000Y414000D02*
D03*
Y386000D02*
D03*
Y464000D02*
D03*
Y436000D02*
D03*
D42*
X210000Y314500D02*
D03*
Y345500D02*
D03*
D43*
X240000Y340750D02*
D03*
X230500Y369250D02*
D03*
X249500D02*
D03*
X295000Y340750D02*
D03*
X285500Y369250D02*
D03*
X304500D02*
D03*
D44*
X49250Y280000D02*
D03*
X20750Y270500D02*
D03*
Y289500D02*
D03*
D45*
X147500Y315000D02*
D03*
X112500D02*
D03*
D46*
X50000Y100000D02*
D03*
X480000D02*
D03*
Y500000D02*
D03*
X50000D02*
D03*
D47*
X460000Y335000D02*
D03*
Y385800D02*
D03*
Y360400D02*
D03*
D48*
X240000Y94100D02*
D03*
X290000D02*
D03*
D49*
X289750Y190150D02*
D03*
D50*
X245000Y420000D02*
D03*
Y445400D02*
D03*
X305000Y420000D02*
D03*
Y445400D02*
D03*
D51*
X245000Y470800D02*
D03*
X305000D02*
D03*
M02*
