G04*
G04 #@! TF.GenerationSoftware,Altium Limited,Altium Designer,23.9.2 (47)*
G04*
G04 Layer_Color=16711935*
%FSLAX44Y44*%
%MOMM*%
G71*
G04*
G04 #@! TF.SameCoordinates,C0219126-44E1-4284-9116-4A7CBBAE3C9F*
G04*
G04*
G04 #@! TF.FilePolarity,Positive*
G04*
G01*
G75*
%ADD13C,0.2000*%
G36*
X131178Y216131D02*
X134265Y218313D01*
Y217306D01*
X132620Y216141D01*
X132611D01*
X132601Y216122D01*
X132573Y216104D01*
X132537Y216076D01*
X132444Y216020D01*
X132333Y215937D01*
X132204Y215854D01*
X132074Y215771D01*
X131954Y215697D01*
X131843Y215632D01*
X131862Y215623D01*
X131899Y215595D01*
X131973Y215549D01*
X132065Y215484D01*
X132167Y215410D01*
X132296Y215318D01*
X132426Y215225D01*
X132564Y215114D01*
X134265Y213839D01*
Y212914D01*
X131224Y215133D01*
X127867Y212738D01*
Y213783D01*
X130142Y215401D01*
X130151Y215410D01*
X130179Y215429D01*
X130216Y215447D01*
X130262Y215484D01*
X130392Y215567D01*
X130530Y215660D01*
X130521Y215669D01*
X130484Y215697D01*
X130429Y215734D01*
X130355Y215780D01*
X130207Y215882D01*
X130142Y215928D01*
X130086Y215965D01*
X127867Y217583D01*
Y218600D01*
X131178Y216131D01*
D02*
G37*
G36*
X132684Y211693D02*
X132703Y211675D01*
X132712Y211638D01*
X132740Y211592D01*
X132768Y211536D01*
X132805Y211472D01*
X132897Y211314D01*
X132999Y211129D01*
X133128Y210945D01*
X133276Y210750D01*
X133433Y210556D01*
X133443Y210547D01*
X133452Y210538D01*
X133480Y210510D01*
X133507Y210473D01*
X133600Y210390D01*
X133711Y210279D01*
X133840Y210168D01*
X133988Y210048D01*
X134136Y209946D01*
X134293Y209854D01*
Y209345D01*
X127867D01*
Y210131D01*
X132869D01*
X132860Y210140D01*
X132823Y210186D01*
X132768Y210242D01*
X132703Y210334D01*
X132620Y210436D01*
X132527Y210565D01*
X132426Y210713D01*
X132324Y210880D01*
Y210889D01*
X132315Y210898D01*
X132278Y210954D01*
X132232Y211046D01*
X132176Y211157D01*
X132111Y211287D01*
X132046Y211425D01*
X131982Y211564D01*
X131926Y211703D01*
X132684D01*
Y211693D01*
D02*
G37*
D13*
X74250Y292600D02*
X185250D01*
X74250Y144600D02*
Y292600D01*
Y144600D02*
X185250D01*
Y292600D01*
M02*
