G04*
G04 #@! TF.GenerationSoftware,Altium Limited,Altium Designer,23.9.2 (47)*
G04*
G04 Layer_Color=16711935*
%FSLAX44Y44*%
%MOMM*%
G71*
G04*
G04 #@! TF.SameCoordinates,C0219126-44E1-4284-9116-4A7CBBAE3C9F*
G04*
G04*
G04 #@! TF.FilePolarity,Negative*
G04*
G01*
G75*
%ADD31C,2.2000*%
G04:AMPARAMS|DCode=32|XSize=0.8mm|YSize=1.65mm|CornerRadius=0.25mm|HoleSize=0mm|Usage=FLASHONLY|Rotation=270.000|XOffset=0mm|YOffset=0mm|HoleType=Round|Shape=RoundedRectangle|*
%AMROUNDEDRECTD32*
21,1,0.8000,1.1500,0,0,270.0*
21,1,0.3000,1.6500,0,0,270.0*
1,1,0.5000,-0.5750,-0.1500*
1,1,0.5000,-0.5750,0.1500*
1,1,0.5000,0.5750,0.1500*
1,1,0.5000,0.5750,-0.1500*
%
%ADD32ROUNDEDRECTD32*%
%ADD35R,2.2000X3.0000*%
%ADD36R,1.4000X1.8000*%
%ADD40R,1.6000X2.1500*%
%ADD41R,2.1500X1.6000*%
%ADD42R,1.8000X1.4000*%
G04:AMPARAMS|DCode=43|XSize=0.85mm|YSize=1.45mm|CornerRadius=0.2625mm|HoleSize=0mm|Usage=FLASHONLY|Rotation=0.000|XOffset=0mm|YOffset=0mm|HoleType=Round|Shape=RoundedRectangle|*
%AMROUNDEDRECTD43*
21,1,0.8500,0.9250,0,0,0.0*
21,1,0.3250,1.4500,0,0,0.0*
1,1,0.5250,0.1625,-0.4625*
1,1,0.5250,-0.1625,-0.4625*
1,1,0.5250,-0.1625,0.4625*
1,1,0.5250,0.1625,0.4625*
%
%ADD43ROUNDEDRECTD43*%
G04:AMPARAMS|DCode=44|XSize=0.85mm|YSize=1.45mm|CornerRadius=0.2625mm|HoleSize=0mm|Usage=FLASHONLY|Rotation=90.000|XOffset=0mm|YOffset=0mm|HoleType=Round|Shape=RoundedRectangle|*
%AMROUNDEDRECTD44*
21,1,0.8500,0.9250,0,0,90.0*
21,1,0.3250,1.4500,0,0,90.0*
1,1,0.5250,0.4625,0.1625*
1,1,0.5250,0.4625,-0.1625*
1,1,0.5250,-0.4625,-0.1625*
1,1,0.5250,-0.4625,0.1625*
%
%ADD44ROUNDEDRECTD44*%
%ADD46C,7.2000*%
%ADD47C,1.7000*%
%ADD48C,1.7240*%
G04:AMPARAMS|DCode=49|XSize=2.2mm|YSize=2.2mm|CornerRadius=0.6mm|HoleSize=0mm|Usage=FLASHONLY|Rotation=0.000|XOffset=0mm|YOffset=0mm|HoleType=Round|Shape=RoundedRectangle|*
%AMROUNDEDRECTD49*
21,1,2.2000,1.0000,0,0,0.0*
21,1,1.0000,2.2000,0,0,0.0*
1,1,1.2000,0.5000,-0.5000*
1,1,1.2000,-0.5000,-0.5000*
1,1,1.2000,-0.5000,0.5000*
1,1,1.2000,0.5000,0.5000*
%
%ADD49ROUNDEDRECTD49*%
%ADD50C,1.4000*%
%ADD51R,1.4000X1.4000*%
G04:AMPARAMS|DCode=79|XSize=1.9mm|YSize=2.7mm|CornerRadius=0.525mm|HoleSize=0mm|Usage=FLASHONLY|Rotation=0.000|XOffset=0mm|YOffset=0mm|HoleType=Round|Shape=RoundedRectangle|*
%AMROUNDEDRECTD79*
21,1,1.9000,1.6500,0,0,0.0*
21,1,0.8500,2.7000,0,0,0.0*
1,1,1.0500,0.4250,-0.8250*
1,1,1.0500,-0.4250,-0.8250*
1,1,1.0500,-0.4250,0.8250*
1,1,1.0500,0.4250,0.8250*
%
%ADD79ROUNDEDRECTD79*%
D31*
X264750Y165150D02*
D03*
X289750D02*
D03*
X264750Y190150D02*
D03*
X239750Y165150D02*
D03*
Y190150D02*
D03*
D32*
X292250Y323100D02*
D03*
Y310400D02*
D03*
Y297700D02*
D03*
Y285000D02*
D03*
Y272300D02*
D03*
Y259600D02*
D03*
Y246900D02*
D03*
X237750Y323100D02*
D03*
Y310400D02*
D03*
Y297700D02*
D03*
Y285000D02*
D03*
Y272300D02*
D03*
Y259600D02*
D03*
Y246900D02*
D03*
D35*
X388250Y470000D02*
D03*
X421750D02*
D03*
D36*
X420500Y435000D02*
D03*
X389500D02*
D03*
D40*
X331000Y245000D02*
D03*
X359000D02*
D03*
X199000D02*
D03*
X171000D02*
D03*
X396000Y275000D02*
D03*
X424000D02*
D03*
D41*
X175000Y414000D02*
D03*
Y386000D02*
D03*
X40000Y399000D02*
D03*
Y371000D02*
D03*
X130000Y414000D02*
D03*
Y386000D02*
D03*
X165000Y214000D02*
D03*
Y186000D02*
D03*
X225000Y374000D02*
D03*
Y346000D02*
D03*
X355000Y276000D02*
D03*
Y304000D02*
D03*
X300000Y374000D02*
D03*
Y346000D02*
D03*
X360000Y214000D02*
D03*
Y186000D02*
D03*
D42*
X265000Y344500D02*
D03*
Y375500D02*
D03*
X95000Y439500D02*
D03*
Y470500D02*
D03*
X130000D02*
D03*
Y439500D02*
D03*
D43*
X174500Y440750D02*
D03*
X155500D02*
D03*
X165000Y469250D02*
D03*
D44*
X99250Y409500D02*
D03*
Y390500D02*
D03*
X70750Y400000D02*
D03*
D46*
X50000Y100000D02*
D03*
X480000D02*
D03*
Y500000D02*
D03*
X50000D02*
D03*
D47*
X460000Y335000D02*
D03*
Y385800D02*
D03*
Y360400D02*
D03*
D48*
X240000Y94100D02*
D03*
X290000D02*
D03*
D49*
X289750Y190150D02*
D03*
D50*
X245000Y420000D02*
D03*
Y445400D02*
D03*
X305000Y420000D02*
D03*
Y445400D02*
D03*
D51*
X245000Y470800D02*
D03*
X305000D02*
D03*
D79*
X330000Y110250D02*
D03*
Y149750D02*
D03*
X200000Y110250D02*
D03*
Y149750D02*
D03*
M02*
