G04*
G04 #@! TF.GenerationSoftware,Altium Limited,Altium Designer,23.9.2 (47)*
G04*
G04 Layer_Color=2752767*
%FSLAX44Y44*%
%MOMM*%
G71*
G04*
G04 #@! TF.SameCoordinates,C0219126-44E1-4284-9116-4A7CBBAE3C9F*
G04*
G04*
G04 #@! TF.FilePolarity,Positive*
G04*
G01*
G75*
%ADD81C,0.1693*%
%ADD82C,0.1270*%
D81*
X55080Y100000D02*
G03*
X55080Y100000I-5080J0D01*
G01*
X485080D02*
G03*
X485080Y100000I-5080J0D01*
G01*
Y500000D02*
G03*
X485080Y500000I-5080J0D01*
G01*
X55080D02*
G03*
X55080Y500000I-5080J0D01*
G01*
D82*
X454920Y329920D02*
Y340080D01*
X465080D01*
Y329920D01*
X454920D01*
Y380720D02*
Y390880D01*
X465080D01*
Y380720D01*
X454920D01*
Y355320D02*
Y365480D01*
X465080D01*
Y355320D01*
X454920D01*
X240000Y89020D02*
X234920Y99180D01*
X245080D01*
X240000Y89020D01*
X290000D02*
X284920Y99180D01*
X295080D01*
X290000Y89020D01*
X264750Y160070D02*
X267290Y162610D01*
X269830D01*
X267290Y165150D01*
X269830Y167690D01*
X267290D01*
X264750Y170230D01*
X262210Y167690D01*
X259670D01*
X262210Y165150D01*
X259670Y162610D01*
X262210D01*
X264750Y160070D01*
X289750Y185070D02*
X292290Y187610D01*
X294830D01*
X292290Y190150D01*
X294830Y192690D01*
X292290D01*
X289750Y195230D01*
X287210Y192690D01*
X284670D01*
X287210Y190150D01*
X284670Y187610D01*
X287210D01*
X289750Y185070D01*
Y160070D02*
X292290Y162610D01*
X294830D01*
X292290Y165150D01*
X294830Y167690D01*
X292290D01*
X289750Y170230D01*
X287210Y167690D01*
X284670D01*
X287210Y165150D01*
X284670Y162610D01*
X287210D01*
X289750Y160070D01*
X264750Y185070D02*
X267290Y187610D01*
X269830D01*
X267290Y190150D01*
X269830Y192690D01*
X267290D01*
X264750Y195230D01*
X262210Y192690D01*
X259670D01*
X262210Y190150D01*
X259670Y187610D01*
X262210D01*
X264750Y185070D01*
X239750Y160070D02*
X242290Y162610D01*
X244830D01*
X242290Y165150D01*
X244830Y167690D01*
X242290D01*
X239750Y170230D01*
X237210Y167690D01*
X234670D01*
X237210Y165150D01*
X234670Y162610D01*
X237210D01*
X239750Y160070D01*
Y185070D02*
X242290Y187610D01*
X244830D01*
X242290Y190150D01*
X244830Y192690D01*
X242290D01*
X239750Y195230D01*
X237210Y192690D01*
X234670D01*
X237210Y190150D01*
X234670Y187610D01*
X237210D01*
X239750Y185070D01*
X239920Y414920D02*
X242460Y420000D01*
X239920Y425080D01*
X245000Y422540D01*
X250080Y425080D01*
X247540Y420000D01*
X250080Y414920D01*
X245000Y417460D01*
X239920Y414920D01*
Y440320D02*
X242460Y445400D01*
X239920Y450480D01*
X245000Y447940D01*
X250080Y450480D01*
X247540Y445400D01*
X250080Y440320D01*
X245000Y442860D01*
X239920Y440320D01*
Y465720D02*
X242460Y470800D01*
X239920Y475880D01*
X245000Y473340D01*
X250080Y475880D01*
X247540Y470800D01*
X250080Y465720D01*
X245000Y468260D01*
X239920Y465720D01*
X299920Y414920D02*
X302460Y420000D01*
X299920Y425080D01*
X305000Y422540D01*
X310080Y425080D01*
X307540Y420000D01*
X310080Y414920D01*
X305000Y417460D01*
X299920Y414920D01*
Y440320D02*
X302460Y445400D01*
X299920Y450480D01*
X305000Y447940D01*
X310080Y450480D01*
X307540Y445400D01*
X310080Y440320D01*
X305000Y442860D01*
X299920Y440320D01*
Y465720D02*
X302460Y470800D01*
X299920Y475880D01*
X305000Y473340D01*
X310080Y475880D01*
X307540Y470800D01*
X310080Y465720D01*
X305000Y468260D01*
X299920Y465720D01*
X494920Y440000D02*
X500000Y445080D01*
X505080Y440000D01*
X500000Y434920D01*
X494920Y440000D01*
X474920Y400000D02*
X480000Y405080D01*
X485080Y400000D01*
X480000Y394920D01*
X474920Y400000D01*
X494920Y360000D02*
X500000Y365080D01*
X505080Y360000D01*
X500000Y354920D01*
X494920Y360000D01*
X474920Y320000D02*
X480000Y325080D01*
X485080Y320000D01*
X480000Y314920D01*
X474920Y320000D01*
X494920Y280000D02*
X500000Y285080D01*
X505080Y280000D01*
X500000Y274920D01*
X494920Y280000D01*
X474920Y160000D02*
X480000Y165080D01*
X485080Y160000D01*
X480000Y154920D01*
X474920Y160000D01*
X434920Y480000D02*
X440000Y485080D01*
X445080Y480000D01*
X440000Y474920D01*
X434920Y480000D01*
Y400000D02*
X440000Y405080D01*
X445080Y400000D01*
X440000Y394920D01*
X434920Y400000D01*
Y160000D02*
X440000Y165080D01*
X445080Y160000D01*
X440000Y154920D01*
X434920Y160000D01*
Y80000D02*
X440000Y85080D01*
X445080Y80000D01*
X440000Y74920D01*
X434920Y80000D01*
X414920Y520000D02*
X420000Y525080D01*
X425080Y520000D01*
X420000Y514920D01*
X414920Y520000D01*
Y360000D02*
X420000Y365080D01*
X425080Y360000D01*
X420000Y354920D01*
X414920Y360000D01*
X394920Y320000D02*
X400000Y325080D01*
X405080Y320000D01*
X400000Y314920D01*
X394920Y320000D01*
X414920Y200000D02*
X420000Y205080D01*
X425080Y200000D01*
X420000Y194920D01*
X414920Y200000D01*
X394920Y160000D02*
X400000Y165080D01*
X405080Y160000D01*
X400000Y154920D01*
X394920Y160000D01*
X414920Y120000D02*
X420000Y125080D01*
X425080Y120000D01*
X420000Y114920D01*
X414920Y120000D01*
X374920Y360000D02*
X380000Y365080D01*
X385080Y360000D01*
X380000Y354920D01*
X374920Y360000D01*
Y200000D02*
X380000Y205080D01*
X385080Y200000D01*
X380000Y194920D01*
X374920Y200000D01*
Y120000D02*
X380000Y125080D01*
X385080Y120000D01*
X380000Y114920D01*
X374920Y120000D01*
X334920Y520000D02*
X340000Y525080D01*
X345080Y520000D01*
X340000Y514920D01*
X334920Y520000D01*
X314920Y80000D02*
X320000Y85080D01*
X325080Y80000D01*
X320000Y74920D01*
X314920Y80000D01*
X294920Y120000D02*
X300000Y125080D01*
X305080Y120000D01*
X300000Y114920D01*
X294920Y120000D01*
X274920Y80000D02*
X280000Y85080D01*
X285080Y80000D01*
X280000Y74920D01*
X274920Y80000D01*
X254920Y360000D02*
X260000Y365080D01*
X265080Y360000D01*
X260000Y354920D01*
X254920Y360000D01*
X214920Y520000D02*
X220000Y525080D01*
X225080Y520000D01*
X220000Y514920D01*
X214920Y520000D01*
Y440000D02*
X220000Y445080D01*
X225080Y440000D01*
X220000Y434920D01*
X214920Y440000D01*
Y360000D02*
X220000Y365080D01*
X225080Y360000D01*
X220000Y354920D01*
X214920Y360000D01*
X154920Y160000D02*
X160000Y165080D01*
X165080Y160000D01*
X160000Y154920D01*
X154920Y160000D01*
X134920Y280000D02*
X140000Y285080D01*
X145080Y280000D01*
X140000Y274920D01*
X134920Y280000D01*
X114920Y240000D02*
X120000Y245080D01*
X125080Y240000D01*
X120000Y234920D01*
X114920Y240000D01*
X134920Y200000D02*
X140000Y205080D01*
X145080Y200000D01*
X140000Y194920D01*
X134920Y200000D01*
X94920Y120000D02*
X100000Y125080D01*
X105080Y120000D01*
X100000Y114920D01*
X94920Y120000D01*
X54920Y200000D02*
X60000Y205080D01*
X65080Y200000D01*
X60000Y194920D01*
X54920Y200000D01*
X34920Y160000D02*
X40000Y165080D01*
X45080Y160000D01*
X40000Y154920D01*
X34920Y160000D01*
X369920Y386000D02*
X375000Y391080D01*
X380080Y386000D01*
X375000Y380920D01*
X369920Y386000D01*
X62426Y418626D02*
X67506Y423706D01*
X72586Y418626D01*
X67506Y413546D01*
X62426Y418626D01*
X255920Y264000D02*
X261000Y269080D01*
X266080Y264000D01*
X261000Y258920D01*
X255920Y264000D01*
X261920Y293000D02*
X267000Y298080D01*
X272080Y293000D01*
X267000Y287920D01*
X261920Y293000D01*
X331920Y360000D02*
X337000Y365080D01*
X342080Y360000D01*
X337000Y354920D01*
X331920Y360000D01*
X334920Y440000D02*
X340000Y445080D01*
X345080Y440000D01*
X340000Y434920D01*
X334920Y440000D01*
X295920Y213000D02*
X301000Y218080D01*
X306080Y213000D01*
X301000Y207920D01*
X295920Y213000D01*
X118920Y140000D02*
X124000Y145080D01*
X129080Y140000D01*
X124000Y134920D01*
X118920Y140000D01*
X174920Y94000D02*
X180000Y99080D01*
X185080Y94000D01*
X180000Y88920D01*
X174920Y94000D01*
X283920Y127000D02*
X289000Y132080D01*
X294080Y127000D01*
X289000Y121920D01*
X283920Y127000D01*
X213920Y297000D02*
X219000Y302080D01*
X224080Y297000D01*
X219000Y291920D01*
X213920Y297000D01*
X237920Y231000D02*
X243000Y236080D01*
X248080Y231000D01*
X243000Y225920D01*
X237920Y231000D01*
X14920Y256000D02*
X20000Y261080D01*
X25080Y256000D01*
X20000Y250920D01*
X14920Y256000D01*
X46920Y307000D02*
X52000Y312080D01*
X57080Y307000D01*
X52000Y301920D01*
X46920Y307000D01*
X34920Y314000D02*
X40000Y319080D01*
X45080Y314000D01*
X40000Y308920D01*
X34920Y314000D01*
X117920Y369000D02*
X123000Y374080D01*
X128080Y369000D01*
X123000Y363920D01*
X117920Y369000D01*
Y359000D02*
X123000Y364080D01*
X128080Y359000D01*
X123000Y353920D01*
X117920Y359000D01*
X125920Y349000D02*
X131000Y354080D01*
X136080Y349000D01*
X131000Y343920D01*
X125920Y349000D01*
X153920Y365000D02*
X159000Y370080D01*
X164080Y365000D01*
X159000Y359920D01*
X153920Y365000D01*
X187920Y420000D02*
X193000Y425080D01*
X198080Y420000D01*
X193000Y414920D01*
X187920Y420000D01*
X176920Y366000D02*
X182000Y371080D01*
X187080Y366000D01*
X182000Y360920D01*
X176920Y366000D01*
X15920Y406000D02*
X21000Y411080D01*
X26080Y406000D01*
X21000Y400920D01*
X15920Y406000D01*
X63920Y369000D02*
X69000Y374080D01*
X74080Y369000D01*
X69000Y363920D01*
X63920Y369000D01*
X16920D02*
X22000Y374080D01*
X27080Y369000D01*
X22000Y363920D01*
X16920Y369000D01*
X110920Y429000D02*
X116000Y434080D01*
X121080Y429000D01*
X116000Y423920D01*
X110920Y429000D01*
X332920Y260000D02*
X338000Y265080D01*
X343080Y260000D01*
X338000Y254920D01*
X332920Y260000D01*
X159920Y80000D02*
X165000Y85080D01*
X170080Y80000D01*
X165000Y74920D01*
X159920Y80000D01*
X189920D02*
X195000Y85080D01*
X200080Y80000D01*
X195000Y74920D01*
X189920Y80000D01*
X209920Y260000D02*
X215000Y265080D01*
X220080Y260000D01*
X215000Y254920D01*
X209920Y260000D01*
X102920Y491000D02*
X108000Y496080D01*
X113080Y491000D01*
X108000Y485920D01*
X102920Y491000D01*
X66920Y444000D02*
X72000Y449080D01*
X77080Y444000D01*
X72000Y438920D01*
X66920Y444000D01*
X15920Y452000D02*
X21000Y457080D01*
X26080Y452000D01*
X21000Y446920D01*
X15920Y452000D01*
X134920Y360000D02*
X140000Y365080D01*
X145080Y360000D01*
X140000Y354920D01*
X134920Y360000D01*
X234920Y390000D02*
X240000Y395080D01*
X245080Y390000D01*
X240000Y384920D01*
X234920Y390000D01*
X289920D02*
X295000Y395080D01*
X300080Y390000D01*
X295000Y384920D01*
X289920Y390000D01*
X214920Y230000D02*
X220000Y235080D01*
X225080Y230000D01*
X220000Y224920D01*
X214920Y230000D01*
X379920Y250000D02*
X385000Y255080D01*
X390080Y250000D01*
X385000Y244920D01*
X379920Y250000D01*
X474920Y127500D02*
X480000Y132580D01*
X485080Y127500D01*
X480000Y122420D01*
X474920Y127500D01*
X494920Y120000D02*
X500000Y125080D01*
X505080Y120000D01*
X500000Y114920D01*
X494920Y120000D01*
X502420Y100000D02*
X507500Y105080D01*
X512580Y100000D01*
X507500Y94920D01*
X502420Y100000D01*
X494920Y80000D02*
X500000Y85080D01*
X505080Y80000D01*
X500000Y74920D01*
X494920Y80000D01*
X474920Y72500D02*
X480000Y77580D01*
X485080Y72500D01*
X480000Y67420D01*
X474920Y72500D01*
X454920Y80000D02*
X460000Y85080D01*
X465080Y80000D01*
X460000Y74920D01*
X454920Y80000D01*
X447420Y100000D02*
X452500Y105080D01*
X457580Y100000D01*
X452500Y94920D01*
X447420Y100000D01*
X454920Y120000D02*
X460000Y125080D01*
X465080Y120000D01*
X460000Y114920D01*
X454920Y120000D01*
X44920Y127500D02*
X50000Y132580D01*
X55080Y127500D01*
X50000Y122420D01*
X44920Y127500D01*
X64920Y120000D02*
X70000Y125080D01*
X75080Y120000D01*
X70000Y114920D01*
X64920Y120000D01*
X72420Y100000D02*
X77500Y105080D01*
X82580Y100000D01*
X77500Y94920D01*
X72420Y100000D01*
X64920Y80000D02*
X70000Y85080D01*
X75080Y80000D01*
X70000Y74920D01*
X64920Y80000D01*
X44920Y72500D02*
X50000Y77580D01*
X55080Y72500D01*
X50000Y67420D01*
X44920Y72500D01*
X24920Y80000D02*
X30000Y85080D01*
X35080Y80000D01*
X30000Y74920D01*
X24920Y80000D01*
X17420Y100000D02*
X22500Y105080D01*
X27580Y100000D01*
X22500Y94920D01*
X17420Y100000D01*
X24920Y120000D02*
X30000Y125080D01*
X35080Y120000D01*
X30000Y114920D01*
X24920Y120000D01*
X474920Y527500D02*
X480000Y532580D01*
X485080Y527500D01*
X480000Y522420D01*
X474920Y527500D01*
X494920Y520000D02*
X500000Y525080D01*
X505080Y520000D01*
X500000Y514920D01*
X494920Y520000D01*
X502420Y500000D02*
X507500Y505080D01*
X512580Y500000D01*
X507500Y494920D01*
X502420Y500000D01*
X494920Y480000D02*
X500000Y485080D01*
X505080Y480000D01*
X500000Y474920D01*
X494920Y480000D01*
X474920Y472500D02*
X480000Y477580D01*
X485080Y472500D01*
X480000Y467420D01*
X474920Y472500D01*
X454920Y480000D02*
X460000Y485080D01*
X465080Y480000D01*
X460000Y474920D01*
X454920Y480000D01*
X447420Y500000D02*
X452500Y505080D01*
X457580Y500000D01*
X452500Y494920D01*
X447420Y500000D01*
X454920Y520000D02*
X460000Y525080D01*
X465080Y520000D01*
X460000Y514920D01*
X454920Y520000D01*
X44920Y527500D02*
X50000Y532580D01*
X55080Y527500D01*
X50000Y522420D01*
X44920Y527500D01*
X64920Y520000D02*
X70000Y525080D01*
X75080Y520000D01*
X70000Y514920D01*
X64920Y520000D01*
X72420Y500000D02*
X77500Y505080D01*
X82580Y500000D01*
X77500Y494920D01*
X72420Y500000D01*
X64920Y480000D02*
X70000Y485080D01*
X75080Y480000D01*
X70000Y474920D01*
X64920Y480000D01*
X44920Y472500D02*
X50000Y477580D01*
X55080Y472500D01*
X50000Y467420D01*
X44920Y472500D01*
X24920Y480000D02*
X30000Y485080D01*
X35080Y480000D01*
X30000Y474920D01*
X24920Y480000D01*
X17420Y500000D02*
X22500Y505080D01*
X27580Y500000D01*
X22500Y494920D01*
X17420Y500000D01*
X24920Y520000D02*
X30000Y525080D01*
X35080Y520000D01*
X30000Y514920D01*
X24920Y520000D01*
M02*
